<svg id="Layer_1" data-name="Layer 1" xmlns="http://www.w3.org/2000/svg" xmlns:xlink="http://www.w3.org/1999/xlink" viewBox="0 0 750 1334"><defs><style>.cls-1{fill:none;}.cls-2{fill:#05527c;}.cls-3{clip-path:url(#clip-path);}.cls-11,.cls-4{fill:#ed8615;}.cls-4{opacity:0.45;}.cls-5{fill:#f15a29;opacity:0.57;}.cls-6{fill:#f79b08;opacity:0.42;}.cls-7{fill:#0969aa;opacity:0.72;}.cls-8{fill:#054172;}.cls-9{opacity:0.39;}.cls-10{fill:#f7941d;}.cls-12{opacity:0.43;}.cls-13{fill:#f48d25;}</style><clipPath id="clip-path"><rect class="cls-1" x="0.69" y="1.47" width="748.61" height="1331.53"/></clipPath></defs><title>Untitled-3</title><rect class="cls-2" x="0.69" y="1.47" width="748.61" height="1331.53"/><g class="cls-3"><path class="cls-4" d="M246.92,962c-1.6,0-3.2,0-4.79,0l.07-3.24c3.21.06,6.46.06,9.67,0l.07,3.24C250.27,962,248.6,962,246.92,962Zm-14.59-.43c-3.28-.2-6.53-.46-9.77-.79l.32-3.22c3.2.32,6.41.58,9.65.77Zm29.41,0-.19-3.23q4.84-.3,9.64-.78l.33,3.22Q266.66,961.28,261.74,961.57Zm-48.92-2q-4.87-.69-9.68-1.57l.58-3.19c3.17.58,6.35,1.1,9.56,1.56Zm68.43,0-.46-3.21q4.81-.69,9.55-1.56l.59,3.18C287.73,958.6,284.5,959.12,281.25,959.59Zm-87.72-3.52q-4.8-1.08-9.52-2.36l.85-3.13q4.65,1.26,9.39,2.34Zm107-.05-.72-3.16q4.73-1.08,9.39-2.34l.84,3.13Q305.34,954.93,300.54,956ZM174.6,951q-4.71-1.49-9.32-3.15l1.1-3q4.55,1.65,9.19,3.11Zm144.87-.08-1-3.08q4.62-1.47,9.16-3.11l1.11,3Q324.15,949.41,319.47,950.88Zm-163.37-6.6q-4.56-1.86-9-3.9l1.35-2.94q4.4,2,8.9,3.84Zm181.81-.07-1.23-3q4.49-1.83,8.86-3.83l1.35,2.94Q342.45,942.36,337.91,944.21Zm-199.69-8.1q-4.38-2.22-8.67-4.63l1.59-2.82q4.22,2.37,8.55,4.56Zm217.49,0-1.47-2.89q4.31-2.19,8.52-4.55l1.58,2.83Q360.08,933.84,355.71,936.07Zm-234.63-9.56q-4.18-2.57-8.25-5.31l1.81-2.69q4,2.7,8.14,5.24Zm251.7,0-1.7-2.76q4.13-2.54,8.13-5.24l1.81,2.69Q377,923.92,372.78,926.5ZM389,915.56,387.12,913q3.9-2.87,7.68-5.88l2,2.53Q393,912.66,389,915.56Zm-284.24,0c-2.64-1.93-5.24-3.93-7.8-6l2-2.53q3.78,3,7.68,5.89Zm299.55-12.22-2.12-2.45c2.44-2.11,4.83-4.28,7.19-6.48l2.22,2.36C409.25,899,406.83,901.18,404.35,903.33Zm-314.89,0q-3.7-3.22-7.28-6.58l2.22-2.36q3.52,3.33,7.18,6.49ZM418.64,889.9l-2.31-2.27q3.39-3.45,6.63-7l2.41,2.17Q422.07,886.4,418.64,889.9Zm-343.47,0q-3.42-3.51-6.72-7.14l2.41-2.17q3.24,3.59,6.63,7ZM431.8,875.34l-2.49-2.07q3.1-3.72,6-7.57l2.57,2Q434.94,871.57,431.8,875.34ZM62,875.32q-3.14-3.77-6.12-7.66l2.57-2q2.94,3.84,6,7.56Zm381.7-15.55-2.65-1.87q2.79-4,5.42-8l2.72,1.75Q446.56,855.76,443.73,859.77Zm-393.62,0q-2.82-4-5.48-8.13l2.73-1.75q2.61,4.07,5.4,8ZM39.5,843.3c-1.66-2.81-3.25-5.65-4.8-8.54l2.86-1.52q2.28,4.26,4.73,8.42Zm414.87,0-2.79-1.65q2.44-4.17,4.74-8.45l2.86,1.53Q456.86,839,454.37,843.26ZM30.26,826q-2.11-4.39-4.07-8.9l3-1.28q1.92,4.44,4,8.77Zm433.36-.1-2.91-1.41q2.1-4.35,4-8.81l3,1.28Q465.76,821.51,463.62,825.93ZM22.48,808.09q-1.76-4.58-3.34-9.23l3.07-1q1.56,4.6,3.29,9.1Zm449-.2-3-1.16c1.16-3,2.25-6.06,3.3-9.13l3.06,1Q473.2,803.31,471.43,807.89ZM16.18,789.51q-1.38-4.69-2.57-9.47l3.14-.78q1.17,4.71,2.54,9.34Zm461.54-.22-3.1-.92c.9-3.08,1.75-6.2,2.53-9.34l3.14.79Q479.11,784.59,477.72,789.29ZM11.42,770.48c-.66-3.19-1.25-6.4-1.78-9.65l3.19-.52q.8,4.8,1.77,9.51Zm471-.23-3.17-.65c.65-3.15,1.24-6.33,1.76-9.52l3.19.53C483.71,763.84,483.12,767.06,482.46,770.25ZM8.24,751.13c-.4-3.23-.73-6.49-1-9.76l3.23-.26c.27,3.23.59,6.44,1,9.63Zm477.38-.23-3.21-.39c.39-3.2.71-6.4,1-9.63l3.23.26Q486.22,746,485.62,750.9Zm-479-19.32q-.21-4.87-.21-9.8H9.68c0,3.25.07,6.47.2,9.68Zm480.55-.23-3.24-.13q.19-4.82.2-9.68v-.46h3.24v.43C487.4,724.83,487.33,728.1,487.2,731.35ZM9.86,712.1,6.63,712c.12-3.28.32-6.54.58-9.79l3.23.26Q10.05,707.24,9.86,712.1ZM484,711.41q-.21-4.86-.6-9.66l3.22-.27c.27,3.24.47,6.51.62,9.79ZM11.4,692.81l-3.22-.39q.6-4.87,1.38-9.71l3.2.52C12.24,686.4,11.79,689.6,11.4,692.81Zm471-.69c-.39-3.21-.86-6.4-1.38-9.57l3.19-.53c.53,3.21,1,6.45,1.41,9.7ZM14.5,673.72l-3.17-.65q1-4.83,2.16-9.57l3.15.78Q15.47,669,14.5,673.72ZM479.2,673q-1-4.75-2.17-9.44l3.15-.79c.79,3.17,1.52,6.35,2.19,9.56Zm-460-18.1L16.05,654q1.38-4.72,2.94-9.36l3.07,1Q20.52,650.28,19.16,654.94Zm455.33-.67q-1.38-4.65-2.93-9.22l3.07-1q1.58,4.63,3,9.35ZM25.35,636.58l-3-1.16q1.77-4.6,3.71-9.11l3,1.29Q27.09,632,25.35,636.58ZM468.26,636q-1.75-4.5-3.67-8.92l3-1.3q1.95,4.49,3.72,9ZM33,618.78l-2.92-1.41c1.42-3,2.91-5.88,4.44-8.76l2.86,1.52Q35.14,614.41,33,618.78Zm427.53-.52q-2.12-4.37-4.39-8.61l2.85-1.53q2.31,4.3,4.45,8.72ZM42.15,601.67,39.35,600q2.49-4.23,5.15-8.37l2.72,1.76Q44.6,597.49,42.15,601.67Zm409.29-.44q-2.46-4.17-5.08-8.22l2.72-1.76q2.66,4.11,5.15,8.34ZM52.62,585.38,50,583.52q2.82-4,5.8-7.92l2.58,2Q55.41,581.41,52.62,585.38ZM441,585q-2.79-4-5.73-7.79l2.57-2q3,3.88,5.81,7.89ZM64.38,570l-2.49-2.07q3.13-3.78,6.43-7.42l2.4,2.17Q67.48,566.27,64.38,570Zm364.79-.34q-3.1-3.72-6.34-7.3l2.4-2.18q3.28,3.65,6.43,7.4Zm-351.82-14L75,553.36q3.43-3.5,7-6.87l2.23,2.36Q80.73,552.17,77.35,555.63Zm338.84-.31q-3.39-3.45-6.92-6.76l2.21-2.37q3.58,3.36,7,6.86Zm-324.76-13-2.12-2.45q3.69-3.21,7.53-6.27l2,2.52Q95.08,539.19,91.43,542.36Zm310.66-.29q-3.68-3.17-7.45-6.18l2-2.54q3.84,3.06,7.55,6.27ZM106.53,530.28l-1.92-2.61q3.94-2.89,8-5.64l1.81,2.68Q110.43,527.42,106.53,530.28ZM386.94,530q-3.92-2.87-7.93-5.56l1.8-2.69c2.72,1.83,5.4,3.7,8,5.64ZM122.56,519.47l-1.7-2.75c2.77-1.72,5.58-3.37,8.43-5l1.59,2.83Q126.67,516.94,122.56,519.47Zm248.3-.26q-4.12-2.54-8.36-4.9l1.58-2.82q4.29,2.38,8.47,5ZM139.4,510l-1.47-2.89q4.35-2.22,8.81-4.26l1.35,2.95Q143.7,507.82,139.4,510Zm214.54-.25q-4.32-2.19-8.74-4.2l1.35-2.95q4.49,2,8.85,4.26Zm-197-7.8-1.23-3q4.53-1.86,9.15-3.54l1.11,3Q161.41,500.14,156.94,502Zm179.36-.24q-4.49-1.83-9.06-3.47l1.1-3.05q4.64,1.67,9.18,3.52Zm-161.17-6.36-1-3.09q4.66-1.47,9.41-2.77l.85,3.12Q179.73,493.9,175.13,495.36Zm142.92-.21c-3.07-1-6.17-1.87-9.29-2.71l.84-3.13c3.17.86,6.3,1.77,9.42,2.75ZM193.8,490.27l-.73-3.15q4.77-1.1,9.61-2l.59,3.19Q198.5,489.19,193.8,490.27Zm105.57-.15c-3.14-.71-6.3-1.35-9.49-1.94l.59-3.18c3.22.59,6.43,1.24,9.61,2Zm-86.56-3.39-.46-3.2c3.23-.47,6.47-.87,9.74-1.2l.33,3.22C219.2,485.88,216,486.28,212.81,486.73Zm67.52-.09q-4.77-.67-9.6-1.16l.32-3.22c3.26.32,6.51.72,9.74,1.17Zm-48.27-1.88-.2-3.23q4.88-.3,9.8-.41l.07,3.24Q236.87,484.47,232.06,484.76Zm29,0c-3.2-.19-6.43-.31-9.67-.37l.06-3.24c3.29.06,6.55.19,9.8.38Z"/><polygon class="cls-5" points="78.88 356.85 -398.62 1183.91 556.38 1183.91 78.88 356.85"/><polygon class="cls-6" points="564.04 690.16 86.54 1517.21 1041.54 1517.21 564.04 690.16"/><polygon class="cls-7" points="300.45 525.38 -177.06 1352.44 777.95 1352.44 300.45 525.38"/><polygon class="cls-8" points="66.42 742.04 -306.31 1387.63 439.15 1387.63 66.42 742.04"/><g class="cls-9"><path class="cls-10" d="M445.48,663.64H429.05V647.22a3.58,3.58,0,0,0-3.59-3.59h0a3.59,3.59,0,0,0-3.59,3.59v16.42H405.44a3.6,3.6,0,0,0-3.59,3.6h0a3.59,3.59,0,0,0,3.59,3.59h16.43v16.42a3.59,3.59,0,0,0,3.59,3.59h0a3.58,3.58,0,0,0,3.59-3.59V670.83h16.43a3.59,3.59,0,0,0,3.59-3.59h0A3.6,3.6,0,0,0,445.48,663.64Z"/><path class="cls-10" d="M182.56,429.07H166.13V412.64a3.59,3.59,0,0,0-3.59-3.59h0a3.59,3.59,0,0,0-3.59,3.59v16.43H142.52a3.59,3.59,0,0,0-3.59,3.59h0a3.59,3.59,0,0,0,3.59,3.59H159v16.43a3.59,3.59,0,0,0,3.59,3.59h0a3.59,3.59,0,0,0,3.59-3.59V436.25h16.43a3.59,3.59,0,0,0,3.59-3.59h0A3.59,3.59,0,0,0,182.56,429.07Z"/><path class="cls-10" d="M720.72,752.16H704.28V735.73a3.58,3.58,0,0,0-3.58-3.59h0a3.59,3.59,0,0,0-3.59,3.59v16.43H680.68a3.59,3.59,0,0,0-3.59,3.59h0a3.59,3.59,0,0,0,3.59,3.59h16.43v16.43a3.59,3.59,0,0,0,3.59,3.59h0a3.58,3.58,0,0,0,3.58-3.59V759.34h16.44a3.59,3.59,0,0,0,3.59-3.59h0A3.59,3.59,0,0,0,720.72,752.16Z"/><path class="cls-10" d="M712.09,1022.34h-9.35V1013a2.05,2.05,0,0,0-2-2h0a2.05,2.05,0,0,0-2.05,2v9.35H689.3a2,2,0,0,0-2,2.05h0a2,2,0,0,0,2,2h9.35v9.35a2,2,0,0,0,2.05,2h0a2,2,0,0,0,2-2v-9.35h9.35a2.05,2.05,0,0,0,2-2h0A2.05,2.05,0,0,0,712.09,1022.34Z"/><path class="cls-11" d="M330.39,772H314V755.53a3.59,3.59,0,0,0-3.59-3.59h0a3.59,3.59,0,0,0-3.59,3.59V772H290.35a3.59,3.59,0,0,0-3.59,3.59h0a3.59,3.59,0,0,0,3.59,3.59h16.43v16.43a3.59,3.59,0,0,0,3.59,3.59h0a3.59,3.59,0,0,0,3.59-3.59V779.14h16.43a3.59,3.59,0,0,0,3.59-3.59h0A3.59,3.59,0,0,0,330.39,772Z"/><path class="cls-11" d="M155,728.55H138.57V712.12a3.59,3.59,0,0,0-3.59-3.59h0a3.59,3.59,0,0,0-3.59,3.59v16.43H115a3.59,3.59,0,0,0-3.59,3.59h0a3.59,3.59,0,0,0,3.59,3.59h16.43v16.43a3.59,3.59,0,0,0,3.59,3.59h0a3.59,3.59,0,0,0,3.59-3.59V735.73H155a3.59,3.59,0,0,0,3.59-3.59h0A3.59,3.59,0,0,0,155,728.55Z"/><path class="cls-11" d="M411.44,979.91H395V963.48a3.59,3.59,0,0,0-3.59-3.59h0a3.59,3.59,0,0,0-3.59,3.59v16.43H371.4a3.59,3.59,0,0,0-3.59,3.59h0a3.59,3.59,0,0,0,3.59,3.59h16.43v16.43a3.59,3.59,0,0,0,3.59,3.59h0a3.59,3.59,0,0,0,3.59-3.59V987.09h16.43A3.59,3.59,0,0,0,415,983.5h0A3.59,3.59,0,0,0,411.44,979.91Z"/><path class="cls-11" d="M159,1079.17H142.52v-16.42a3.6,3.6,0,0,0-3.59-3.6h0a3.6,3.6,0,0,0-3.59,3.6v16.42H118.91a3.59,3.59,0,0,0-3.59,3.59h0a3.59,3.59,0,0,0,3.59,3.59h16.43v16.43a3.59,3.59,0,0,0,3.59,3.59h0a3.59,3.59,0,0,0,3.59-3.59v-16.43H159a3.59,3.59,0,0,0,3.59-3.59h0A3.59,3.59,0,0,0,159,1079.17Z"/><path class="cls-11" d="M631.37,1262.85H614.94v-16.43a3.59,3.59,0,0,0-3.59-3.59h0a3.59,3.59,0,0,0-3.59,3.59v16.43H591.34a3.59,3.59,0,0,0-3.59,3.59h0a3.59,3.59,0,0,0,3.59,3.59h16.42v16.43a3.59,3.59,0,0,0,3.59,3.59h0a3.59,3.59,0,0,0,3.59-3.59V1270h16.43a3.59,3.59,0,0,0,3.59-3.59h0A3.59,3.59,0,0,0,631.37,1262.85Z"/><path class="cls-10" d="M47.16,362.56H30.73V346.13a3.58,3.58,0,0,0-3.58-3.59h0a3.59,3.59,0,0,0-3.59,3.59v16.43H7.13a3.59,3.59,0,0,0-3.59,3.59h0a3.59,3.59,0,0,0,3.59,3.59H23.56v16.43a3.59,3.59,0,0,0,3.59,3.59h0a3.58,3.58,0,0,0,3.58-3.59V369.74H47.16a3.59,3.59,0,0,0,3.59-3.59h0A3.59,3.59,0,0,0,47.16,362.56Z"/><path class="cls-11" d="M716.9,1401.64c-3.24-.07-6.53-.22-9.81-.44l.22-3.23c3.23.22,6.48.36,9.66.43Zm9.82,0-.07-3.24c3.22-.07,6.47-.22,9.65-.45l.23,3.23C733.3,1401.4,730,1401.56,726.72,1401.63Zm-29.41-1.33c-3.23-.37-6.5-.83-9.73-1.36l.53-3.19c3.17.52,6.39,1,9.57,1.33Zm49,0-.37-3.22c3.16-.37,6.38-.82,9.57-1.35l.53,3.2C752.79,1399.43,749.51,1399.89,746.3,1400.26Zm-68.37-3.13c-3.18-.67-6.39-1.43-9.56-2.26l.83-3.14c3.11.82,6.28,1.57,9.4,2.23Zm87.75-.07-.67-3.17c3.09-.66,6.25-1.41,9.4-2.24l.83,3.13C772,1395.62,768.82,1396.39,765.68,1397.06Zm-106.75-4.9c-3.11-1-6.25-2-9.32-3.17l1.11-3c3,1.11,6.11,2.15,9.18,3.11Zm125.74-.11-1-3.09c3-1,6.12-2,9.15-3.12l1.12,3C790.89,1390,787.77,1391.07,784.67,1392.05Zm-144.23-6.66c-3-1.28-6-2.63-9-4l1.39-2.92c2.89,1.38,5.87,2.71,8.84,4Zm162.64-.11-1.26-3c2.93-1.23,5.89-2.56,8.8-4l1.39,2.93C809.06,1382.67,806.06,1384,803.08,1385.28Zm-180.39-8.37c-2.86-1.53-5.74-3.17-8.55-4.85l1.66-2.78c2.77,1.66,5.6,3.27,8.42,4.78Zm198.07-.09-1.53-2.86c2.82-1.52,5.65-3.12,8.39-4.77l1.66,2.78C826.5,1373.64,823.63,1375.27,820.76,1376.82Zm-214.94-10c-2.72-1.81-5.43-3.7-8.06-5.63l1.92-2.62c2.59,1.91,5.26,3.77,7.93,5.55Zm231.76-.09-1.8-2.7c2.69-1.79,5.35-3.65,7.92-5.54l1.92,2.61C843,1363,840.3,1364.91,837.58,1366.73ZM590,1355.19c-2.53-2-5.05-4.18-7.5-6.35l2.15-2.43c2.42,2.15,4.9,4.25,7.38,6.26Zm263.41-.08-2-2.52c2.49-2,5-4.12,7.37-6.26l2.15,2.43C858.43,1350.92,855.92,1353.06,853.39,1355.11Zm-278.1-13c-2.33-2.28-4.64-4.64-6.86-7l2.37-2.21c2.19,2.35,4.46,4.67,6.76,6.91Zm292.77-.08-2.26-2.32c2.29-2.24,4.56-4.57,6.76-6.92l2.36,2.21C872.7,1337.42,870.39,1339.78,868.06,1342.06Zm-306.17-14.27c-2.1-2.48-4.18-5-6.18-7.62l2.56-2c2,2.54,4,5.06,6.09,7.5Zm319.57-.1L879,1325.6c2.08-2.46,4.13-5,6.08-7.52l2.57,2C885.65,1322.62,883.58,1325.19,881.46,1327.69ZM549.9,1312.26c-1.86-2.66-3.7-5.4-5.45-8.16l2.74-1.74c1.72,2.72,3.53,5.43,5.36,8Zm343.56-.12-2.66-1.86c1.86-2.65,3.66-5.36,5.37-8.06l2.74,1.74C897.17,1306.7,895.34,1309.45,893.46,1312.14ZM539.4,1295.68c-1.63-2.86-3.2-5.77-4.65-8.63l2.89-1.47c1.43,2.82,3,5.68,4.58,8.5Zm364.56-.16-2.81-1.6c1.58-2.78,3.12-5.65,4.58-8.53l2.89,1.47C907.14,1289.78,905.57,1292.7,904,1295.52Zm-373.46-17.3c-1.32-2.94-2.6-6-3.81-9l3-1.19c1.19,3,2.45,6,3.76,8.88Zm382.37-.24-3-1.33c1.32-3,2.59-6,3.77-8.93l3,1.19C915.5,1271.93,914.21,1275,912.87,1278Zm-389.58-18c-1-3.08-2-6.23-3-9.36l3.12-.91c.89,3.09,1.87,6.19,2.91,9.22Zm396.79-.3-3.07-1.05c1-3,2-6.14,2.9-9.22l3.11.9C922.12,1253.42,921.13,1256.58,920.08,1259.67Zm-402.26-18.56c-.76-3.2-1.46-6.42-2.06-9.6l3.18-.6c.6,3.12,1.28,6.3,2,9.45Zm407.7-.32-3.15-.75c.74-3.09,1.41-6.27,2-9.45l3.19.6C927,1234.42,926.27,1237.65,925.52,1240.79Zm-411.37-19c-.46-3.26-.85-6.54-1.15-9.75l3.23-.31c.29,3.17.67,6.4,1.13,9.6Zm415-.32-3.21-.45c.45-3.18.82-6.41,1.12-9.6l3.22.29C930,1215,929.61,1218.27,929.16,1221.5Zm-416.85-19.23c-.16-3.24-.24-6.54-.24-9.82h3.24c0,3.22.08,6.48.23,9.66Zm418.66-.33-3.23-.14c.15-3.23.22-6.49.22-9.67v-.63h3.24v.63C931.2,1195.36,931.12,1198.66,931,1201.94Zm-415.45-19.16-3.24-.15c.14-3.23.37-6.52.66-9.79l3.23.29C515.88,1176.35,515.66,1179.6,515.52,1182.78Zm412.19-1c-.16-3.22-.4-6.46-.7-9.64l3.22-.31c.31,3.23.55,6.52.71,9.79Zm-410.44-18.3-3.2-.45c.45-3.23,1-6.49,1.57-9.69l3.18.59C518.24,1157.14,517.72,1160.35,517.27,1163.53Zm408.59-1c-.45-3.15-1-6.35-1.6-9.53l3.19-.61c.62,3.23,1.16,6.48,1.62,9.69Zm-405-18.06-3.15-.74c.74-3.16,1.57-6.35,2.48-9.5l3.11.89C522.38,1138.27,521.56,1141.42,520.83,1144.52Zm401.39-.92c-.76-3.14-1.59-6.28-2.48-9.34l3.1-.91c.91,3.11,1.76,6.3,2.53,9.49Zm-396.07-17.67-3.06-1c1-3.11,2.18-6.22,3.37-9.25l3,1.18C528.31,1119.81,527.19,1122.87,526.15,1125.93Zm390.66-.89c-1-3-2.16-6-3.36-9.06l3-1.2c1.22,3.06,2.36,6.16,3.41,9.21ZM533.23,1107.9l-3-1.32c1.32-3,2.75-5.95,4.23-8.89l2.89,1.47C535.93,1102,534.53,1105,533.23,1107.9Zm376.45-.8c-1.32-2.92-2.73-5.85-4.19-8.7l2.88-1.47c1.48,2.89,2.91,5.86,4.26,8.83ZM542,1090.61l-2.82-1.59c1.59-2.82,3.29-5.66,5-8.44l2.74,1.72C545.21,1085,543.54,1087.84,542,1090.61Zm358.92-.7c-1.58-2.77-3.26-5.56-5-8.27l2.73-1.74c1.76,2.76,3.46,5.59,5.07,8.4Zm-348.61-15.67-2.65-1.85c1.84-2.65,3.8-5.32,5.8-7.93l2.57,2C556,1069,554.1,1071.63,552.28,1074.24Zm338.26-.64c-1.84-2.61-3.77-5.23-5.74-7.77l2.56-2c2,2.58,4,5.23,5.83,7.89Zm-326.46-14.69-2.47-2.1c2.11-2.5,4.31-5,6.52-7.35l2.37,2.21C568.32,1054,566.16,1056.45,564.08,1058.91Zm314.62-.58c-2.1-2.46-4.27-4.89-6.44-7.2l2.36-2.22c2.21,2.35,4.41,4.82,6.55,7.32Zm-301.45-13.58-2.27-2.32c2.34-2.29,4.75-4.55,7.17-6.71l2.16,2.42C581.92,1040.26,579.55,1042.48,577.25,1044.75Zm288.24-.53c-2.3-2.24-4.69-4.45-7.09-6.58l2.15-2.42c2.44,2.16,4.86,4.4,7.2,6.68Zm-273.82-12.35-2-2.51c2.5-2,5.11-4.06,7.76-6l1.92,2.61C596.71,1027.88,594.14,1029.87,591.67,1031.87ZM851,1031.4c-2.5-2-5.08-4-7.67-5.9l1.91-2.61c2.63,1.93,5.26,3.94,7.79,6Zm-243.79-11-1.79-2.7c2.73-1.82,5.52-3.59,8.28-5.25l1.67,2.77C612.66,1016.87,609.92,1018.61,607.22,1020.41ZM835.4,1020c-2.74-1.81-5.5-3.54-8.2-5.15l1.66-2.78c2.74,1.63,5.54,3.39,8.32,5.23Zm-211.63-9.52-1.54-2.86c2.88-1.55,5.82-3.05,8.73-4.45l1.41,2.92C629.5,1007.44,626.61,1008.91,623.77,1010.45Zm195-.39c-2.86-1.54-5.78-3-8.64-4.37l1.39-2.92c2.91,1.38,5.87,2.87,8.78,4.43Zm-177.61-8-1.27-3c3-1.29,6.1-2.51,9.11-3.61l1.12,3C647.16,999.63,644.14,1000.82,641.16,1002.09Zm160.12-.36c-3-1.23-6-2.42-9-3.52l1.1-3.05c3.07,1.12,6.16,2.33,9.17,3.59Zm-142-6.33-1-3.09c3.12-1,6.29-1.91,9.44-2.74l.82,3.13C665.46,993.52,662.34,994.42,659.27,995.4Zm123.8-.29c-3-1-6.16-1.84-9.29-2.66l.81-3.13c3.18.82,6.36,1.73,9.44,2.69ZM678,990.44l-.69-3.17c3.19-.69,6.44-1.31,9.65-1.84l.53,3.19C684.29,989.15,681.09,989.76,678,990.44Zm86.4-.21c-3.14-.66-6.34-1.25-9.51-1.76l.52-3.2c3.21.52,6.46,1.12,9.66,1.79Zm-67.33-3-.39-3.22c3.27-.39,6.56-.7,9.78-.93l.23,3.23C703.48,986.57,700.24,986.87,697,987.26Zm48.25-.12c-3.22-.36-6.46-.65-9.63-.87l.21-3.23c3.23.22,6.52.51,9.78.88Zm-29-1.27-.08-3.24c3.26-.08,6.55-.08,9.82,0l-.06,3.24C722.76,985.78,719.52,985.79,716.31,985.87Z"/><path class="cls-11" d="M730.79,961.51h-.39c-3,0-6.23-.09-9.36-.26l.18-3.23c3.1.17,6.26.25,9.37.25Zm9.76-.28-.18-3.23c3.17-.18,6.38-.46,9.54-.81l.36,3.22C747.06,960.77,743.79,961,740.55,961.23Zm-29.23-.77c-3.22-.36-6.47-.81-9.67-1.34l.53-3.2c3.14.53,6.33,1,9.49,1.32Zm48.61-1.41-.54-3.2c3.13-.52,6.29-1.15,9.4-1.86l.72,3.15C766.34,957.87,763.12,958.51,759.93,959.05Zm-67.86-1.82c-3.13-.7-6.31-1.52-9.45-2.41l.89-3.12c3.08.88,6.2,1.68,9.28,2.38ZM779,954.7l-.89-3.11c3.06-.89,6.14-1.87,9.12-2.91l1.07,3.05C785.21,952.8,782.08,953.8,779,954.7Zm-105.63-2.84c-3.06-1.06-6.14-2.23-9.14-3.47l1.23-3c3,1.21,6,2.36,9,3.41Zm124-3.6-1.24-3c2.92-1.21,5.85-2.53,8.72-3.91l1.41,2.91C803.32,945.67,800.33,947,797.35,948.26Zm-142.1-3.86c-2.92-1.4-5.84-2.91-8.68-4.48l1.56-2.83c2.79,1.54,5.66,3,8.52,4.4Zm159.64-4.62-1.57-2.84c2.76-1.52,5.52-3.16,8.24-4.87l1.72,2.74C820.52,936.55,817.7,938.22,814.89,939.78ZM638.15,935c-2.76-1.73-5.49-3.56-8.12-5.43l1.87-2.63c2.58,1.82,5.26,3.62,8,5.32Zm193.23-5.58-1.88-2.64c2.61-1.85,5.18-3.79,7.65-5.76l2,2.53C836.66,925.52,834,927.49,831.38,929.38Zm-209.16-5.71c-2.54-2-5.05-4.14-7.46-6.29l2.16-2.42c2.36,2.12,4.83,4.2,7.32,6.18Zm224.4-6.46-2.16-2.41c2.38-2.13,4.72-4.35,7-6.59l2.29,2.29C851.43,912.78,849,915,846.62,917.21Zm-239-6.53c-2.27-2.26-4.52-4.64-6.72-7.08l2.41-2.16c2.15,2.39,4.37,4.73,6.6,6.94Zm252.75-7.27L858,901.25c2.1-2.35,4.19-4.81,6.18-7.31l2.54,2C864.68,898.51,862.56,901,860.41,903.41Zm-265.78-7.26c-2-2.5-4-5.12-5.88-7.78l2.64-1.88c1.86,2.61,3.8,5.18,5.77,7.64Zm278-8L870,886.28c1.82-2.56,3.62-5.24,5.34-8L878,880C876.28,882.82,874.45,885.55,872.59,888.16Zm-289.27-7.88c-1.74-2.74-3.41-5.56-5-8.39l2.84-1.57c1.53,2.77,3.17,5.54,4.88,8.23ZM883,871.63l-2.84-1.57c1.55-2.79,3-5.66,4.41-8.52l2.92,1.41C886.08,865.86,884.57,868.78,883,871.63Zm-309.15-8.38c-1.41-2.91-2.76-5.9-4-8.89l3-1.25c1.22,2.94,2.54,5.87,3.92,8.72ZM891.49,854l-3-1.24c1.22-2.94,2.37-6,3.42-9l3.06,1.06C893.9,848,892.73,851,891.49,854Zm-325.14-8.76c-1.07-3-2.07-6.17-3-9.29l3.12-.91c.89,3.07,1.87,6.14,2.92,9.12Zm331.58-9.68-3.11-.89c.87-3.06,1.68-6.19,2.38-9.28l3.16.72C899.64,829.29,898.82,832.47,897.93,835.59Zm-337-9.06c-.72-3.16-1.37-6.38-1.91-9.57l3.19-.55c.54,3.13,1.17,6.29,1.88,9.39Zm341.33-10-3.19-.54c.53-3.12,1-6.31,1.32-9.48l3.22.35C903.24,810.14,902.79,813.39,902.25,816.57ZM557.64,807.3c-.37-3.22-.65-6.49-.83-9.73l3.23-.18c.18,3.17.46,6.38.82,9.54Zm346.77-10.13-3.23-.17c.17-3.15.26-6.37.26-9.57v-.78h3.24v.78C904.68,790.69,904.59,794,904.41,797.17Zm-344.66-9.36h-3.24v-.38c0-3.11.09-6.26.25-9.36l3.23.17c-.16,3-.24,6.14-.24,9.19Zm341.39-10.73c-.19-3.19-.47-6.4-.84-9.54l3.22-.38c.37,3.2.66,6.47.85,9.72Zm-340.37-8.39-3.22-.35c.35-3.21.79-6.47,1.33-9.67l3.19.53C561.55,762.35,561.11,765.54,560.77,768.69Zm338.16-10.63c-.55-3.15-1.19-6.31-1.9-9.38l3.15-.74c.73,3.14,1.38,6.35,1.94,9.57Zm-335-8.26-3.16-.71c.7-3.14,1.51-6.33,2.41-9.45l3.11.88C565.4,743.59,564.6,746.72,563.91,749.8ZM894.6,739.41c-.88-3-1.88-6.1-2.94-9.11l3.05-1.08c1.09,3.06,2.1,6.19,3,9.28Zm-325.45-8-3.06-1.06c1.07-3.07,2.24-6.15,3.47-9.14l3,1.23C571.34,725.36,570.2,728.38,569.15,731.39Zm319.06-10c-1.23-2.93-2.56-5.86-4-8.71l2.91-1.42c1.42,2.9,2.77,5.89,4,8.88Zm-311.76-7.72-2.92-1.4c1.4-2.92,2.91-5.84,4.47-8.69l2.84,1.56C579.3,707.93,577.82,710.8,576.45,713.66Zm303.38-9.46c-1.54-2.76-3.18-5.52-4.9-8.22l2.73-1.74c1.75,2.75,3.43,5.57,5,8.38ZM585.7,696.86,583,695.14c1.71-2.73,3.53-5.47,5.41-8.12l2.65,1.87C589.17,691.49,587.38,694.18,585.7,696.86Zm283.88-8.81c-1.86-2.61-3.81-5.17-5.79-7.63l2.52-2c2,2.5,4,5.12,5.9,7.77Zm-272.81-6.83-2.54-2c2-2.54,4.13-5.06,6.29-7.48l2.41,2.16C600.82,676.26,598.74,678.73,596.77,681.22Zm260.81-8.09c-2.13-2.36-4.35-4.7-6.61-6.94l2.29-2.3c2.29,2.29,4.56,4.67,6.72,7.07ZM609.5,666.91l-2.3-2.28c2.27-2.29,4.65-4.55,7.07-6.73l2.17,2.41C614.06,662.45,611.73,664.67,609.5,666.91ZM844,659.64c-2.37-2.1-4.83-4.18-7.34-6.16l2-2.54c2.56,2,5.07,4.13,7.48,6.28Zm-220.25-5.53-2-2.52c2.54-2,5.16-4,7.78-5.89l1.88,2.63C628.8,650.17,626.23,652.11,623.74,654.11ZM829,647.73c-2.57-1.81-5.26-3.6-8-5.3l1.72-2.75c2.77,1.74,5.51,3.55,8.13,5.41ZM639.31,643l-1.73-2.74c2.73-1.73,5.55-3.41,8.38-5l1.57,2.83C644.76,639.64,642,641.29,639.31,643Zm173.41-5.41c-2.79-1.53-5.66-3-8.53-4.38l1.4-2.92c2.92,1.4,5.85,2.9,8.69,4.46ZM656,633.68l-1.41-2.92c2.92-1.41,5.9-2.76,8.88-4l1.25,3C661.81,631,658.88,632.29,656,633.68Zm139.42-4.37c-3-1.21-6-2.35-9-3.39l1-3.06c3.07,1.06,6.14,2.22,9.15,3.45Zm-121.78-3-1.08-3c3.06-1.08,6.18-2.09,9.29-3l.9,3.11C679.71,624.26,676.65,625.24,673.65,626.3Zm103.66-3.25c-3-.87-6.18-1.66-9.28-2.36l.71-3.16c3.16.71,6.34,1.52,9.45,2.4ZM692,621l-.73-3.16c3.14-.72,6.36-1.37,9.57-1.92l.55,3.19C698.27,619.61,695.11,620.24,692,621Zm66.6-2.08c-3.15-.52-6.34-1-9.49-1.29l.35-3.22c3.21.34,6.46.79,9.66,1.31ZM710.9,617.7l-.37-3.21c3.22-.37,6.49-.66,9.72-.84l.19,3.23C717.26,617.06,714.06,617.34,710.9,617.7Zm28.69-.88c-3-.16-6-.24-9-.24H730v-3.24h.6c3,0,6.12.08,9.15.24Z"/><path class="cls-11" d="M36.34,922.5c-1.7,0-3.35,0-5-.06l.09-3.24c1.64,0,3.3.06,4.94.06s3.17,0,4.75-.07l.09,3.24C39.57,922.48,38,922.5,36.34,922.5Zm-14.87-.59c-3.29-.26-6.59-.62-9.81-1.06l.44-3.21c3.16.44,6.4.79,9.63,1.05Zm29.56,0-.27-3.22c3.22-.27,6.46-.63,9.63-1.07l.44,3.21C57.61,921.25,54.31,921.61,51,921.88Zm-49.1-2.62c-3.24-.63-6.48-1.35-9.64-2.14l.8-3.14c3.09.78,6.27,1.48,9.45,2.09Zm68.63-.08L69.94,916c3.12-.6,6.3-1.31,9.45-2.11l.8,3.14C77,917.84,73.74,918.57,70.56,919.18Zm-87.76-4.73c-3.15-1-6.3-2.05-9.36-3.2l1.13-3c3,1.12,6.1,2.18,9.19,3.14Zm106.88-.12-1-3.09c3.09-1,6.17-2,9.16-3.15l1.14,3C96,912.27,92.82,913.35,89.68,914.33Zm-125.4-6.79c-3-1.31-6-2.73-8.94-4.21l1.46-2.89c2.88,1.45,5.83,2.84,8.78,4.14Zm143.85-.13-1.3-3c3-1.3,5.89-2.69,8.73-4.13l1.47,2.88C114.13,904.67,111.14,906.08,108.13,907.41Zm-161.48-8.78c-2.84-1.64-5.67-3.37-8.41-5.16l1.77-2.72c2.69,1.76,5.47,3.47,8.26,5.08Zm179-.13-1.62-2.81c2.8-1.62,5.57-3.33,8.23-5.07l1.78,2.7C131.36,895.1,128.54,896.84,125.69,898.5ZM-69.87,887.84c-2.65-2-5.27-4-7.79-6.06l2.06-2.5c2.47,2,5,4,7.64,5.94Zm212.05-.14-1.93-2.61c2.62-1.93,5.19-3.93,7.64-6l2.06,2.5C147.45,883.69,144.84,885.73,142.18,887.7ZM-85.11,875.3c-2.41-2.21-4.79-4.53-7.08-6.87l2.32-2.26c2.24,2.3,4.58,4.57,7,6.75Zm242.5-.15-2.2-2.38c2.35-2.17,4.69-4.44,6.94-6.76l2.32,2.26C162.16,870.63,159.78,872.94,157.39,875.15Zm-256.27-14c-2.16-2.47-4.27-5-6.28-7.6l2.55-2c2,2.52,4,5,6.17,7.46Zm270-.17-2.44-2.12c2.12-2.45,4.2-5,6.16-7.48l2.55,2C175.42,856,173.3,858.53,171.14,861ZM-111,845.65c-1.86-2.67-3.68-5.44-5.41-8.24l2.76-1.7c1.7,2.74,3.48,5.46,5.31,8.09Zm294.29-.21-2.66-1.84c1.84-2.65,3.62-5.38,5.31-8.12l2.76,1.71C187,840,185.14,842.74,183.27,845.44Zm-304.64-16.55c-1.57-2.88-3.08-5.84-4.47-8.78l2.92-1.39c1.37,2.89,2.85,5.79,4.39,8.62Zm315-.25-2.85-1.55c1.54-2.84,3-5.75,4.39-8.65l2.93,1.38C196.69,822.78,195.19,825.74,193.62,828.64ZM-129.82,811.1c-1.24-3.05-2.41-6.16-3.48-9.24l3.07-1.05c1,3,2.19,6.07,3.41,9.06Zm331.88-.33-3-1.22c1.21-3,2.35-6,3.4-9.08l3.06,1C204.45,804.63,203.29,807.75,202.06,810.77Zm-338.32-18.32c-.88-3.12-1.7-6.34-2.43-9.55l3.16-.72c.71,3.16,1.52,6.32,2.39,9.39Zm344.73-.35-3.12-.88c.87-3.08,1.66-6.24,2.37-9.38l3.16.7C210.16,785.74,209.35,789,208.47,792.1Zm-349.06-18.89c-.54-3.23-1-6.52-1.36-9.77l3.22-.36c.36,3.19.81,6.42,1.34,9.59Zm353.35-.36-3.2-.53c.53-3.18,1-6.41,1.32-9.59l3.22.35C213.74,766.33,213.29,769.61,212.76,772.85Zm-355.53-19.24c-.18-3.25-.28-6.57-.29-9.86h3.24c0,3.24.1,6.5.28,9.69Zm357.67-.36-3.23-.18c.17-3.19.26-6.44.26-9.68v-.7l3.24,0v.73C215.17,746.68,215.08,750,214.9,753.25Zm-354.47-19.19-3.24-.17c.17-3.28.43-6.59.78-9.83l3.22.35C-139.15,727.59-139.41,730.84-139.57,734.06ZM211.63,733c-.19-3.22-.47-6.47-.83-9.65L214,723c.37,3.24.65,6.55.84,9.83Zm-349.14-18.19-3.2-.53c.53-3.22,1.16-6.48,1.86-9.68l3.17.69C-136.38,708.44-137,711.64-137.51,714.81Zm347-1c-.54-3.19-1.17-6.38-1.88-9.5l3.16-.72c.72,3.18,1.37,6.43,1.92,9.67ZM-133.33,695.9l-3.12-.88c.88-3.14,1.86-6.31,2.92-9.42l3.07,1C-131.5,689.7-132.47,692.81-133.33,695.9Zm338.48-1c-.89-3.1-1.87-6.21-2.92-9.23l3.06-1.06c1.07,3.07,2.07,6.24,3,9.4Zm-332.23-17.32-3-1.22c1.23-3,2.56-6.09,4-9.05l2.93,1.38C-124.56,671.56-125.87,674.55-127.08,677.55Zm325.88-1c-1.22-3-2.54-5.93-3.92-8.83l2.92-1.4c1.41,3,2.76,6,4,9ZM-118.83,660l-2.85-1.54c1.55-2.88,3.21-5.76,4.93-8.56l2.76,1.69C-115.68,654.35-117.31,657.17-118.83,660Zm309.3-.87c-1.54-2.82-3.18-5.63-4.87-8.36l2.75-1.7c1.72,2.77,3.39,5.64,5,8.51ZM-108.7,643.47l-2.66-1.84c1.86-2.7,3.83-5.37,5.83-8l2.56,2C-104.94,638.19-106.87,640.83-108.7,643.47Zm289-.78c-1.84-2.63-3.78-5.24-5.77-7.77l2.55-2c2,2.57,4,5.24,5.87,7.92ZM-96.82,628.16-99.26,626c2.15-2.48,4.39-4.93,6.67-7.27l2.32,2.25C-92.5,623.33-94.7,625.73-96.82,628.16Zm265.14-.7c-2.11-2.4-4.33-4.79-6.59-7.1l2.32-2.27c2.3,2.35,4.55,4.79,6.7,7.24ZM-83.34,614.25l-2.2-2.38c2.41-2.22,4.91-4.41,7.42-6.49l2.07,2.49C-78.52,609.92-81,612.07-83.34,614.25Zm238.11-.63c-2.38-2.17-4.84-4.31-7.33-6.34l2.06-2.51c2.52,2.08,5,4.25,7.45,6.47ZM-68.43,601.9l-1.92-2.6c2.62-1.94,5.34-3.84,8.08-5.64l1.78,2.7C-63.18,598.13-65.85,600-68.43,601.9Zm208.21-.56c-2.59-1.89-5.28-3.75-8-5.5l1.77-2.72c2.75,1.79,5.48,3.68,8.12,5.61Zm-192-10.07-1.63-2.8c2.83-1.65,5.74-3.24,8.65-4.72l1.47,2.88C-46.63,588.09-49.48,589.65-52.26,591.27Zm175.79-.49c-2.79-1.61-5.67-3.15-8.54-4.6l1.46-2.89c2.92,1.47,5.85,3.05,8.69,4.68ZM-35,582.48l-1.31-3c3-1.33,6.06-2.58,9.11-3.74l1.15,3C-29.09,580-32.1,581.18-35,582.48Zm141.25-.42c-3-1.29-6-2.5-9-3.62l1.12-3c3.07,1.14,6.15,2.38,9.17,3.69Zm-123.15-6.42-1-3.09c3.13-1,6.33-1.9,9.49-2.71l.8,3.14C-10.73,573.78-13.87,574.67-16.94,575.64Zm105-.32c-3.08-1-6.22-1.83-9.33-2.6l.79-3.15c3.16.79,6.36,1.68,9.5,2.65ZM1.82,570.85l-.63-3.18c3.21-.63,6.48-1.19,9.73-1.64l.45,3.2C8.18,569.68,5,570.22,1.82,570.85Zm67.4-.21c-3.16-.61-6.38-1.13-9.56-1.55l.43-3.21c3.24.43,6.51,1,9.74,1.58ZM21,568.15l-.27-3.23c3.24-.27,6.56-.46,9.85-.56l.1,3.24C27.44,567.7,24.18,567.88,21,568.15Zm29-.09c-3.2-.25-6.46-.41-9.67-.49l.08-3.24c3.27.08,6.58.25,9.84.5Z"/><path class="cls-11" d="M40.38,1267.92a82,82,0,0,1-9.82-1.13l.55-3.19a82.3,82.3,0,0,0,9.45,1.09Zm9.88,0-.19-3.23a84.42,84.42,0,0,0,9.44-1.1l.56,3.19A86.1,86.1,0,0,1,50.26,1267.91Zm-29.33-3.37a87.46,87.46,0,0,1-9.29-3.37l1.28-3a82.3,82.3,0,0,0,8.94,3.24Zm48.76,0-.93-3.11a80,80,0,0,0,8.93-3.25l1.29,3A86.59,86.59,0,0,1,69.69,1264.49ZM2.8,1256.73a86.41,86.41,0,0,1-8.26-5.43l1.93-2.6a81.17,81.17,0,0,0,8,5.22Zm85-.08-1.62-2.8a84.11,84.11,0,0,0,7.93-5.23l1.94,2.59A84.49,84.49,0,0,1,87.8,1256.65ZM-13,1245a85.18,85.18,0,0,1-6.79-7.18l2.47-2.09a85.35,85.35,0,0,0,6.54,6.91Zm116.65-.11-2.22-2.35a82,82,0,0,0,6.52-6.92l2.49,2.08A85.48,85.48,0,0,1,103.61,1244.85Zm-129.36-15a81.74,81.74,0,0,1-5-8.54l2.89-1.46a83.21,83.21,0,0,0,4.77,8.22Zm142.05-.12-2.7-1.79a82.14,82.14,0,0,0,4.76-8.23l2.89,1.46A84.85,84.85,0,0,1,116.3,1229.74Zm-150.95-17.49a85.21,85.21,0,0,1-2.85-9.46l3.15-.75a83.66,83.66,0,0,0,2.74,9.1Zm159.82-.15-3-1.11a81.73,81.73,0,0,0,2.72-9.12l3.15.75A84.6,84.6,0,0,1,125.17,1212.1Zm-164.39-19a87.6,87.6,0,0,1-.59-9.87h3.24a85.56,85.56,0,0,0,.56,9.49Zm168.92-.16-3.21-.38A83.07,83.07,0,0,0,127,1183v-.34h3.24v.34A85.3,85.3,0,0,1,129.7,1192.89ZM-36,1173.69l-3.22-.37a87,87,0,0,1,1.68-9.74l3.16.74A80.12,80.12,0,0,0-36,1173.69Zm162.49-.48a82.27,82.27,0,0,0-1.68-9.36l3.15-.76a84.39,84.39,0,0,1,1.75,9.73Zm-158.17-18-3-1.1a82.44,82.44,0,0,1,3.9-9.08l2.89,1.44A83.87,83.87,0,0,0-31.72,1155.2Zm153.74-.45a82.11,82.11,0,0,0-3.8-8.72l2.88-1.46a85.65,85.65,0,0,1,4,9.06Zm-145.24-16.53-2.71-1.77a87.16,87.16,0,0,1,5.89-7.94l2.49,2.07A83.38,83.38,0,0,0-23.22,1138.22Zm136.65-.4a86.62,86.62,0,0,0-5.71-7.6l2.47-2.09a84.77,84.77,0,0,1,5.93,7.9ZM-11,1123.65l-2.23-2.34a85.14,85.14,0,0,1,7.55-6.38l1.94,2.59A81.94,81.94,0,0,0-11,1123.65Zm112.21-.32a84.71,84.71,0,0,0-7.3-6.09l1.92-2.6a83.45,83.45,0,0,1,7.59,6.33Zm-97-11.06-1.63-2.8a85.68,85.68,0,0,1,8.81-4.47l1.29,3A80.09,80.09,0,0,0,4.15,1112.27Zm81.76-.24a83.25,83.25,0,0,0-8.51-4.24l1.27-3a84.81,84.81,0,0,1,8.85,4.41Zm-64.36-7.33-.94-3.1a84.08,84.08,0,0,1,9.62-2.3l.56,3.19A80.06,80.06,0,0,0,21.55,1104.7Zm46.9-.14a82.81,82.81,0,0,0-9.26-2.16l.55-3.19a87,87,0,0,1,9.62,2.24Zm-28.22-3.19-.19-3.24a88,88,0,0,1,9.88,0l-.18,3.23A83.81,83.81,0,0,0,40.23,1101.37Z"/><path class="cls-11" d="M546.51,639.68v-3.24a54.38,54.38,0,0,0,9.29-.82l.56,3.19A57.81,57.81,0,0,1,546.51,639.68Zm-9.84-.84a56.7,56.7,0,0,1-9.55-2.54l1.1-3a52.45,52.45,0,0,0,9,2.39Zm29.24-2.59-1.11-3a52.7,52.7,0,0,0,8.44-4l1.63,2.8A55.71,55.71,0,0,1,565.91,636.25Zm-47.76-4.13a56.54,56.54,0,0,1-8.1-5.66l2.08-2.48a53.91,53.91,0,0,0,7.64,5.34ZM583,626.38l-2.09-2.48a54,54,0,0,0,6.59-6.59l2.48,2.08A58.33,58.33,0,0,1,583,626.38ZM503,619.48a57.71,57.71,0,0,1-5.69-8.09l2.81-1.62a53.85,53.85,0,0,0,5.36,7.62Zm92.57-8.19-2.8-1.62a52.75,52.75,0,0,0,3.94-8.45l3,1.11A57.05,57.05,0,0,1,595.61,611.29Zm-102.45-8.84a56.12,56.12,0,0,1-2.58-9.55l3.19-.56a53.2,53.2,0,0,0,2.43,9Zm109.19-9.67-3.19-.56a54.45,54.45,0,0,0,.8-9.29l3.24-.24v.24A58,58,0,0,1,602.35,592.78Zm-112.64-9.73v-.12a57.19,57.19,0,0,1,.83-9.72l3.19.55a53.88,53.88,0,0,0-.78,9.17Zm109.41-9.64a53.55,53.55,0,0,0-2.44-9l3-1.12a56.75,56.75,0,0,1,2.6,9.54Zm-103-8.66-3.05-1.1a56.6,56.6,0,0,1,4.16-9l2.81,1.61A53.16,53.16,0,0,0,496.12,564.75ZM592.69,556a53.09,53.09,0,0,0-5.38-7.61l2.48-2.09a57.58,57.58,0,0,1,5.7,8.07Zm-87.31-7.34-2.49-2.08a57,57,0,0,1,7-7L512,542A54.05,54.05,0,0,0,505.38,548.65Zm75.31-6.84a53.07,53.07,0,0,0-7.65-5.32l1.61-2.81a56.91,56.91,0,0,1,8.12,5.65Zm-61.12-5.15-1.63-2.8a55.65,55.65,0,0,1,8.94-4.21l1.12,3A53.57,53.57,0,0,0,519.57,536.66Zm45-4.09a52.88,52.88,0,0,0-9-2.37l.55-3.2a57.52,57.52,0,0,1,9.56,2.52ZM537,530.26l-.57-3.19a56.82,56.82,0,0,1,9.85-.89v3.24A53.41,53.41,0,0,0,537,530.26Z"/><path class="cls-11" d="M4.9,693.58A35.88,35.88,0,0,1-5,690.69l1.35-3a32.54,32.54,0,0,0,9,2.63Zm10.3,0-.46-3.21a32.36,32.36,0,0,0,9-2.64l1.35,2.94A35.85,35.85,0,0,1,15.2,693.57Zm-28.87-8.44a36.38,36.38,0,0,1-6.76-7.78l2.72-1.76a33.35,33.35,0,0,0,6.16,7.09Zm47.42,0-2.12-2.45a33,33,0,0,0,6.15-7.09l2.72,1.75A36.07,36.07,0,0,1,33.75,685.08ZM-24.74,668a36.08,36.08,0,0,1-1.47-10.19H-23a33.07,33.07,0,0,0,1.34,9.29Zm69.53-.06L41.68,667A33,33,0,0,0,43,657.71l3.24-.13v.13A36.56,36.56,0,0,1,44.79,667.92Zm-66.46-19.43-3.11-.91a36.14,36.14,0,0,1,4.27-9.38l2.73,1.75A32.8,32.8,0,0,0-21.67,648.49Zm63.31-.19a33.12,33.12,0,0,0-3.93-8.52L40.42,638a36,36,0,0,1,4.32,9.36Zm-53.29-15.46-2.13-2.44a36,36,0,0,1,8.65-5.6l1.36,2.94A33,33,0,0,0-11.65,632.84Zm43.18-.13a33.06,33.06,0,0,0-7.91-5.06L25,624.7a36.31,36.31,0,0,1,8.68,5.55ZM5.22,625.07l-.46-3.2a36.64,36.64,0,0,1,10.3,0l-.45,3.2A33.56,33.56,0,0,0,5.22,625.07Z"/><path class="cls-11" d="M380.76,1068.86a83.27,83.27,0,0,1-9.87-1.13l.55-3.19a81.47,81.47,0,0,0,9.5,1.09Zm9.93,0-.19-3.23a83.46,83.46,0,0,0,9.5-1.11l.56,3.19A85.44,85.44,0,0,1,390.69,1068.85Zm-29.48-3.39a86.4,86.4,0,0,1-9.35-3.39l1.28-3a84.18,84.18,0,0,0,9,3.26Zm49,0-.93-3.1a83.77,83.77,0,0,0,9-3.28l1.28,3A85.25,85.25,0,0,1,410.24,1065.41Zm-67.26-7.8a83.72,83.72,0,0,1-8.31-5.46l1.93-2.6a82.16,82.16,0,0,0,8,5.25Zm85.47-.08-1.63-2.8a80.88,80.88,0,0,0,8-5.27l1.94,2.6A85.35,85.35,0,0,1,428.45,1057.53Zm-101.4-11.76a84.52,84.52,0,0,1-6.83-7.21l2.48-2.09a81.21,81.21,0,0,0,6.57,6.94Zm117.29-.1-2.22-2.36a83,83,0,0,0,6.56-7l2.48,2.08A86.44,86.44,0,0,1,444.34,1045.67ZM314.27,1030.6a85.65,85.65,0,0,1-5-8.59l2.89-1.46a82.94,82.94,0,0,0,4.8,8.26Zm142.83-.13-2.71-1.78a81.24,81.24,0,0,0,4.79-8.28l2.9,1.45A85.55,85.55,0,0,1,457.1,1030.47Zm-151.78-17.58a86.91,86.91,0,0,1-2.86-9.52l3.15-.75a82.58,82.58,0,0,0,2.76,9.16Zm160.69-.16-3-1.11a81.23,81.23,0,0,0,2.74-9.16l3.15.75A83.49,83.49,0,0,1,466,1012.73ZM300.73,993.59a86.31,86.31,0,0,1-.59-9.92h3.24a82.14,82.14,0,0,0,.56,9.55Zm169.85-.17-3.22-.37a84.4,84.4,0,0,0,.55-9.55v-.34h3.24v.34A88.48,88.48,0,0,1,470.58,993.42Zm-166.67-19.3-3.22-.37a84.85,84.85,0,0,1,1.69-9.79l3.16.73A80.78,80.78,0,0,0,303.91,974.12Zm163.41-.5a82.36,82.36,0,0,0-1.69-9.41l3.15-.76a84.25,84.25,0,0,1,1.75,9.79Zm-159.06-18.1-3.05-1.1a87.7,87.7,0,0,1,3.92-9.13l2.9,1.45A81.11,81.11,0,0,0,308.26,955.52Zm154.6-.46A83.86,83.86,0,0,0,459,946.3l2.89-1.47a83.38,83.38,0,0,1,4,9.11ZM316.8,938.44l-2.71-1.78a86.52,86.52,0,0,1,5.92-8l2.49,2.07A83.36,83.36,0,0,0,316.8,938.44Zm137.42-.4a83.69,83.69,0,0,0-5.74-7.64l2.47-2.09a85.29,85.29,0,0,1,6,7.94ZM329.05,923.8l-2.23-2.36a85.62,85.62,0,0,1,7.59-6.4l1.94,2.59A80.72,80.72,0,0,0,329.05,923.8Zm112.84-.33a85.41,85.41,0,0,0-7.34-6.13l1.93-2.6a88.46,88.46,0,0,1,7.63,6.37Zm-97.57-11.12-1.63-2.8a85.57,85.57,0,0,1,8.86-4.49l1.3,3A81.18,81.18,0,0,0,344.32,912.35Zm82.22-.25a82.09,82.09,0,0,0-8.55-4.27l1.27-3a86.82,86.82,0,0,1,8.9,4.44Zm-64.72-7.37-.94-3.1a86.07,86.07,0,0,1,9.67-2.31l.57,3.19A83.33,83.33,0,0,0,361.82,904.73Zm47.16-.14a82,82,0,0,0-9.3-2.17l.55-3.19a86.36,86.36,0,0,1,9.67,2.25Zm-28.37-3.21-.19-3.23a86.73,86.73,0,0,1,9.94,0l-.18,3.23A87.27,87.27,0,0,0,380.61,901.38Z"/></g><g class="cls-12"><path class="cls-13" d="M676.89,599.09a26.56,26.56,0,1,1,26.55-26.55A26.58,26.58,0,0,1,676.89,599.09Zm0-46.62A20.07,20.07,0,1,0,697,572.54,20.09,20.09,0,0,0,676.89,552.47Z"/><path class="cls-13" d="M235.35,562.82a26.56,26.56,0,1,1,26.55-26.55A26.59,26.59,0,0,1,235.35,562.82Zm0-46.62a20.07,20.07,0,1,0,20.06,20.07A20.09,20.09,0,0,0,235.35,516.2Z"/><path class="cls-13" d="M523.57,869.29a26.56,26.56,0,1,1,26.55-26.56A26.59,26.59,0,0,1,523.57,869.29Zm0-46.62a20.07,20.07,0,1,0,20.07,20.06A20.09,20.09,0,0,0,523.57,822.67Z"/><path class="cls-13" d="M611.35,1148.88a26.55,26.55,0,1,1,26.56-26.55A26.58,26.58,0,0,1,611.35,1148.88Zm0-46.61a20.07,20.07,0,1,0,20.07,20.06A20.08,20.08,0,0,0,611.35,1102.27Z"/><path class="cls-13" d="M222.27,922.39a26.55,26.55,0,1,1,26.56-26.55A26.58,26.58,0,0,1,222.27,922.39Zm0-46.62a20.07,20.07,0,1,0,20.07,20.07A20.09,20.09,0,0,0,222.27,875.77Z"/></g></g></svg>