<svg xmlns="http://www.w3.org/2000/svg" viewBox="0 0 486 486"><defs><style>.cls-1{fill:#f7dd23;}.cls-2{fill:none;stroke:#fcfcfc;stroke-miterlimit:10;stroke-width:12px;}.cls-3{fill:#ff4e08;}.cls-4{fill:#7c5404;}</style></defs><title>mypost</title><g id="Layer_2" data-name="Layer 2"><g id="Layer_1-2" data-name="Layer 1"><circle class="cls-1" cx="243" cy="243" r="243"/><circle class="cls-2" cx="243" cy="243" r="214.72"/><path class="cls-3" d="M249,315.5v54.15H233.54V330.93l-10,38.72H213l-10.41-38.72v38.72H190.1V315.5h21.72l7.85,28.76,7.5-28.76Z"/><path class="cls-3" d="M295.55,329.3,279.72,373a17.63,17.63,0,0,1-5.24,7.76q-3.41,2.79-10.51,2.8-1.71,0-7.93-.36V372a37.35,37.35,0,0,0,5.71.48q6.83,0,6.82-3a8.24,8.24,0,0,0-.67-2.74L253.42,329.3h16.93L277,350.83l7-21.53Z"/><path class="cls-4" d="M162.87,410l-2.76-9.62H147L144.1,410H131.93L147,361.15h15.84L178.16,410Zm-13.29-20.28h7.9l-3.95-14.16Z"/><path class="cls-4" d="M204.81,410h-9v-3.25a6.89,6.89,0,0,1-6.59,3.75,8.37,8.37,0,0,1-6.87-3.3q-2.62-3.32-2.63-9.61,0-5.9,2.64-9.35a8.39,8.39,0,0,1,7-3.47,7.54,7.54,0,0,1,6,2.77V377.14h9.45Zm-9.45-15.73c0-2.19-.91-3.29-2.72-3.29a2.47,2.47,0,0,0-2.49,2.09,19.22,19.22,0,0,0-.59,5.12q0,5.94,3,5.94a2.47,2.47,0,0,0,2-.94,4.28,4.28,0,0,0,.81-2.86Z"/><path class="cls-4" d="M232.45,385.51l-9,24.46h-7.17l-9.16-24.46H217l3.5,10.39q.43,1.28.78,2.52c.08-.28.2-.65.35-1.1,0-.07.14-.37.32-.92l3.59-10.89Z"/><path class="cls-4" d="M250.21,401.19l9,.6a10.56,10.56,0,0,1-4.05,6.15q-3.26,2.54-8.82,2.53-6.18,0-9.86-3.57a11.85,11.85,0,0,1-3.68-8.86,13.64,13.64,0,0,1,22.82-9.47q3.62,3.56,3.61,9.69c0,.33,0,.8,0,1.39H242.78a6.38,6.38,0,0,0,.82,3.43,4,4,0,0,0,6.61-1.89Zm-.64-6.35c0-1.65-.35-2.76-1-3.33a3.52,3.52,0,0,0-2.41-.85q-3.41,0-3.4,4.18Z"/><path class="cls-4" d="M272.12,410h-9.18V385.51h8v5.05c.91-3.67,3-5.5,6.37-5.5.34,0,.8,0,1.4.09v8.54a7.91,7.91,0,0,0-1.8-.24q-4.77,0-4.77,5.31Z"/><path class="cls-4" d="M297.81,385.51v6.23h-4.88v9c0,1.23.23,2,.69,2.2a3.26,3.26,0,0,0,1.45.35,11.44,11.44,0,0,0,2.74-.41v6.83a29,29,0,0,1-5.58.55q-4.43,0-6.51-1.9c-1.38-1.26-2.08-3.28-2.08-6.06l0-2.86v-7.72H280v-6.23h3.66l.14-8,9.12-.14v8.1Z"/><path class="cls-4" d="M310.6,376.11v7.6H301v-7.6Zm0,9.4V410H301V385.51Z"/><path class="cls-4" d="M313.49,403l7.57-1c.44,1.76,2.15,2.65,5.15,2.65,2.48,0,3.73-.49,3.73-1.45a1.06,1.06,0,0,0-.72-1,14.71,14.71,0,0,0-3.42-.71q-7.46-1-9.31-3.24a7.41,7.41,0,0,1-1.85-4.89,7.2,7.2,0,0,1,3.13-6.07A13.4,13.4,0,0,1,326,385q8.89,0,11.35,6.42l-7.26,1.37c-.68-1.44-2.1-2.17-4.26-2.17a4.89,4.89,0,0,0-2.3.43c-.5.28-.75.55-.75.82,0,.81.77,1.29,2.31,1.47a48.78,48.78,0,0,1,8.15,1.36,7.86,7.86,0,0,1,3.65,2.55,6.87,6.87,0,0,1,1.52,4.48,7.42,7.42,0,0,1-3.36,6.38c-2.23,1.57-5.32,2.35-9.24,2.35Q315.85,410.47,313.49,403Z"/><path class="cls-4" d="M357.91,401.19l8.94.6a10.56,10.56,0,0,1-4.05,6.15q-3.26,2.54-8.81,2.53-6.18,0-9.86-3.57a11.82,11.82,0,0,1-3.68-8.86,13.63,13.63,0,0,1,22.81-9.47q3.62,3.56,3.62,9.69c0,.33,0,.8,0,1.39H350.47a6.47,6.47,0,0,0,.82,3.43,4,4,0,0,0,6.62-1.89Zm-.65-6.35c0-1.65-.35-2.76-1-3.33a3.52,3.52,0,0,0-2.41-.85q-3.41,0-3.4,4.18Z"/><path class="cls-4" d="M90.47,182.93a8.65,8.65,0,0,0,6.13-2.54L207.14,69.86l60,60a8.66,8.66,0,0,0,12.24-12.26l-7.66-7.66V71.49a8.67,8.67,0,1,0-17.34,0V92.57l-41.1-41.09a8.67,8.67,0,0,0-12.25,0L84.34,168.14a8.67,8.67,0,0,0,6.13,14.79Z"/><path class="cls-4" d="M331.15,120.87a70.41,70.41,0,0,0-49.78,120.2,8.67,8.67,0,0,0,12.26-12.26,53.07,53.07,0,1,1,75,0,8.66,8.66,0,0,0,6.13,14.79,8.59,8.59,0,0,0,6.12-2.53,70.41,70.41,0,0,0-49.77-120.2Z"/><path class="cls-4" d="M323.81,246.27H309.23v-.12l11.09-7c5.45-3.43,8-7.11,8-12.23,0-6.8-4.52-13.91-17.56-13.91-10.9,0-16.65,6.24-16.65,12.12,0,3.49,1.59,5.93,6,5.93,6.92,0,3.3-8.51,10.28-8.51,3.3,0,5.34,2,5.34,5,0,2.5-1.11,4.22-4.11,6.29l-5.82,4c-11.27,7.83-12.19,9.8-12.19,13.6a5,5,0,0,0,5.2,5.08h25c3.68,0,5.21-1.9,5.21-5.15S327.48,246.27,323.81,246.27Z"/><path class="cls-4" d="M361.57,238.24v-19.1c0-4-2.57-6.49-7.16-6.49-3.19,0-5,1.42-8.45,5.57l-12.79,15.43c-2.7,3.25-3.67,5.32-3.67,7.59,0,3.67,1.59,6.55,5.75,6.55h14.44v2.94c0,4,2,6.61,5.95,6.61s5.93-2.57,5.93-6.61v-2.94c3.6,0,5.88-1,5.88-4.77S365.19,238.24,361.57,238.24Zm-11.88,0H339.54l10-13.16h.11Z"/><path class="cls-4" d="M331.15,196.18h0a8.38,8.38,0,0,0,1.57-.17l.45-.13a7.13,7.13,0,0,0,1-.36l.52-.26a7.73,7.73,0,0,0,.86-.54,5,5,0,0,0,.5-.41,3,3,0,0,0,.33-.27c.16-.14.26-.31.42-.46s.2-.19.28-.3l22.48-28.84a7.58,7.58,0,1,0-12-9.32l-17.12,22-8-8.17a7.58,7.58,0,1,0-10.86,10.57l14,14.42a3.19,3.19,0,0,0,.4.33,4.73,4.73,0,0,0,.4.37,2,2,0,0,0,.24.16c.16.1.3.21.46.3s.51.29.79.42l.47.21a6,6,0,0,0,.92.27,2.58,2.58,0,0,0,.42.1A9.69,9.69,0,0,0,331.15,196.18Z"/><path class="cls-4" d="M249.27,192.43a66.79,66.79,0,0,1,15.82-43.15,8.66,8.66,0,0,0-.48-11.73L213.27,86.21a8.65,8.65,0,0,0-12.25,0l-91.88,91.87a8.63,8.63,0,0,0-2.38,4.49,20.7,20.7,0,0,0-.39,4v36.18c6.59,8.82,23.74,20.82,68.37,21.44h1.34c2.16,0,4.46-.07,7-.19v-4.52a14.81,14.81,0,0,1,9-13.61c.33-.14.67-.27,1-.38v-27a15.51,15.51,0,0,1,14-15.42,15.53,15.53,0,0,1,14,15.42v32.93a21,21,0,0,0,21,20.95h18.57A8.67,8.67,0,0,0,267,237.76,66.49,66.49,0,0,1,249.27,192.43Z"/><path class="cls-4" d="M203.89,233.17a8.66,8.66,0,0,0-14.62,6.29v10.27c-5,.4-9.91.66-14.62.6-73.77-1-77.48-32.63-78.11-34A8.67,8.67,0,0,0,80,220c0,61.5,78.58,70.79,109.27,72.07v8a8.69,8.69,0,0,0,5.24,8,8.94,8.94,0,0,0,3.42.7,8.61,8.61,0,0,0,6-2.37l32-30.3a8.65,8.65,0,0,0,0-12.56Z"/><circle class="cls-4" cx="326.92" cy="152.35" r="6.35"/><circle class="cls-4" cx="286.59" cy="189.01" r="6.36"/><circle class="cls-4" cx="366.95" cy="189" r="6.35"/></g></g></svg>