<svg xmlns="http://www.w3.org/2000/svg" viewBox="0 0 486 486"><defs><style>.cls-1{fill:#e5810a;}.cls-2{fill:none;stroke:#fcfcfc;stroke-miterlimit:10;stroke-width:12px;}.cls-3{fill:#fff;}.cls-4{fill:#fcfcfc;}.cls-5{fill:#ffe000;}</style></defs><title>new</title><g id="Layer_2" data-name="Layer 2"><g id="Layer_1-2" data-name="Layer 1"><circle class="cls-1" cx="243" cy="243" r="243"/><circle class="cls-2" cx="243" cy="243" r="214.72"/><path class="cls-3" d="M373.72,193.78,311.9,132V91.18a9.21,9.21,0,0,0-18.41,0v22.38L249.87,69.94a9.19,9.19,0,0,0-13,0L179.8,127a9.19,9.19,0,0,0,13,13l50.57-50.57L360.71,206.79a9.2,9.2,0,1,0,13-13Z"/><path class="cls-3" d="M347.4,204.35l-97.53-97.54a9.17,9.17,0,0,0-13,0l-37.48,37.48A83.18,83.18,0,0,1,245,209.83,16.48,16.48,0,0,1,258.27,226v35a22.27,22.27,0,0,0,22.24,22.23h47.61a22.26,22.26,0,0,0,22.23-22.23V213.33a21.55,21.55,0,0,0-.41-4.22A9.09,9.09,0,0,0,347.4,204.35Z"/><path class="cls-3" d="M166.16,143.86a69.65,69.65,0,1,0,69.64,69.65A69.65,69.65,0,0,0,166.16,143.86ZM189,225H177.66v11.3a11.5,11.5,0,0,1-23,0V225H143.35a11.5,11.5,0,1,1,0-23h11.31v-11.3a11.5,11.5,0,0,1,23,0V202H189a11.5,11.5,0,0,1,0,23Z"/><path class="cls-4" d="M244,369.65H230.43L215.6,345.72a89.52,89.52,0,0,1-5.76-11.18,37.81,37.81,0,0,1,1.31,8.89v26.22H197.66V315.5h15.71L226,335.33a77.25,77.25,0,0,1,5.71,10.4,78.56,78.56,0,0,1-1.27-14.21v-16H244Z"/><path class="cls-4" d="M279.82,355.17l14.76,1a17.41,17.41,0,0,1-6.68,10.14q-5.38,4.18-14.54,4.18-10.2,0-16.27-5.89A19.54,19.54,0,0,1,251,350a21.2,21.2,0,0,1,6-15.27q6-6.22,16-6.23,9.67,0,15.65,5.87t6,16c0,.55,0,1.32,0,2.3h-27a10.58,10.58,0,0,0,1.35,5.65q1.27,1.85,4.84,1.85Q278.91,360.13,279.82,355.17Zm-1.07-10.47c0-2.73-.57-4.56-1.64-5.5a5.79,5.79,0,0,0-4-1.41q-5.62,0-5.62,6.91Z"/><path class="cls-4" d="M355.28,329.3l-12.77,40.35H331.13l-5.29-21.86-5.51,21.86H309.06l-13-40.35H311.6l5.32,19.76L322,329.3h11.71l5,19.74,5.59-19.74Z"/><path class="cls-5" d="M148.83,405.65,146.07,396H133l-2.93,9.62H117.89L133,356.83h15.84l15.31,48.82Zm-13.29-20.28h7.9l-3.95-14.16Z"/><path class="cls-5" d="M190.77,405.65h-9V402.4a6.89,6.89,0,0,1-6.59,3.75,8.39,8.39,0,0,1-6.87-3.3q-2.62-3.32-2.63-9.61,0-5.89,2.64-9.35a8.39,8.39,0,0,1,7-3.47,7.51,7.51,0,0,1,6,2.77V372.82h9.45Zm-9.45-15.73q0-3.29-2.72-3.29a2.47,2.47,0,0,0-2.49,2.09,19.22,19.22,0,0,0-.59,5.12q0,5.94,3,5.94a2.47,2.47,0,0,0,2-.94,4.28,4.28,0,0,0,.81-2.86Z"/><path class="cls-5" d="M218.41,381.19l-9,24.46h-7.17l-9.16-24.46H203l3.5,10.39q.44,1.28.78,2.52c.08-.28.2-.65.36-1.1,0-.07.13-.37.31-.92l3.59-10.89Z"/><path class="cls-5" d="M236.17,396.87l9,.6a10.56,10.56,0,0,1-4.05,6.15q-3.25,2.53-8.82,2.53-6.18,0-9.86-3.57a11.84,11.84,0,0,1-3.67-8.86,13.63,13.63,0,0,1,22.81-9.47q3.61,3.56,3.61,9.69c0,.33,0,.8,0,1.39H228.74a6.47,6.47,0,0,0,.82,3.43,4,4,0,0,0,6.61-1.89Zm-.64-6.35c0-1.65-.35-2.76-1-3.33a3.52,3.52,0,0,0-2.41-.85q-3.41,0-3.4,4.18Z"/><path class="cls-5" d="M258.08,405.65H248.9V381.19h8v5.05c.91-3.67,3-5.5,6.37-5.5.34,0,.8,0,1.4.09v8.54a7.91,7.91,0,0,0-1.8-.24q-4.77,0-4.77,5.31Z"/><path class="cls-5" d="M283.77,381.19v6.23h-4.88v9c0,1.23.23,2,.69,2.2A3.26,3.26,0,0,0,281,399a11.44,11.44,0,0,0,2.74-.41v6.83a29,29,0,0,1-5.58.55q-4.43,0-6.51-1.9c-1.38-1.26-2.08-3.28-2.08-6.06l0-2.86v-7.72H266v-6.23h3.66l.14-8,9.12-.14v8.1Z"/><path class="cls-5" d="M296.56,371.79v7.6H287v-7.6Zm0,9.4v24.46H287V381.19Z"/><path class="cls-5" d="M299.45,398.72l7.57-1c.44,1.76,2.15,2.64,5.15,2.64,2.48,0,3.73-.48,3.73-1.44a1.06,1.06,0,0,0-.72-1,14.71,14.71,0,0,0-3.42-.71q-7.45-1-9.31-3.24a7.43,7.43,0,0,1-1.85-4.89,7.2,7.2,0,0,1,3.13-6.07,13.4,13.4,0,0,1,8.2-2.32q8.9,0,11.35,6.42L316,388.48c-.68-1.44-2.1-2.17-4.26-2.17a4.89,4.89,0,0,0-2.3.43c-.5.28-.75.55-.75.82,0,.81.77,1.29,2.31,1.47a48.78,48.78,0,0,1,8.15,1.36,7.86,7.86,0,0,1,3.65,2.55,6.87,6.87,0,0,1,1.52,4.48A7.42,7.42,0,0,1,321,403.8c-2.23,1.57-5.32,2.35-9.24,2.35Q301.81,406.15,299.45,398.72Z"/><path class="cls-5" d="M343.87,396.87l8.94.6a10.56,10.56,0,0,1-4.05,6.15q-3.25,2.53-8.81,2.53-6.18,0-9.86-3.57a11.82,11.82,0,0,1-3.68-8.86,13.63,13.63,0,0,1,22.81-9.47q3.61,3.56,3.62,9.69c0,.33,0,.8,0,1.39H336.43a6.47,6.47,0,0,0,.82,3.43,4,4,0,0,0,6.62-1.89Zm-.65-6.35c0-1.65-.35-2.76-1-3.33a3.52,3.52,0,0,0-2.41-.85q-3.4,0-3.4,4.18Z"/></g></g></svg>