<svg xmlns="http://www.w3.org/2000/svg" viewBox="0 0 507.33 115"><defs><style>.cls-1{fill:#fff;}.cls-2{fill:#ffb600;}.cls-3{fill:#f9f9f9;}</style></defs><title>RoomMate</title><g id="Layer_2" data-name="Layer 2"><g id="Layer_1-2" data-name="Layer 1"><g id="Layer_1-2-2" data-name="Layer 1-2"><g id="Layer_1-2-2-2" data-name="Layer 1-2-2"><rect class="cls-1" x="264.33" width="243" height="115"/><path d="M336.42,75c0,.91-.43,1.36-1.28,1.36H319.59c-.85,0-1.28-.51-1.28-1.53q0-4.44.33-13.32T319,48.19c0-.85-.13-1.3-.39-1.36q-.5.27-5.89,13.58-3.15,7.78-6.36,15.59a1.84,1.84,0,0,1-1.1,1.19H303.5c-1.52,0-2.43-.29-2.72-.88q-2.37-4.83-6.24-14.06-4.17-9.75-6.18-14.11a1.53,1.53,0,0,0-.39-.48,2.06,2.06,0,0,0-.31,1.28q0,4.31.22,12.92t.22,12.92q0,1.53-1.23,1.53h-14.7c-.59,0-.94-.09-1.08-.28a1.93,1.93,0,0,1-.19-1q0-4.78.46-14.39t.46-14.4q0-5.09-.44-19.11,0-3.64-.4-10.86v-.74c0-.59.59-.88,1.85-.88,1.61,0,4-.05,7.25-.16s5.64-.15,7.25-.15c.32,0,.77.62,1.36,1.85l12.83,28.17c.91,1.9,1.67,2.85,2.29,2.85.32,0,1-1.1,2.06-3.29Q310.34,34.68,319,16.1c.5-1.14,1-1.72,1.63-1.72.85,0,2.13,0,3.84.14s3,.13,3.89.13,1.85-.07,3.36-.22,2.63-.22,3.37-.22,1.31.35,1.31,1q0,5.19-.37,15.49t-.37,15.49q0,4.8.39,14.38T336.42,75Z"/><path d="M402.56,75.21c0,.53-.37.9-1.1,1.1a48.62,48.62,0,0,1-8.18.36,54.52,54.52,0,0,1-8.08-.36,2.37,2.37,0,0,1-1.89-2c-1-4.22-1.77-6.48-2.33-6.77s-4.4-.31-11.78-.31q-7.47,0-7.95.4c-.5.47-1.06,2-1.67,4.7-.56,2.43-1.23,3.75-2,4q-1.5.36-10,.36c-4.49,0-6.74-.43-6.73-1.28s3.32-10.21,9.93-28.08q10.77-29.13,11.69-32c.36-1.11.77-1.67,1.23-1.67.8,0,2,.08,3.67.22s2.9.22,3.72.22a33.83,33.83,0,0,0,3.49-.15A32.61,32.61,0,0,1,378,13.8c.56,0,1.07.48,1.54,1.45q2.15,4.61,12.57,31.64T402.56,75.21Zm-31.16-40c-.62,1.29-1.66,4.08-3.12,8.39-1.58,4.57-2.37,7.26-2.37,8,0,.52.87.82,2.63.88.91,0,2.4.08,4.48.08s3-.23,3.21-.7a1.64,1.64,0,0,0,.09-.62c0-1-.67-3.63-2-8a64.07,64.07,0,0,0-2.92-8.06Z"/><path d="M449.84,28.11c0,.58-.32.87-1,.87q-1.66,0-13.22-.65-.28,11.12-.29,15.51c0,3.45.14,8.66.42,15.6s.42,12.14.42,15.6c0,.56-.13.91-.4,1a4.68,4.68,0,0,1-1.23.22,62.41,62.41,0,0,1-7.73.36,59.43,59.43,0,0,1-8-.36A1.29,1.29,0,0,1,417.67,75q0-5.19.44-15.56t.44-15.55c0-2.29-.12-7.38-.35-15.3q-8.79.89-14,.88c-.47,0-.7-.14-.7-.44a25.74,25.74,0,0,1,.61-3.38c.47-2,.74-3.3.79-3.73.09-1.38.2-2.76.31-4.14.21-2.19.56-3.29,1.06-3.29h.61a176.14,176.14,0,0,0,21.05.93q4,0,14.59-.84l5.76-.44a2.59,2.59,0,0,1,1,.11c.09.07.15.36.18.86,0,.79,0,1.89-.09,3.29q-.09,2.34-.09,3.3a26.9,26.9,0,0,0,.28,3.23A24.08,24.08,0,0,1,449.84,28.11Z"/><path d="M499.54,62.65a59.82,59.82,0,0,1-.74,6.94q-.8,5.49-1.41,6.55a1.63,1.63,0,0,1-1.45.83,11.79,11.79,0,0,1-1.32-.13q-3.21-.44-18.72-.44H455.84c-1,0-1.45-.42-1.45-1.27q0-4.92.55-14.79c.36-6.58.55-11.5.55-14.79S455.33,36,455,26.88q-.12-3.52-.48-10.51v-.61c-.06-.67.31-1,1.1-1q3.27,0,9.78.17t9.78.18c2.13,0,5.36-.06,9.66-.18s7.53-.17,9.67-.17q2.28,0,2.64,1.71.21,1,.68,6.13c.31,3.42.47,5.49.46,6.22s-.29.92-.88.92h-.92q-11.69-1-21-1c-1.55,0-2.5.37-2.85,1.1a14.29,14.29,0,0,0-.22,3.39c0,2,.29,3.31.88,4a3.72,3.72,0,0,0,2.85.84c.29,0,.87,0,1.72-.07s1.55-.07,2.11-.07c3.69,0,7.43-.1,11.2-.3l2.42-.22a23.62,23.62,0,0,1,2.37-.18c.7,0,1.06.34,1.06,1,0-.61-.27,1.63-.79,6.72a68.22,68.22,0,0,0-.36,7c0,.58-.42.87-1.27.87l-4-.43c-1.67-.18-5.47-.27-11.42-.27h-4.66c-1.2,0-1.91.29-2.11.88v2.73a12.74,12.74,0,0,0,.44,4.3c.49,1.12,2.37,1.77,5.62,2h6.42c1.55,0,3.85-.14,6.92-.42s5.36-.42,6.88-.42C499.23,61.1,499.54,61.59,499.54,62.65Z"/><rect class="cls-2" width="264.33" height="115"/><path class="cls-1" d="M182.94,44.55q0,13.71-8.75,23-8.92,9.39-22.59,9.4a29.71,29.71,0,0,1-22.54-9.49q-8.79-9.27-8.79-22.9t8.79-23a31.34,31.34,0,0,1,44.32-.68h0l.67.67A32.32,32.32,0,0,1,182.94,44.55Zm-16.61-.09a16.48,16.48,0,0,0-4-11.2,13.86,13.86,0,0,0-19.54-1.5,14.28,14.28,0,0,0-1.64,1.66A16.56,16.56,0,0,0,137,44.54a16.42,16.42,0,0,0,3.92,11.21,13.67,13.67,0,0,0,10.76,4.7,13.5,13.5,0,0,0,10.55-5A16.22,16.22,0,0,0,166.33,44.46Z"/><path class="cls-1" d="M132.94,45.55q0,13.71-8.75,23-8.91,9.39-22.59,9.4a29.71,29.71,0,0,1-22.54-9.49q-8.79-9.27-8.79-22.9t8.79-23a31.33,31.33,0,0,1,44.3-.7l.7.7A32.33,32.33,0,0,1,132.94,45.55Zm-16.61-.09a16.48,16.48,0,0,0-4-11.2,13.86,13.86,0,0,0-19.54-1.5,14.28,14.28,0,0,0-1.64,1.66A16.56,16.56,0,0,0,87,45.54a16.42,16.42,0,0,0,3.92,11.21,13.67,13.67,0,0,0,10.76,4.7,13.5,13.5,0,0,0,10.55-5A16.22,16.22,0,0,0,116.33,45.46Z"/><path class="cls-1" d="M66.71,76.07c0,.2-.29.35-.88.44a78.3,78.3,0,0,1-8.39.26,75.58,75.58,0,0,1-7.82-.26,4.67,4.67,0,0,1-1.1-.22,2,2,0,0,1-.62-.88q-.66-1.71-1.93-5.1-1.71-4.4-5.36-13c-.53-1.14-1.74-1.77-3.65-1.89q1.32.09-4.53.09c-.43,0-.65.74-.65,2.24q0,3,.54,8.92c.37,4,.55,6.93.55,8.92,0,.5-.13.79-.39.88l-1.23.09c-1.73.11-4.42.16-8.09.17a59.64,59.64,0,0,1-7.56-.26c-.85-.18-1.27-.63-1.27-1.36q0-4.85.46-14.59t.46-14.64q0-18.58-.83-29l-.09-.58c0-.49.44-.83,1.39-1s5.42-.35,13.42-.52q8.13-.18,13-.18,10,0,16.34,4.53,7.17,5.1,7.17,14.72A23.64,23.64,0,0,1,63.8,44.09,20.87,20.87,0,0,1,57,51.51c-.67.47-1,.91-1,1.32s1.79,3.94,5.36,11Q66.72,74.93,66.71,76.07ZM48.25,36.65c0-3.57-1.17-6-3.51-7.43-1.82-1-4.66-1.57-8.53-1.58-2.78,0-4.26.43-4.43,1.28a72.78,72.78,0,0,0-.27,8.61v5.94c0,.15.47.29,1.41.44a37.75,37.75,0,0,0,5.62.4Q48.28,44.29,48.25,36.65Z"/><path class="cls-1" d="M254.85,75.15c0,.9-.42,1.36-1.27,1.36H238c-.85,0-1.27-.51-1.27-1.54q0-4.44.33-13.31t.33-13.32c0-.85-.14-1.3-.4-1.36q-.48.26-5.89,13.58-3.15,7.81-6.33,15.6a1.82,1.82,0,0,1-1.1,1.18,17,17,0,0,1-1.75,0c-1.53,0-2.44-.3-2.73-.88Q216.84,71.63,213,62.4q-4.11-9.76-6.19-14.11a1.32,1.32,0,0,0-.4-.48,2,2,0,0,0-.31,1.27q0,4.31.22,12.92t.22,13c0,1-.41,1.54-1.23,1.54H190.6c-.58,0-.94-.1-1.07-.29a1.82,1.82,0,0,1-.2-1q0-4.78.46-14.39t.46-14.39q0-5.1-.44-19.12c0-2.43-.16-6-.39-10.85l0-.75c0-.58.59-.88,1.85-.88,1.62,0,4,0,7.25-.15s5.64-.15,7.25-.15c.32,0,.78.61,1.36,1.84l12.83,28.17c.91,1.91,1.67,2.86,2.29,2.86q.48,0,2.07-3.3,4.42-9.22,13.14-27.82.74-1.71,1.62-1.71c.85,0,2.13,0,3.85.13s3,.13,3.89.13c.73,0,1.85-.07,3.36-.22s2.63-.22,3.36-.22,1.32.36,1.32,1.06q0,5.19-.38,15.49t-.37,15.49q0,4.78.4,14.37T254.85,75.15Z"/></g></g><rect class="cls-3" x="14.33" y="92" width="165.84" height="14.2"/><rect class="cls-3" x="189.32" y="92" width="28.29" height="14.2"/><rect class="cls-3" x="226.73" y="92" width="28.12" height="14.2"/><path d="M324,108.2h-6.94v-2.5a5.31,5.31,0,0,1-5.08,2.89,6.45,6.45,0,0,1-5.3-2.55c-1.36-1.7-2-4.17-2-7.41a11.62,11.62,0,0,1,2-7.22,6.46,6.46,0,0,1,5.4-2.67,5.8,5.8,0,0,1,4.62,2.13v-8H324Zm-7.29-12.13q0-2.55-2.1-2.55a1.9,1.9,0,0,0-1.92,1.62,14.86,14.86,0,0,0-.45,4c0,3.06.78,4.58,2.33,4.58a1.94,1.94,0,0,0,1.52-.72,3.35,3.35,0,0,0,.62-2.21Z"/><path d="M340.4,101.43l6.9.46a8.11,8.11,0,0,1-3.13,4.74,10.74,10.74,0,0,1-6.8,2,10.46,10.46,0,0,1-7.61-2.76A9.13,9.13,0,0,1,326.92,99a10.21,10.21,0,1,1,20.4.16c0,.26,0,.62,0,1.08H334.66a5,5,0,0,0,.63,2.64,2.57,2.57,0,0,0,2.27.87A2.6,2.6,0,0,0,340.4,101.43Zm-.51-4.9a3.42,3.42,0,0,0-.76-2.57,2.71,2.71,0,0,0-1.86-.66c-1.75,0-2.63,1.08-2.63,3.23Z"/><path d="M369.71,89.33,364,95.81l6.35,12.39h-7.65l-3.54-7.56-2,2.36v5.2h-6.94V82.87h6.94V93.1c0,.28,0,1.42-.06,3.41a21.28,21.28,0,0,1,1.36-1.73l4.74-5.45Z"/><path d="M390.55,108.2h-7.4V96.84a4.61,4.61,0,0,0-.35-2.14,1.38,1.38,0,0,0-1.32-.58,2.07,2.07,0,0,0-1.32.45,1.7,1.7,0,0,0-.65.94,13.88,13.88,0,0,0-.09,2V108.2H372V82.87h7.41v8.69a6.27,6.27,0,0,1,5.23-2.62,6.81,6.81,0,0,1,2.87.57,4.83,4.83,0,0,1,1.9,1.45,5.53,5.53,0,0,1,.9,1.73,14.8,14.8,0,0,1,.23,3.23Z"/><path d="M403.69,108.59a9.77,9.77,0,0,1-7.46-2.92,9.65,9.65,0,0,1-2.77-6.86,9.43,9.43,0,0,1,2.89-7,11.43,11.43,0,0,1,15,0,9.39,9.39,0,0,1,2.83,7,9.53,9.53,0,0,1-2.87,7.06A10.35,10.35,0,0,1,403.69,108.59Zm.11-4.49a2,2,0,0,0,2.1-1.79,17.51,17.51,0,0,0,.38-3.74,10,10,0,0,0-.53-3.82,2.12,2.12,0,0,0-3.81,0,9.55,9.55,0,0,0-.59,4,9.77,9.77,0,0,0,.61,4.29A2,2,0,0,0,403.8,104.1Z"/><path d="M423.84,101.43v6.77h-7v-6.77Z"/><path d="M438.87,100.59l6.3.54a8.44,8.44,0,0,1-2.77,5.38,8.93,8.93,0,0,1-6.19,2.08,9.29,9.29,0,0,1-9.72-9.69,9.94,9.94,0,0,1,2.68-7.15,9.21,9.21,0,0,1,7-2.81,9,9,0,0,1,6.19,2.13,8,8,0,0,1,2.75,5.37l-6.47.53c-.28-2-1-3-2.27-3a1.81,1.81,0,0,0-1.73,1.08,9.12,9.12,0,0,0-.55,3.78,8,8,0,0,0,.55,3.43,1.94,1.94,0,0,0,1.9,1.11C437.83,103.39,438.62,102.46,438.87,100.59Z"/><path d="M456.58,108.59a9.76,9.76,0,0,1-7.45-2.92,9.65,9.65,0,0,1-2.77-6.86,9.43,9.43,0,0,1,2.89-7,11.43,11.43,0,0,1,15,0,9.39,9.39,0,0,1,2.83,7,9.53,9.53,0,0,1-2.87,7.06A10.36,10.36,0,0,1,456.58,108.59Zm.12-4.49a2,2,0,0,0,2.1-1.79,17.51,17.51,0,0,0,.38-3.74,9.79,9.79,0,0,0-.54-3.82,1.93,1.93,0,0,0-1.93-1.17,2,2,0,0,0-1.87,1.21,9.55,9.55,0,0,0-.59,4,9.77,9.77,0,0,0,.61,4.29A2,2,0,0,0,456.7,104.1Z"/><path d="M498.54,108.2h-7.18V96.4a2.92,2.92,0,0,0-.35-1.66,1.38,1.38,0,0,0-1.21-.47c-1.39,0-2.08,1-2.08,3V108.2h-7.11V96.4c0-1.51-.58-2.26-1.74-2.26s-1.8.75-1.8,2.26v11.8h-7.13V89.33h6.65v2.54a6.15,6.15,0,0,1,10.48,0,6.19,6.19,0,0,1,5.64-2.93,6.5,6.5,0,0,1,3.2.76,4.82,4.82,0,0,1,2,2,8.45,8.45,0,0,1,.62,3.7Z"/></g></g></svg>