<svg xmlns="http://www.w3.org/2000/svg" viewBox="0 0 503 92"><defs><style>.cls-1{fill:#fff;}.cls-2{fill:#ffb600;}</style></defs><title>roommate_logo</title><g id="Layer_2" data-name="Layer 2"><g id="Layer_1-2" data-name="Layer 1"><g id="Layer_1-2-2" data-name="Layer 1-2"><rect class="cls-1" x="260" width="243" height="92"/><path d="M332.09,75c0,.91-.43,1.36-1.28,1.36H315.26c-.85,0-1.28-.51-1.28-1.53q0-4.44.33-13.32t.33-13.32c0-.85-.13-1.3-.39-1.36q-.5.27-5.89,13.58Q305.2,68.19,302,76a1.84,1.84,0,0,1-1.1,1.19h-1.76c-1.52,0-2.43-.29-2.72-.88q-2.37-4.83-6.24-14.06Q286,52.5,284,48.14a1.53,1.53,0,0,0-.39-.48,2.06,2.06,0,0,0-.31,1.28q0,4.31.22,12.92t.22,12.92q0,1.53-1.23,1.53H267.84c-.59,0-.94-.09-1.08-.28a1.83,1.83,0,0,1-.19-1q0-4.78.46-14.39t.46-14.4q0-5.09-.44-19.11,0-3.64-.4-10.86v-.74c0-.59.59-.88,1.85-.88,1.61,0,4-.05,7.25-.16s5.64-.15,7.25-.15c.32,0,.77.62,1.36,1.85l12.83,28.17c.91,1.9,1.67,2.85,2.29,2.85.32,0,1-1.1,2.06-3.29Q306,34.68,314.68,16.1c.5-1.14,1-1.72,1.63-1.72.85,0,2.13,0,3.84.14s3,.13,3.89.13,1.85-.07,3.36-.22,2.63-.22,3.37-.22,1.31.35,1.31,1q0,5.19-.37,15.49t-.37,15.49q0,4.8.39,14.38T332.09,75Z"/><path d="M398.23,75.21c0,.53-.37.9-1.1,1.1a48.62,48.62,0,0,1-8.18.36,54.52,54.52,0,0,1-8.08-.36,2.35,2.35,0,0,1-1.89-2c-1-4.22-1.77-6.48-2.33-6.77s-4.4-.31-11.78-.31q-7.47,0-7.95.4c-.5.47-1.06,2-1.67,4.7-.56,2.43-1.23,3.75-2,4q-1.5.36-10,.36-6.74,0-6.73-1.28t9.93-28.08q10.77-29.13,11.69-32c.36-1.11.77-1.67,1.23-1.67.8,0,2,.08,3.67.22s2.9.22,3.72.22a33.39,33.39,0,0,0,3.49-.15,33.3,33.3,0,0,1,3.45-.15c.56,0,1.07.48,1.54,1.45q2.14,4.61,12.57,31.64T398.23,75.21Zm-31.16-40c-.62,1.29-1.66,4.08-3.12,8.39-1.58,4.57-2.37,7.26-2.37,8,0,.52.87.82,2.63.88.91,0,2.4.08,4.48.08s3-.23,3.21-.7a1.64,1.64,0,0,0,.09-.62c0-1-.67-3.63-2-8a64.07,64.07,0,0,0-2.92-8.06Z"/><path d="M445.51,28.11c0,.58-.32.87-1,.87q-1.67,0-13.22-.65Q431,39.45,431,43.84c0,3.45.14,8.66.42,15.6s.42,12.14.42,15.6c0,.56-.13.91-.4,1a4.68,4.68,0,0,1-1.23.22,62.41,62.41,0,0,1-7.73.36,59.43,59.43,0,0,1-8-.36A1.29,1.29,0,0,1,413.34,75q0-5.19.44-15.56t.44-15.55c0-2.29-.12-7.38-.35-15.3q-8.79.89-14,.88c-.47,0-.7-.14-.7-.44a25.74,25.74,0,0,1,.61-3.38c.47-2,.74-3.3.79-3.73.09-1.38.2-2.76.31-4.14.21-2.19.56-3.29,1.06-3.29h.61a176.14,176.14,0,0,0,21.05.93q4,0,14.59-.84l5.76-.44a2.59,2.59,0,0,1,1,.11c.09.07.15.36.18.86,0,.79,0,1.89-.09,3.29q-.09,2.34-.09,3.3a26.9,26.9,0,0,0,.28,3.23A24.23,24.23,0,0,1,445.51,28.11Z"/><path d="M495.21,62.65a59.82,59.82,0,0,1-.74,6.94q-.8,5.49-1.41,6.55a1.64,1.64,0,0,1-1.45.83,11.79,11.79,0,0,1-1.32-.13q-3.21-.44-18.72-.44H451.51c-1,0-1.45-.42-1.45-1.27q0-4.92.55-14.79c.36-6.58.55-11.5.55-14.79S451,36,450.63,26.88q-.13-3.52-.48-10.51l0-.61c-.06-.67.31-1,1.1-1q3.26,0,9.78.17t9.78.18c2.13,0,5.36-.06,9.66-.18s7.53-.17,9.67-.17q2.28,0,2.64,1.71.21,1,.68,6.13c.31,3.42.47,5.49.46,6.22s-.29.92-.88.92h-.92q-11.69-1-21-1c-1.55,0-2.5.37-2.85,1.1a13.79,13.79,0,0,0-.22,3.39c0,2,.29,3.31.88,4a3.72,3.72,0,0,0,2.85.84c.29,0,.87,0,1.72-.07s1.55-.07,2.11-.07c3.69,0,7.43-.1,11.2-.3l2.42-.22a23.62,23.62,0,0,1,2.37-.18c.7,0,1.06.34,1.06,1,0-.61-.27,1.63-.79,6.72a68.22,68.22,0,0,0-.36,7c0,.58-.42.87-1.27.87l-4-.43c-1.67-.18-5.47-.27-11.42-.27h-4.66c-1.2,0-1.91.29-2.11.88v2.73a12.74,12.74,0,0,0,.44,4.3c.49,1.12,2.37,1.77,5.62,2h6.42c1.55,0,3.85-.14,6.92-.42s5.36-.42,6.88-.42C494.9,61.1,495.21,61.59,495.21,62.65Z"/><rect class="cls-2" width="260" height="92"/><path class="cls-1" d="M178.61,44.55q0,13.71-8.75,23-8.93,9.39-22.59,9.4a29.71,29.71,0,0,1-22.54-9.49q-8.79-9.27-8.79-22.9t8.79-23a31.34,31.34,0,0,1,44.33-.67l.67.67A32.33,32.33,0,0,1,178.61,44.55ZM162,44.46a16.48,16.48,0,0,0-4-11.2,13.49,13.49,0,0,0-10.68-4.84,13.34,13.34,0,0,0-10.5,5,16.55,16.55,0,0,0-4.18,11.12,16.42,16.42,0,0,0,3.92,11.21,13.67,13.67,0,0,0,10.76,4.7,13.5,13.5,0,0,0,10.55-5A16.29,16.29,0,0,0,162,44.46Z"/><path class="cls-1" d="M128.61,45.55q0,13.71-8.75,23-8.92,9.39-22.59,9.4a29.71,29.71,0,0,1-22.54-9.49q-8.79-9.27-8.79-22.9t8.79-23A29.62,29.62,0,0,1,97.27,13a29.65,29.65,0,0,1,22.5,9.54A32.31,32.31,0,0,1,128.61,45.55ZM112,45.46a16.48,16.48,0,0,0-4-11.2,13.49,13.49,0,0,0-10.68-4.84,13.34,13.34,0,0,0-10.5,5,16.55,16.55,0,0,0-4.18,11.12,16.42,16.42,0,0,0,3.92,11.21,13.67,13.67,0,0,0,10.76,4.7,13.5,13.5,0,0,0,10.55-5A16.29,16.29,0,0,0,112,45.46Z"/><path class="cls-1" d="M62.38,76.07c0,.2-.29.35-.88.44a78.3,78.3,0,0,1-8.39.26,75.58,75.58,0,0,1-7.82-.26,4.67,4.67,0,0,1-1.1-.22,2,2,0,0,1-.62-.88q-.66-1.71-1.93-5.1-1.71-4.4-5.36-13c-.53-1.14-1.74-1.77-3.65-1.89q1.32.09-4.53.09c-.43,0-.65.74-.65,2.24q0,3,.54,8.92c.37,4,.55,6.93.55,8.92,0,.5-.13.79-.39.88l-1.23.09c-1.73.11-4.42.16-8.09.17a59.64,59.64,0,0,1-7.56-.26c-.85-.18-1.27-.63-1.27-1.36q0-4.85.46-14.59t.46-14.64q0-18.58-.83-29L10,16.3c0-.49.44-.83,1.39-1s5.42-.35,13.42-.52q8.13-.18,13-.18,10,0,16.34,4.53,7.17,5.1,7.17,14.72a23.82,23.82,0,0,1-1.85,10.24,20.9,20.9,0,0,1-6.81,7.42c-.67.47-1,.91-1,1.32s1.79,3.94,5.36,11Q62.38,74.93,62.38,76.07ZM43.92,36.65c0-3.57-1.17-6-3.51-7.43-1.82-1-4.66-1.57-8.53-1.58-2.78,0-4.26.43-4.43,1.28a72.78,72.78,0,0,0-.27,8.61c0,.67,0,1.67.05,3s0,2.3,0,2.94c0,.15.47.29,1.41.44a37.75,37.75,0,0,0,5.62.4Q43.94,44.29,43.92,36.65Z"/><path class="cls-1" d="M250.52,75.15c0,.9-.42,1.36-1.27,1.36H233.69c-.85,0-1.27-.51-1.27-1.54q0-4.44.33-13.31t.33-13.32c0-.85-.14-1.3-.4-1.36q-.48.26-5.89,13.58-3.16,7.81-6.33,15.6a1.82,1.82,0,0,1-1.1,1.18,17,17,0,0,1-1.75,0c-1.53,0-2.44-.3-2.73-.88q-2.37-4.83-6.24-14.06-4.12-9.76-6.19-14.11a1.32,1.32,0,0,0-.4-.48,2,2,0,0,0-.31,1.27q0,4.31.22,12.92t.22,13c0,1-.41,1.54-1.23,1.54H186.27c-.58,0-.94-.1-1.07-.29a1.74,1.74,0,0,1-.2-1q0-4.78.46-14.39t.46-14.39q0-5.1-.44-19.12c0-2.43-.16-6-.39-10.85l-.05-.75c0-.58.59-.88,1.85-.88q2.42,0,7.25-.15t7.25-.15c.32,0,.78.61,1.36,1.84l12.83,28.17c.91,1.91,1.67,2.86,2.29,2.86q.48,0,2.07-3.3,4.42-9.22,13.14-27.82.73-1.71,1.62-1.71c.85,0,2.13,0,3.85.13s3,.13,3.89.13c.73,0,1.85-.07,3.36-.22s2.63-.22,3.36-.22c.88,0,1.32.36,1.32,1.06q0,5.19-.38,15.49t-.37,15.49q0,4.78.4,14.37T250.52,75.15Z"/></g></g></g></svg>