<svg xmlns="http://www.w3.org/2000/svg" viewBox="0 0 486 486"><defs><style>.cls-1{fill:#ff390b;}.cls-2{fill:none;stroke:#fcfcfc;stroke-miterlimit:10;stroke-width:12px;}.cls-3{fill:#dad7dc;}.cls-4{fill:#e6e7e8;}.cls-5{fill:#b0b1b5;}.cls-6{fill:#e84d00;}.cls-7{fill:#304651;}.cls-8{fill:#ececec;}.cls-9{fill:#293b44;}.cls-10{fill:#fff;}.cls-11{opacity:0.47;}.cls-12{fill:#787a7a;}.cls-13{fill:#ffe000;}</style></defs><title>search_new</title><g id="Layer_2" data-name="Layer 2"><g id="Layer_1-2" data-name="Layer 1"><circle class="cls-1" cx="243" cy="243" r="243"/><circle class="cls-2" cx="243" cy="243" r="214.72"/><path class="cls-3" d="M132.88,99.62,294.31,63.2l49.76,220.64L182.64,320.26Z"/><path class="cls-4" d="M155.76,78.66H321.3V305H155.76Z"/><path class="cls-5" d="M304.77,210.08H172.3v-4.71H304.77Z"/><path class="cls-5" d="M304.77,226.24H172.3v-4.73H304.77Z"/><path class="cls-5" d="M304.77,242.39H172.3v-4.72H304.77Z"/><path class="cls-5" d="M304.77,258.54H172.3v-4.72H304.77Z"/><path class="cls-5" d="M304.77,274.69H172.3V270H304.77Z"/><path class="cls-6" d="M189.93,99.65c0,.26-.14.4-.44.4q-.75,0-6-.3-.12,5-.12,7c0,1.57.06,3.92.19,7.07s.19,5.5.18,7.06c0,.26-.05.42-.17.49a2.62,2.62,0,0,1-.56.09,27.49,27.49,0,0,1-3.51.16,27.11,27.11,0,0,1-3.6-.16.57.57,0,0,1-.55-.6h0q0-2.35.19-7c.13-3.13.19-5.48.2-7q0-1.56-.16-6.93c-2.65.26-4.76.4-6.35.4-.21,0-.32-.07-.32-.2a12.89,12.89,0,0,1,.28-1.53c.21-.93.34-1.5.36-1.68,0-.63.08-1.25.14-1.87q.13-1.5.48-1.5h.28a79.79,79.79,0,0,0,9.53.42c1.2,0,3.4-.13,6.62-.39l2.61-.19a1.38,1.38,0,0,1,.45,0s.06.17.08.4v1.49c0,.65,0,1.2,0,1.49a14.58,14.58,0,0,0,.13,1.47A11.76,11.76,0,0,1,189.93,99.65Z"/><path class="cls-6" d="M211.08,111.7a10,10,0,0,1-2.78,7.37,10.78,10.78,0,0,1-14.51,0,9.67,9.67,0,0,1-2.83-7.17,10.54,10.54,0,0,1,2.71-7.53,9.63,9.63,0,0,1,7.33-2.88,9.83,9.83,0,0,1,7.3,2.82A10,10,0,0,1,211.08,111.7Zm-6.53,0a4.31,4.31,0,0,0-1-2.78,3.08,3.08,0,0,0-2.51-1.2,3.19,3.19,0,0,0-2.59,1.23,4.47,4.47,0,0,0,0,5.52,3.32,3.32,0,0,0,5.16,0A4.29,4.29,0,0,0,204.55,111.7Z"/><path class="cls-6" d="M227.71,106.16a6.25,6.25,0,0,1-.28,1.61c-.16.54-.32,1.07-.46,1.62s-.18,1.62-.37,2.88c0,.19-.2.28-.49.28h-4.57a55.83,55.83,0,0,0-5.63.38c-.12,0-.48.06-1.07.16a7.89,7.89,0,0,1-1.09.11c-.34,0-.52-.32-.52-1a16.86,16.86,0,0,1,.68-2.89,25.87,25.87,0,0,1,1-2.9.51.51,0,0,1,.52-.32c.52,0,1.3,0,2.33.07s1.81.09,2.33.09a48.78,48.78,0,0,0,5.4-.48c1.31-.18,1.93-.26,1.85-.26C227.57,105.51,227.71,105.73,227.71,106.16Z"/><path class="cls-6" d="M249.25,121.83c-1.14,0-2.62,0-4.45-.08l-4.47-.1-6-.07c-.6,0-1.45,0-2.57-.09a.58.58,0,0,1-.58-.59v0q0-2.16.07-6.51t.07-6.5c0-1.53-.05-3.84-.14-6.91s-.14-5.38-.13-6.93c0-.29.19-.43.59-.43s1,0,1.78.06,1.38,0,1.77,0,1.08,0,1.94-.06,1.52-.08,2-.08c.19,0,.29.14.28.39v.26q-.24,3.73-.54,11.25v9.46a.32.32,0,0,0,.3.29h.52c1.19,0,3-.06,5.36-.19s4.19-.17,5.41-.15c.36,0,.53.15.53.46a30.24,30.24,0,0,1-.49,5.86c-.07.35-.21.55-.42.62A3.93,3.93,0,0,1,249.25,121.83Z"/><path class="cls-6" d="M271.38,110.7c0,1.34-.44,2.1-1.3,2.29-.14,0-1.52.17-4.12.44-1.57.17-3.91.37-7,.62a2.82,2.82,0,0,0,1.67,2,5.82,5.82,0,0,0,2.63.56,7.4,7.4,0,0,0,3.56-.95l1.51-1a5.85,5.85,0,0,1,1.41,2,7.73,7.73,0,0,1,1,2.33c0,.1-.1.25-.3.46q-2.44,2.61-7.53,2.61a10.73,10.73,0,0,1-7.66-2.76,9.82,9.82,0,0,1-3-7.53,10.72,10.72,0,0,1,2.67-7.53,9.38,9.38,0,0,1,7.29-3,8.69,8.69,0,0,1,6.49,2.8A9.27,9.27,0,0,1,271.38,110.7Zm-7-1.22a3.09,3.09,0,0,0-.88-2.17,2.74,2.74,0,0,0-2.09-.93,2.49,2.49,0,0,0-2.07,1.05,3.67,3.67,0,0,0-.76,2.29.49.49,0,0,0,.56.54,35.35,35.35,0,0,0,4.58-.46c.42-.08.64-.19.64-.34Z"/><path class="cls-6" d="M286.87,115.66c0,.61-.07,1.21-.14,1.82a13.22,13.22,0,0,0-.15,1.78,1.38,1.38,0,0,1-.13.72,2.47,2.47,0,0,1-.65.46,11.58,11.58,0,0,1-5.7,1.41q-5.76,0-5.75-4.4c0-.83,0-2.19.1-4s.1-3.07.1-4c0-.59-.35-.88-1-.88H273q-.75,0-.75-.54a7.91,7.91,0,0,1,.05-1,8.14,8.14,0,0,0,.05-1c0-.21,0-.71-.05-1.27s-.05-1-.05-1.28.42-.41,1.27-.44c.47,0,.73-.13.78-.4a14.66,14.66,0,0,0,.08-2.39c-.06-1.68-.08-2.51-.08-2.45,0-1.53.15-2.31.43-2.31a6.68,6.68,0,0,1,1.54.24,14,14,0,0,0,1.57.3c.68.09,1.67.22,3.07.38.33,0,.49.14.49.33,0,.54,0,1.34-.12,2.42s-.13,1.88-.13,2.43.19,1,.57,1,1.17,0,2.12,0,1.67-.07,2.12-.07q.45,0,.45.3c0,.46-.05.92-.1,1.37a12.81,12.81,0,0,0-.1,1.38v2.79c0,.31-.2.41-.58.41h-4.17q-.3,0-.3.84v2.83a4.94,4.94,0,0,0,.38,2.31,2.31,2.31,0,0,0,2.11.83,6.26,6.26,0,0,0,1.42-.22,7.09,7.09,0,0,1,1.3-.24C286.73,115.22,286.87,115.37,286.87,115.66Z"/><path class="cls-7" d="M351.06,202.14l11.49,11.51-14,14-11.48-11.53a64.86,64.86,0,1,1,14-14Z"/><circle class="cls-8" cx="298.76" cy="163.81" r="52.72"/><circle class="cls-1" cx="298.76" cy="163.81" r="46.22"/><path class="cls-9" d="M346.81,211.86c6.75-6.74,18-6.45,25.1.66L409.35,250c7.11,7.1,7.41,18.34.66,25.09s-18,6.45-25.09-.66l-37.43-37.46C340.37,229.83,340.06,218.6,346.81,211.86Z"/><path class="cls-10" d="M377,217.6,352.61,242l-5-5,24.42-24.42Z"/><path class="cls-10" d="M407.84,248.42l-24.38,24.41-5-5,24.41-24.41Z"/><g class="cls-11"><path class="cls-12" d="M231.55,168l-13.91-13.9v-9.2a2.07,2.07,0,0,0-4.14,0v5l-9.81-9.81a2.06,2.06,0,0,0-2.91,0h0l-27.86,27.85a2.07,2.07,0,0,0,2.92,2.93l26.39-26.39,26.4,26.47a2.06,2.06,0,0,0,1.46.61,2.09,2.09,0,0,0,1.49-3.55Z"/><path class="cls-12" d="M225.63,170.33l-21.94-21.94a2.09,2.09,0,0,0-2.93,0l-21.93,21.94a2.07,2.07,0,0,0-.57,1.07,5,5,0,0,0-.09.95v10.71a5,5,0,0,0,5,5h10.7a5,5,0,0,0,5-5V175.2a3.35,3.35,0,1,1,6.69,0v7.86a5,5,0,0,0,5,5h10.71a5,5,0,0,0,5-5V172.35a5,5,0,0,0-.09-.94A2.16,2.16,0,0,0,225.63,170.33Z"/></g><path class="cls-13" d="M116.42,380.82,131.85,378q2,6.56,10,6.55,6.27,0,6.27-3.33a3.11,3.11,0,0,0-1.45-2.72,15.71,15.71,0,0,0-5.18-1.73q-14.25-2.71-18.29-7.13a14.81,14.81,0,0,1-4-10.36A16.22,16.22,0,0,1,125,346.58q5.81-5.07,16.72-5.08,16.55,0,21.86,13.29L149.78,359q-2.15-5.43-8.69-5.44-5.43,0-5.43,3.38a2.68,2.68,0,0,0,1.23,2.34,15.21,15.21,0,0,0,4.76,1.58,101.33,101.33,0,0,1,13.81,3.64,14.88,14.88,0,0,1,6.82,5.41,15.12,15.12,0,0,1,2.74,9,16,16,0,0,1-6.67,13.32q-6.66,5.1-17.49,5.1Q121.06,397.32,116.42,380.82Z"/><path class="cls-13" d="M197.47,382l14.76,1a17.38,17.38,0,0,1-6.69,10.14q-5.37,4.19-14.54,4.18-10.19,0-16.26-5.89a19.54,19.54,0,0,1-6.07-14.62,21.16,21.16,0,0,1,6-15.27q6-6.23,16-6.23,9.67,0,15.65,5.87t6,16c0,.56,0,1.32,0,2.3h-27a10.46,10.46,0,0,0,1.35,5.66c.85,1.22,2.46,1.84,4.84,1.84Q196.56,387,197.47,382Zm-1.07-10.47c0-2.73-.57-4.56-1.64-5.5a5.79,5.79,0,0,0-4-1.41q-5.62,0-5.62,6.91Z"/><path class="cls-13" d="M259.12,396.49H244.05a26.79,26.79,0,0,1-.56-5.63q-4.28,6.47-13,6.46-7.14,0-10.69-3.65a11.64,11.64,0,0,1-3.55-8.37q0-6.39,5.81-10.33t20.61-4.74v-.92c0-1.77-.41-2.94-1.21-3.53a6.06,6.06,0,0,0-3.55-.87q-5.48,0-6.11,4.4L217.39,368q3.09-12.66,21.06-12.66a38.6,38.6,0,0,1,9,1,15.06,15.06,0,0,1,6.47,3,10.55,10.55,0,0,1,3.19,4.36q.81,2.29.81,8.85v16.11A22.27,22.27,0,0,0,259.12,396.49ZM242.7,377.61q-10.12,1.06-10.12,6.46c0,2.44,1.34,3.65,4,3.65a6.49,6.49,0,0,0,4.32-1.5q1.78-1.52,1.79-6.67Z"/><path class="cls-13" d="M281.26,396.49H266.11V356.14h13.17v8.33q2.27-9.08,10.51-9.08a21.58,21.58,0,0,1,2.3.16v14.08a13.18,13.18,0,0,0-3-.39q-7.86,0-7.86,8.76Z"/><path class="cls-13" d="M321.41,380.22l13.49,1.16a18.1,18.1,0,0,1-5.93,11.5q-5,4.44-13.23,4.44-9.24,0-15-5.81T295,376.61q0-9.27,5.73-15.29t14.9-6q8.13,0,13.25,4.54a17.34,17.34,0,0,1,5.87,11.49l-13.84,1.15Q320,366.1,316,366.1a3.89,3.89,0,0,0-3.71,2.32q-1.17,2.32-1.17,8.08c0,3.3.39,5.75,1.17,7.33a4.15,4.15,0,0,0,4.06,2.39Q320.62,386.22,321.41,380.22Z"/><path class="cls-13" d="M380.21,396.49H364.38V372.21a10,10,0,0,0-.73-4.58,3,3,0,0,0-2.82-1.25,4.38,4.38,0,0,0-2.83,1,3.58,3.58,0,0,0-1.4,2,29.31,29.31,0,0,0-.2,4.33v22.81H340.57V342.34H356.4V360.9a13.45,13.45,0,0,1,11.19-5.59,14.52,14.52,0,0,1,6.13,1.21,10.33,10.33,0,0,1,4.07,3.11,11.29,11.29,0,0,1,1.92,3.69,31,31,0,0,1,.5,6.91Z"/><g class="cls-11"><path class="cls-10" d="M337.15,166.38l-17.77-18.8.34-12.06a2.72,2.72,0,1,0-5.43-.15l-.2,6.61-12.54-13.26a2.73,2.73,0,0,0-3.85-.11L260.06,164.2a2.72,2.72,0,1,0,3.74,4l35.67-33.73,33.73,35.66a2.72,2.72,0,1,0,3.95-3.73Z"/><path class="cls-10" d="M329.27,169.25l-28-29.65a2.72,2.72,0,0,0-3.84-.11h0l-29.65,28.09A2.68,2.68,0,0,0,267,169a6.36,6.36,0,0,0-.15,1.23l-.4,14.08A6.6,6.6,0,0,0,272.8,191l14.08.4a6.59,6.59,0,0,0,6.75-6.4l.3-10.34a4.42,4.42,0,1,1,8.83-.47,3.47,3.47,0,0,1,0,.72l-.29,10.34a6.61,6.61,0,0,0,6.39,6.77l14.08.4a6.58,6.58,0,0,0,6.76-6.4l.41-14.07a7.41,7.41,0,0,0-.1-1.24A2.63,2.63,0,0,0,329.27,169.25Z"/></g></g></g></svg>