<svg xmlns="http://www.w3.org/2000/svg" viewBox="0 0 660.13 565.79"><defs><style>.cls-1{isolation:isolate;}.cls-2{fill:#19afd8;opacity:0.28;}.cls-3{fill:#ebcbab;}.cls-4{fill:#575756;}.cls-5{fill:#272724;}.cls-6{fill:#f3d9bf;}.cls-7{fill:#17334d;}.cls-8{fill:#021327;}.cls-9{fill:#e5bf9a;}.cls-10{fill:#efefef;}.cls-11{fill:#393935;}.cls-12{fill:#6d6d6c;opacity:0.7;}.cls-12,.cls-15,.cls-20,.cls-29,.cls-31{mix-blend-mode:multiply;}.cls-13{fill:#b1844b;}.cls-14{fill:#895a37;}.cls-15{opacity:0.5;}.cls-16{fill:#946b42;}.cls-17{fill:#efd0b1;}.cls-18{fill:#dbb794;}.cls-19{fill:#9e6740;}.cls-20{fill:#ae7f4a;}.cls-20,.cls-29,.cls-31{opacity:0.4;}.cls-21{fill:#271700;}.cls-22{fill:#4a2f0b;}.cls-23{fill:#203640;}.cls-24{fill:#375666;}.cls-25{fill:#bbb8a7;}.cls-26{fill:#fff7dc;}.cls-27{fill:#004866;}.cls-28{fill:#016187;}.cls-29{fill:#e1a580;}.cls-30,.cls-31{fill:#e4bc86;}.cls-32{fill:#453627;}.cls-33{fill:#2c1e04;}.cls-34{fill:#474746;}.cls-35{fill:#373736;}.cls-36{fill:#20201e;}.cls-37{fill:#020200;}.cls-38{fill:#a0723b;}.cls-39{fill:#605f5e;}.cls-40{fill:#4c4c4b;}.cls-41{fill:#30302d;}.cls-42{fill:#797877;}.cls-43{fill:#8a8987;}.cls-44{fill:#2c4755;}</style></defs><title>img</title><g class="cls-1"><g id="Layer_2" data-name="Layer 2"><g id="Layer_1-2" data-name="Layer 1"><path class="cls-2" d="M112.46,211.4C136,126.79,194.62,68.34,268.61,52.64S539,145.1,556.49,178.25s30.53,101.2-14,161.39S191.85,445.19,211.91,378.89,88.91,296,112.46,211.4Z"/><path class="cls-2" d="M165.53,94.41C149.28,123,122.7,138.86,94.42,137.83S4.69,79.68,1.36,66.06-.52,26.56,21.1,8.76,158,2.34,144.66,24.57,181.77,65.84,165.53,94.41Z"/><path class="cls-2" d="M641.48,73c-4.34,15.61-15.14,26.38-28.79,29.28s-49.85-17-53.08-23.16a28.68,28.68,0,0,1,2.58-29.76c8.2-11.1,64.66-19.46,61-7.24S645.83,57.43,641.48,73Z"/><path class="cls-3" d="M50,519.34a.13.13,0,0,0,0-.2c1.44-1.56,2.17-3.73,3.43-5.45,1.62-2.2,2.92-4.72,4.46-7,2.75-4.08,5.5-8.14,7.93-12.42,2.27-4,3.9-7.87,4-12.52a16.44,16.44,0,0,0-1-6,5.31,5.31,0,0,1-.14-2.84c0-.32,0-.64-.07-1v0c-.36-2.72-3.32-4.59-5.67-5.64a5.21,5.21,0,0,0-4.51,0c-.16.09-.37.22-.6.38-.59.46-1.14,1-1.68,1.47a12.17,12.17,0,0,1-1.5,2A17.93,17.93,0,0,1,50.3,474a59.74,59.74,0,0,1-6.18,3.62l-1.18.57c-5.22,2.62-9.77,6-14.68,9.1-2.8,1.79-5.72,3.86-9.06,4.43s-7-.33-10.42-.4a25.84,25.84,0,0,0-7.09.34c-3.65,1-.31,6.53,1.42,7.89,8.07,6.31,16.51,10.38,23.78,9.65,3.13-.31,5.77-2.57,8.49-4.12a54.14,54.14,0,0,1,6.54-3.3l.53-.3A22.39,22.39,0,0,1,49.72,499a9.42,9.42,0,0,1,3.62.18c.61,2.12-.58,5.1-1.11,7.23a62.48,62.48,0,0,1-2.65,7.89c-.39,1-2.38,3.89-1.63,5C48.55,520.06,49.21,520.05,50,519.34Z"/><path class="cls-4" d="M50,519.34a.13.13,0,0,0,0-.2c1.44-1.56,2.17-3.73,3.43-5.45,1.62-2.2,2.92-4.72,4.46-7,2.75-4.08,5.5-8.14,7.93-12.42,2.27-4,3.9-7.87,4-12.52a16.44,16.44,0,0,0-1-6,5.05,5.05,0,0,1-.26-1.64h0c-3.48,9.76-30,21.95-40,24.4-5.67,1.38-13.1-6.63-13.1-6.63h0c-2.25-.12-4.53-.5-6.71-.55a25.84,25.84,0,0,0-7.09.34c-3.65,1-.31,6.53,1.42,7.89,8.07,6.31,16.51,10.38,23.78,9.65,3.13-.31,5.77-2.57,8.49-4.12a54.14,54.14,0,0,1,6.54-3.3l.53-.3A22.39,22.39,0,0,1,49.72,499a9.42,9.42,0,0,1,3.62.18c.61,2.12-.58,5.1-1.11,7.23a62.48,62.48,0,0,1-2.65,7.89c-.39,1-2.38,3.89-1.63,5C48.55,520.06,49.21,520.05,50,519.34Z"/><path class="cls-5" d="M50,519.34a.13.13,0,0,0,0-.2c1.44-1.56,2.17-3.73,3.43-5.45,1.62-2.2,2.92-4.72,4.46-7,2.75-4.08,5.5-8.14,7.93-12.42.64-1.12,1.21-2.23,1.73-3.35-4.22,3.37-9.46,5.25-15,6.28a56.83,56.83,0,0,0-13.65,3.9c-3.6,1.67-7,4-10.76,5.22-6.89,2.25-12.69-.61-18.67-3.94-3.13-1.74-6.73-3.8-8.92-6.67a10.36,10.36,0,0,0,2.62,3.83c8.07,6.31,16.51,10.38,23.78,9.65,3.13-.31,5.77-2.57,8.49-4.12a54.14,54.14,0,0,1,6.54-3.3l.53-.3A22.39,22.39,0,0,1,49.72,499a9.42,9.42,0,0,1,3.62.18c.61,2.12-.58,5.1-1.11,7.23a62.48,62.48,0,0,1-2.65,7.89c-.39,1-2.38,3.89-1.63,5C48.55,520.06,49.21,520.05,50,519.34Z"/><path class="cls-3" d="M128.26,352.65c.47-2.29,75.37,57.51,139.16,23.76L253.3,339c-12.64,16-122.9-58.1-147.44-6.47-17.33,36.43,3.68-3.45-50.21,137.92-.62,1.65,7.16,5.76,11.92,3.88,5.28-9.26,10.8-20.93,16.13-30.16,10-17.34,25.89-38.26,33.49-56.85C117.75,385.92,125.54,365.7,128.26,352.65Z"/><path class="cls-6" d="M170.58,556.83a.15.15,0,0,0-.1-.19c.37-2.08-.18-4.31,0-6.43.17-2.72-.1-5.55,0-8.29.12-4.92.23-9.82,0-14.74-.26-4.59-1-8.73-3.36-12.72a16.39,16.39,0,0,0-4.09-4.53,5.36,5.36,0,0,1-1.65-2.31l-.58-.78v0c-1.77-2.11-5.27-2.07-7.81-1.69a5.23,5.23,0,0,0-3.78,2.47c-.08.17-.19.39-.29.65a20.27,20.27,0,0,0-.62,2.15A12.92,12.92,0,0,1,148,513a17.69,17.69,0,0,1-1.63,5.53,60.78,60.78,0,0,1-3.24,6.39l-.69,1.12c-3,5-5,10.31-7.43,15.59-1.4,3-2.73,6.33-5.23,8.62s-6.09,3.51-9,5.29a25.66,25.66,0,0,0-5.79,4.12c-2.54,2.77,3.27,5.66,5.46,5.87,10.21.95,19.51-.19,25.23-4.73,2.47-2,3.47-5.28,4.92-8.06a54,54,0,0,1,3.72-6.3c.1-.18.19-.36.28-.54a22.4,22.4,0,0,1,4.76-6.06,9.11,9.11,0,0,1,3.14-1.8c1.65,1.45,2.26,4.6,3,6.69a63.79,63.79,0,0,1,2,8.06c.2,1,.1,4.56,1.31,5C169.79,558.19,170.34,557.82,170.58,556.83Z"/><path class="cls-4" d="M170.58,556.83a.15.15,0,0,0-.1-.19c.37-2.08-.18-4.31,0-6.43.17-2.72-.1-5.55,0-8.29.12-4.92.23-9.82,0-14.74-.26-4.59-1-8.73-3.36-12.72a16.39,16.39,0,0,0-4.09-4.53,5.16,5.16,0,0,1-1.11-1.24h0c2.35,10.1-13.37,34.68-20.45,42.13-4,4.23-14.61,1.51-14.61,1.51h0c-2,1.11-4.09,2-6,3.16a25.66,25.66,0,0,0-5.79,4.12c-2.54,2.77,3.27,5.66,5.46,5.87,10.21.95,19.51-.19,25.23-4.73,2.47-2,3.47-5.28,4.92-8.06a54,54,0,0,1,3.72-6.3c.1-.18.19-.36.28-.54a22.4,22.4,0,0,1,4.76-6.06,9.11,9.11,0,0,1,3.14-1.8c1.65,1.45,2.26,4.6,3,6.69a63.79,63.79,0,0,1,2,8.06c.2,1,.1,4.56,1.31,5C169.79,558.19,170.34,557.82,170.58,556.83Z"/><path class="cls-5" d="M170.58,556.83a.15.15,0,0,0-.1-.19c.37-2.08-.18-4.31,0-6.43.17-2.72-.1-5.55,0-8.29.12-4.92.23-9.82,0-14.74-.08-1.28-.19-2.53-.36-3.75-1.73,5.11-5.13,9.52-9.25,13.4a56.65,56.65,0,0,0-9.37,10.66c-2.13,3.35-3.72,7.12-6.24,10.2-4.58,5.61-11,6.34-17.84,6.78-3.57.22-7.72.43-11.11-.8a10.29,10.29,0,0,0,4.27,1.81c10.21.95,19.51-.19,25.23-4.73,2.47-2,3.47-5.28,4.92-8.06a54,54,0,0,1,3.72-6.3c.1-.18.19-.36.28-.54a22.4,22.4,0,0,1,4.76-6.06,9.11,9.11,0,0,1,3.14-1.8c1.65,1.45,2.26,4.6,3,6.69a63.79,63.79,0,0,1,2,8.06c.2,1,.1,4.56,1.31,5C169.79,558.19,170.34,557.82,170.58,556.83Z"/><path class="cls-6" d="M149.69,382.88c-1.06-2.09,125.54-10.18,127.05-28.59L225,327.78c-2,20.27-118.74-8-108.26,48.16,7.22,38.72,3.2,8.82,32.27,136.65.39,1.71,9.13,1,12.12-3.18-.56-10.64-2.23-23.45-2.72-34.09C157.44,455.3,157.42,398.26,149.69,382.88Z"/><path class="cls-3" d="M253.3,339c-11.41,14.42-102.32-44.51-138-18.17-3.61,12.58,3.7,23.71,13.44,31.89,6.57,2.76,77.68,56,138.66,23.71Z"/><path class="cls-7" d="M277.37,321.61s-65.66-2.85-64.56,10.9c0,0-49.72-21.5-79.21-19.07-.23,9.87-1.73,19.8-.07,29.6A165.31,165.31,0,0,0,138,363.27c.19.41.37.83.57,1.24,7.41,15.2,17.77,30.1,19.67,47,13.05-13.3,42.19-25,60-24C286.19,391.25,289.26,349.67,277.37,321.61Z"/><path class="cls-8" d="M192.07,372c-14.93-4.91-29.44-10.65-43.85-16.9-4.34-1.88-9.11-3.73-13.62-6a142.74,142.74,0,0,0,3.36,14.2c.19.4.37.8.56,1.19,7.41,15.2,17.77,30.1,19.67,47,13.05-13.3,42.19-25,60-24,17,.94,30-.95,39.76-4.75C235.82,385.93,212.81,378.83,192.07,372Z"/><path class="cls-9" d="M260.59,192.63c.74,5.59-27.43,14.29-27.93,11.28,0,0,0-10.37-7.46-31.41-1.74-4.9,3.51-8.24,9.25-11.25l8.45-6c5.15-3.12,5.92-1.13,11.3,16.76Z"/><path class="cls-3" d="M284.06,269.82c-.74-10-17.61-4.62-22.23,2.53l-2.34,19.37c-2.82,29.25-5.24,41.75-6.19,47.26h0a22.45,22.45,0,0,0,3,1.42,63.75,63.75,0,0,1,7.45-.35c1.35-1.94,2.81-5.12,4.93-10.52a314,314,0,0,0,10-30.19C279.69,295.84,286.6,278.14,284.06,269.82Z"/><path class="cls-3" d="M264.31,280.81l-8-27.65c-.07-4.57-.45-48.4-.51-61.06,0,0,12.7,1.49,15.68,11.88l12.91,68.2C282.46,281.74,267.25,283.75,264.31,280.81Z"/><path class="cls-10" d="M242.73,191.12s-5,2.76-13.84,10.25c-10.11,8.59-30,24.65-24.27,43.25l6.46,21.07s.08,18.87-.35,31.66c-.56,16.28.05,31.35,1.18,36.72,2.53,12,22.9,10.36,49.26,8.27,0,0,20.14-2.41,19.53-9.82-1.2-14.31-9.33-25.35-13.37-35.17-3.48-8.47,4.43-34.13,7-44.88,5.12-21.1-.07-49.67-13.26-64.65C256.09,182.13,253.06,186.52,242.73,191.12Z"/><path class="cls-11" d="M212.12,334.86c.33-.42.67-.83,1-1.22,2.25-2.54,4.55-5.05,6.93-7.48,5.5-5.63,10.7-11.51,15.79-17.51,4.69-5.52,9.92-10.5,11.89-17.68,1.79-6.49,2.47-13.28,3.75-19.88.63-3.28,1.06-7.18,2.71-10.14,1.52-2.7,3.83-4.83,5.33-7.55a39.21,39.21,0,0,0,5-20.51c-.2-6-.1-12.58-2.49-18.26-1.44-3.41-8-12.7-12.6-10.15a40.48,40.48,0,0,1,2.83,3.51c1.36,2.33,1.16,5.32.94,7.88-.65,7.7-2.71,15.09-4.5,22.58-1.84,7.72-3.39,15.5-5.09,23.25-1.6,7.31-3.4,14.62-5.71,21.74a57.41,57.41,0,0,1-9.29,17.6c-4.51,5.91-8.87,11.94-13.32,17.9-1.48,2-2.94,3.94-4.39,5.93a70.11,70.11,0,0,0,1,9.2C212,334.34,212.05,334.6,212.12,334.86Z"/><path class="cls-3" d="M247,203.6s-10-1.67-18,19-2.51,34,11.08,36.33,24-12.7,22.27-32.67C260.6,206.76,254.75,204.53,247,203.6Z"/><path class="cls-12" d="M267.33,297.35c-3.48-8.47,4.43-34.13,7-44.88,5.12-21.1-.07-49.67-13.26-64.65-2.17-2.46-4-3-6.15-2.52-.36,3.33-.83,6.66-1.3,10-1.1,7.71-1.41,15.4-2.14,23.13a413.2,413.2,0,0,1-7.41,46.13c-1.62,7.76-2.93,15.81-5.31,23.38-1.73,5.51-4.52,9.7-7.81,14.39-6.57,9.38-12.63,19.14-19.61,28.22.16,1.43.34,2.63.53,3.54,2.53,12,22.9,10.36,49.26,8.27,0,0,20.14-2.41,19.53-9.82C279.5,318.21,271.37,307.17,267.33,297.35Z"/><path class="cls-6" d="M220.8,293l8.28-62.64c1.65-4.27,5-25.85,17-25.85,0,0,16.23-2.93,12.71,20L244.34,288.9C239,297,221.51,301,220.8,293Z"/><path class="cls-6" d="M244.34,288.9c-.76,8.66-13.79,22.5-16,25.4a309,309,0,0,1-20.6,24.24c-6.93,7.35-11.61,11.83-13.28,12.1l-5.14-4.13c-3.4-2.57-.82,1.26,24-46.48l9.41-17.1C229.73,278,247.4,279.33,244.34,288.9Z"/><path class="cls-6" d="M197.54,341.26c-1.9-2.13-3.29-2.71-5.71-2.22-7.15,5.64-14.69,12.15-20.51,19.12-.36.69-.7,1.39-1,2.11l-.48,1.88c-.63,2.4-1.5,4.75-2,7.19a10.1,10.1,0,0,0,0,3.8.43.43,0,0,1,0,.07,17.79,17.79,0,0,0,2.92,4.78,5.19,5.19,0,0,0,3.83,2c.72.12,1.13.76,1.62,1.34a4.64,4.64,0,0,0,2.22.54,6.06,6.06,0,0,1,2.32-.31,11.07,11.07,0,0,1,1.39.29c.85,0,1.7,0,2.55-.06a4.42,4.42,0,0,0,1-.36,2.27,2.27,0,0,1,1.09-.41,5.82,5.82,0,0,0,2.31-.3,5.22,5.22,0,0,0,.89-1.05,20.23,20.23,0,0,0,2-4.5c.05-.23.1-.47.14-.7.19-1,.79-4.66-1.28-4.25a1.49,1.49,0,0,0-.93.83c.13-.27.25-.55.4-.83a48.67,48.67,0,0,1,4.47-6.05c.59-.68,1.17-1.38,1.72-2.1a38.37,38.37,0,0,0,2.65-9.93C199.61,348.74,200,344.05,197.54,341.26Zm-24.33,30.88s.4,3.16.35,3.08-.74-3-.75-3.22a36.65,36.65,0,0,1,1.41-4.93c.17-.44.55-1,.84-1.66A48,48,0,0,0,173.21,372.14Z"/><path class="cls-13" d="M173.25,362.74a3.28,3.28,0,0,1-1.43-.56,1.38,1.38,0,0,1-.5-1.2s0,0,0,0a1.48,1.48,0,0,0,.35,1.35,2.57,2.57,0,0,0,.85.56,1.11,1.11,0,0,0,.76,0C173.34,362.9,173.37,362.75,173.25,362.74Z"/><path class="cls-13" d="M179.48,365.51a7.8,7.8,0,0,1-1.27-.12,2.76,2.76,0,0,1-1.1-.88h0a2.71,2.71,0,0,0,1,1.09,2.13,2.13,0,0,0,1.39.08A.09.09,0,0,0,179.48,365.51Z"/><path class="cls-13" d="M188.65,374.21s0,0,0,0c.41-1.14,1-2.21,1.53-3.41,0,0,0-.06-.06,0-1,2-2.19,3.82-1.86,6.1h0a6.2,6.2,0,0,1,.36-2.58,4,4,0,0,0,.31.7c.12.22.06.63.23.82,0,0,.08,0,.06-.05-.15-.2,0-.5-.12-.72S188.82,374.48,188.65,374.21Z"/><path class="cls-13" d="M187.09,381c-1.26-.36-2.13-2.11-2.8-3.23-1.48-2.5-1.24-5-.67-7.83h0c-.55,2.47-1,5,.18,7.23.67,1.28,1.76,3.63,3.27,3.88C187.09,381,187.11,381,187.09,381Z"/><path class="cls-13" d="M182.21,381.74c-1.58,0-2.9-3.08-3.56-4.23-1.27-2.18-1-4.12-.81-6.49,0,0,0,0,0,0-.29,2.84-.41,4.62,1,7.13.69,1.19,1.65,3.66,3.34,3.66C182.24,381.82,182.26,381.74,182.21,381.74Z"/><path class="cls-13" d="M176.6,381.41c-1.18-.88-1.82-2.9-2.27-4.22s-.71-2.67-1-4c0,0,0,0,0,0,.54,2.51,1,6.6,3.28,8.27C176.59,381.5,176.63,381.44,176.6,381.41Z"/><path class="cls-14" d="M311.75,129.4a90.12,90.12,0,0,0-8-26.58c-5-10.2-16.07-19.67-27.52-17,.44.53.86,1.07,1.26,1.61,3.86,3.94,6.2,9.51,7.81,14.61a69.39,69.39,0,0,1,3.29,24c-.48,9.44-3.45,18.09-7.7,26.46-.81,1.59-1.64,3.16-2.47,4.72-1,2.85-1.94,5.72-2.76,8.64-.38,1.34-.73,2.69-1.06,4.06a58.58,58.58,0,0,0-.47,6.37A56.84,56.84,0,0,0,278.29,198a.09.09,0,0,0,.1.07,1.36,1.36,0,0,0,.25.46s.05,0,.05,0l0-.38s0,0,0,0c-2-11,1.28-15.4,1.15-17,.56,4.82-3.17,6.73.93,27.1,1.05,5.21,1.31,11.6-.53,16.52-.05.12,0,.21.13.17,1.93-.88,2.56-3.53,3.28-5.65.06-.18.11-.38.17-.57.9,7.5,3.05,14.17,7.19,20,.16.22.42-.09.31-.32-2.53-5.23-3.14-11.74-3.12-18,.12,1,.26,2,.4,3a36.94,36.94,0,0,0,3.37,10c2,4.32,4.54,11,2.85,15.9-.05.14.09.21.16.1a42.11,42.11,0,0,0,5.32-17.65,63.25,63.25,0,0,0,1.6,7c.07.23.26.17.37,0,1.43-2-.17-11.49,0-14.22a104,104,0,0,1,2.31-14.68c1.93-8.75,4.3-17.36,5.69-26.22C312.92,166.45,314.45,147.37,311.75,129.4Z"/><g class="cls-15"><path class="cls-16" d="M310.59,123c0-.06,0-.12,0-.18.44,2,.81,4.07,1.13,6.14A48.59,48.59,0,0,0,310.59,123Z"/><path class="cls-16" d="M311.67,128.91c1.71,13.32,1.55,38.21-5.23,49.51-8,13.33-7.83,22.66-7.83,22.66-2.17-11.16,4.83-20.5,8.49-36.16s-.49-24.67-.49-24.67c1.16,5.67.83,13.83-7.75,36.5s-3.58,31.67-.92,42.17-1.33,16.16-1.33,16.16c.5-2.83,1-5.83-3-10.66s-4.87-17.5-4.87-17.5c.16,10.5-3,15-3,15,.49-4.53,2-12.67-2.17-29.34a47.38,47.38,0,0,1,2.5-30.09c-11,13.57-9.67,24.09-9.67,24.09-1.62-7.15,1.5-16.16,7.5-29.91s9.84-20.09,9.71-38.25-8.54-27.67-10.87-29.84,3-2.35,3-2.35a18,18,0,0,0-9.54-.39c.44.53.86,1.07,1.26,1.61,3.86,3.94,6.2,9.51,7.81,14.61a69.39,69.39,0,0,1,3.29,24c-.48,9.44-3.45,18.09-7.7,26.46-.81,1.59-1.64,3.16-2.47,4.72-1,2.85-1.94,5.72-2.76,8.64-.38,1.34-.73,2.69-1.06,4.06a58.58,58.58,0,0,0-.47,6.37A56.84,56.84,0,0,0,278.29,198a.09.09,0,0,0,.1.07,1.36,1.36,0,0,0,.25.46s.05,0,.05,0l0-.38s0,0,0,0c-2-11,1.28-15.4,1.15-17,.56,4.82-3.17,6.73.93,27.1,1.05,5.21,1.31,11.6-.53,16.52-.05.12,0,.21.13.17,1.93-.88,2.56-3.53,3.28-5.65.06-.18.11-.38.17-.57.9,7.5,3.05,14.17,7.19,20,.16.22.42-.09.31-.32-2.53-5.23-3.14-11.74-3.12-18,.12,1,.26,2,.4,3a36.94,36.94,0,0,0,3.37,10c2,4.32,4.54,11,2.85,15.9-.05.14.09.21.16.1a42.11,42.11,0,0,0,5.32-17.65,63.25,63.25,0,0,0,1.6,7c.07.23.26.17.37,0,1.43-2-.17-11.49,0-14.22a104,104,0,0,1,2.31-14.68c1.93-8.75,4.3-17.36,5.69-26.22,2.68-17.15,4.21-36.23,1.51-54.2C311.73,129.24,311.7,129.07,311.67,128.91Z"/><path class="cls-16" d="M310.38,122c0,.24.1.49.16.75C310.49,122.52,310.43,122.27,310.38,122Z"/></g><path class="cls-9" d="M284.55,141.55c3.8-5.51,6.48-11,6.66-18.08a50.6,50.6,0,0,0-4-21.52c-4.74-10.66-13.91-17.65-25-20.85-13.15-3.8-28.09-3.58-40.51,2.65-.47.24-.94.5-1.41.75-9.61,16,3.95,45.43,7.2,54l12.05,28.85-11,10.19,25-7.06s2.44-4.05,20.85-19.63A127.3,127.3,0,0,0,284.55,141.55Z"/><path class="cls-17" d="M221.69,83.75a41.65,41.65,0,0,0-14.2,10.93c-4.09,5.17-5.82,10.95-6.8,17.38-.61,3.94.11,6.58.61,10.55.31,2.48,4.73,8.18,3.63,10.54-2.09,4.51-1.17,3.93-4.44,9-2.59,4.06-4.33,6-3.46,7.09,2.57,3.13,7.15,3,7.58,3a5.84,5.84,0,0,1-.35,2.24c-.29.91-1.52,1.89-1.17,2.9.64,1.85,3,1.86,4.23,3.21.15.07-2.31,3.3-1.48,4.88.5.95,2,1.21,2.92,2.61.08.36.11,3.56.38,6.68a10.12,10.12,0,0,0,2.12,4.36c2.25,2.28,5.5,1.9,8.5,1.54,8.22-1.74,19-8.51,22.45-12.78s2.91-3.34,7.1-16l6.34-72.4C244.25,77.54,232.09,78.54,221.69,83.75Z"/><path class="cls-18" d="M205.28,151a10,10,0,0,1-3,.07,14.88,14.88,0,0,1-5.38-2.17.72.72,0,0,0,.12.39c2.27,2.77,6.11,3,7.27,3a14.19,14.19,0,0,0,2.6-1.34A14.59,14.59,0,0,1,205.28,151Z"/><path class="cls-18" d="M205.42,159.48c-.22,0,2,1.05,1.81,1.44s-.87,1.57-.87,1.57a16.42,16.42,0,0,1,5.63-1.24C214.37,161.36,206.77,159.49,205.42,159.48Z"/><path class="cls-19" d="M287.11,97.78A37.66,37.66,0,0,0,279,89.23c-9.16-13.94-30.86-14.37-45.29-10.59A100.15,100.15,0,0,0,216.23,85C200,92.76,187.42,109.75,197,127.74a16.52,16.52,0,0,0,3.8,4.28c.58.51,1.2,1.1,1.87,1.61.06.05.11.12.17.18a.61.61,0,0,0,.23.11,5.3,5.3,0,0,0,2.13.92,11.79,11.79,0,0,1-1.8-5.5l0-.16a.38.38,0,0,1-.08-.31c-.21-.9-.42-1.86-.53-2.42a26.59,26.59,0,0,0,13.28,5.9l.05,0q1.13.18,2.25.33a31.43,31.43,0,0,1-5-4.4.3.3,0,0,1-.08-.17l-.21-.21a36.69,36.69,0,0,1-6.21-8.28l-.54-1c.81.69,4.3,3.94,5.25,4.89,5.5,5.54,11.43,10.36,15.22,17.32s5.67,15.6,5.94,23.57c.26,7.64-2.41,14.38-6,20.88,1.28-1.31,2.49-2.7,3.66-4.12.82-1,1.65-2,2.43-3,.52-.79,1-1.59,1.48-2.43a37.45,37.45,0,0,0,4.13-14.22,45.45,45.45,0,0,0-.18-10.44c.32,1,.6,1.94.83,2.91a27.67,27.67,0,0,1-.94,15.1,2.85,2.85,0,0,0,.31-.12,25.92,25.92,0,0,0,2.61-2.29,28.68,28.68,0,0,0,1.8-3.27,30,30,0,0,0,1.37-3.41c0,.35,0,.7.07,1a49.19,49.19,0,0,0,.83-16.44c.38,2,.73,4,1,5.37,1.19-3.4,3.6-8.9,3-12.47-.08-.44,4.7-4.48,4.94-3.91,2.55,6.26,6.24,13-1.35,23.65-5,7,4,8.7.87,13.27,8.4-5,11.28-7.54,18.71-13.9C280,150,287,142.21,290,132.32,293.54,120.61,291.78,108.66,287.11,97.78Z"/><path class="cls-20" d="M272.61,144.21c-6.05,3.42-2.5-2-2.5-2,15-17.39,11.67-28.62,11.67-28.62-1.5,10.34-9,19-12,20.76s-1.84,0-1.84,0c18.17-24.42,11.84-40.59,11.84-40.59.83,9.5-12.5,28.17-17.61,29.49s0-2.49,0-2.49c12.41-13.38,13.61-27.17,13.61-27.17-5.34,19.17-33,39.17-33,39.17a28.68,28.68,0,0,0-11.84-22.83c12,12.83,7.17,32.28,7.17,32.28-2.33-10.72-12.5-19-12.5-19,13.83,21.83,8.67,39.25,8.67,39.25.83-11.27-3.84-28.66-15.67-36.41S203.78,111,203.78,111c-1.84,9.92,5.16,17.08,5.16,17.08-10.83-5.35-9.66-18.83-9.66-18.83a19.52,19.52,0,0,0,1.66,21.08c-2.17-2-7-8.33-5.08-21.66,1.59-11.1,15.83-20.81,20.56-23.75l-.19.08C200,92.76,187.42,109.75,197,127.74a16.52,16.52,0,0,0,3.8,4.28c.58.51,1.2,1.1,1.87,1.61.06.05.11.12.17.18a.61.61,0,0,0,.23.11,5.3,5.3,0,0,0,2.13.92,11.79,11.79,0,0,1-1.8-5.5l0-.16a.38.38,0,0,1-.08-.31c-.21-.9-.42-1.86-.53-2.42a26.59,26.59,0,0,0,13.28,5.9l.05,0q1.13.18,2.25.33a31.43,31.43,0,0,1-5-4.4.3.3,0,0,1-.08-.17l-.21-.21a36.69,36.69,0,0,1-6.21-8.28l-.54-1c.81.69,4.3,3.94,5.25,4.89,5.5,5.54,11.43,10.36,15.22,17.32s5.67,15.6,5.94,23.57c.26,7.64-2.41,14.38-6,20.88,1.28-1.31,2.49-2.7,3.66-4.12.82-1,1.65-2,2.43-3,.52-.79,1-1.59,1.48-2.43a37.45,37.45,0,0,0,4.13-14.22,45.45,45.45,0,0,0-.18-10.44c.32,1,.6,1.94.83,2.91a27.67,27.67,0,0,1-.94,15.1,2.85,2.85,0,0,0,.31-.12,25.92,25.92,0,0,0,2.61-2.29,28.68,28.68,0,0,0,1.8-3.27,30,30,0,0,0,1.37-3.41c0,.35,0,.7.07,1a49.19,49.19,0,0,0,.83-16.44c.38,2,.73,4,1,5.37,1.19-3.4,3.6-8.9,3-12.47-.08-.44,4.7-4.48,4.94-3.91,2.55,6.26,6.24,13-1.35,23.65-5,7,4,8.7.87,13.27,8.4-5,11.28-7.54,18.71-13.9C280,150,287,142.21,290,132.32c2.84-9.39,2.27-18.94-.49-28C289.23,108,294.65,131.76,272.61,144.21Z"/><path class="cls-17" d="M257.53,132.24a6.24,6.24,0,0,0-2.84-.47,7.61,7.61,0,0,0-4.92,2.36c-3.21,3.31-4.1,10.05-3.76,14.72.17,2.28.4,5.43,2,7.07,2.67,2.75,6.1-2.87,8.06-4.92,3.94-4.12,5.71-4.94,6.05-9.41C262.58,135.58,259.81,133.19,257.53,132.24Z"/><path class="cls-9" d="M256.5,143.18c.05-2.65-.84-5.56-4-5.07-3.42.52-2.9,3.76-2.66,6.26.09.91.22,2.72-.46,3.49a4.22,4.22,0,0,0-1,1.9c-.18,1.48.84,1.74,2.05,1.55,3-.46,5.07-3,5.74-5.82A10.05,10.05,0,0,0,256.5,143.18Z"/><path class="cls-21" d="M325.09,234.62s-32.19,26.29-28.34,85.29Z"/><path class="cls-22" d="M276.59,400.36h16s-3,71.11,16.48,155h-5.5S281.2,473.55,276.59,400.36Z"/><path class="cls-22" d="M208.36,400.36h-16s3,71.11-16.48,155h5.5S203.75,473.55,208.36,400.36Z"/><path class="cls-22" d="M296.09,500.57c0,2.9-1.62,5.25-3.61,5.25h-100c-2,0-3.61-2.35-3.61-5.25h0c0-2.9,1.62-5.25,3.61-5.25h100c2,0,3.61,2.35,3.61,5.25Z"/><path class="cls-21" d="M193.08,500.57a2.08,2.08,0,1,1-2.08-2.08A2.08,2.08,0,0,1,193.08,500.57Z"/><path class="cls-21" d="M296.09,500.57a2.08,2.08,0,1,1-2.08-2.08A2.08,2.08,0,0,1,296.09,500.57Z"/><path class="cls-22" d="M287.52,414.14a3.06,3.06,0,0,1-3,3.08h-84a3.06,3.06,0,0,1-3-3.08h0a3.06,3.06,0,0,1,3-3.08h84a3.06,3.06,0,0,1,3,3.08Z"/><path class="cls-21" d="M294.46,401.06c2.66,0,4.82-1.89,4.82-4.22h0c0-2.33-2.16-4.22-4.82-4.22H191.57c-2.66,0-4.82,1.89-4.82,4.22h0c0,2.33,2.16,4.22,4.82,4.22Z"/><path class="cls-22" d="M303.61,389.71c0,3.89-2.36,7.05-5.26,7.05H185.9c-2.91,0-5.26-3.16-5.26-7.05h0c0-3.89,2.35-7,5.26-7H298.35c2.9,0,5.26,3.15,5.26,7Z"/><path class="cls-22" d="M278.18,390.38l15.91,1.85s5.53-73.81,35-158.24l-5.46-.63S291.53,315.3,278.18,390.38Z"/><path class="cls-23" d="M483.3,484.33a30.9,30.9,0,0,1,6.51-7.75c1.27-1,2.58-1.9,3.79-3,2.75,1.55,5.5,3.12,8.13,4.87a127.3,127.3,0,0,1,10.74,8.19c1.93,1.6,3.82,3.44,5.86,5l0,.22a13.86,13.86,0,0,0,3.72,7.2,122.06,122.06,0,0,0,11.3,11.1c3.87,3.44,8.4,5.51,12.76,8.21,3.45,2.13,7.14,6.05,8.22,10.09.63,2.38,1,9.07-.69,10.26-3.68,1.86-8.51,2.62-20.43-.61-5.46-1.48-19.21-7.79-24.22-11.51-6.21-4.61-34.64-22-32.54-28.91A69.93,69.93,0,0,1,483.3,484.33Z"/><path class="cls-24" d="M489.74,498.23a48.57,48.57,0,0,1-.83,6.8c-.18,1-.62,4.62-1.63,6.19-6.56-5.21-11.74-10.4-10.8-13.48a69.93,69.93,0,0,1,6.82-13.41c.59-.9,1.19-1.79,1.82-2.66C488.54,486.32,490,493.07,489.74,498.23Z"/><path class="cls-25" d="M533.47,515.15c.69-1.07,1.39-2.13,2.11-3.18,3.33,2.45,7,4.25,10.56,6.45s7.14,6.05,8.22,10.09c.63,2.38,1,9.07-.69,10.26-3.68,1.86-8.51,2.62-20.43-.61a65.1,65.1,0,0,1-7.41-2.75C524.18,531.56,531.88,517.67,533.47,515.15Z"/><path class="cls-25" d="M479.1,499.39a99.35,99.35,0,0,0,9.22,9.47c4,3.37,8.41,6.28,12.7,9.23a112,112,0,0,0,12.27,7.56c8.15,4.19,17.11,8.12,26.09,10.1,4.45,1,11,2.26,15.43-.17-.15,1.5-.49,2.74-1.14,3.19-3.68,1.86-8.51,2.62-20.43-.61-5.46-1.48-19.21-7.79-24.22-11.51-6.21-4.61-34.64-22-32.54-28.91.1-.32.23-.65.35-1C477.57,497.65,478.32,498.53,479.1,499.39Z"/><path class="cls-24" d="M508.24,495.5c-.83-2.26-1-4.78.43-6.74,1-1.42,3.85-.72,5.12-.22,1.83.71,3.59,1.61,4.47,3.43,0,.08,0,.12-.09,0-1.52-2.55-7.38-5.09-9.51-1.94-1.17,1.74-.66,4.49.24,6.6,2,3.52,5.5,5.81,8.47,8.51,1.74,1.59,3.48,3.21,5.2,4.83.66.63,1.3,1.28,1.95,1.92.4.41,1.88,1.92,2.13,2.27a36.51,36.51,0,0,1-3-2.54c-.22-.23-.42-.46-.63-.65-2.29-2.19-4.63-4.42-7-6.48-3-2.53-6.54-5.05-7.81-8.92A.09.09,0,0,1,508.24,495.5Z"/><path class="cls-26" d="M508.3,497.8c.76-2.37,3.91-4,6.17-4.63a5.34,5.34,0,0,1,.67-.14c1.33-.39,3.1-.84,3.87.13.14.17.15.53,0,.63,0,0,0,0,0,.09s0,0,0,0l0,0s0,0,0,0l-.09,0s0,0-.06,0h0a.39.39,0,0,1-.19-.1,1.33,1.33,0,0,0-.74,0c-.34.05-.66.11-1,.18a11.94,11.94,0,0,0-2.81.89,20.81,20.81,0,0,0-2.35,1.27,17.32,17.32,0,0,1,6.31.18c.68.11,2.93.43,3.12,1.19a.91.91,0,0,1,0,.59c0,.05,0,.09,0,.13a6,6,0,0,1-.33,1.1c-.08.37-.2.74-.3,1.05a8.88,8.88,0,0,1-.87,1.84,29.11,29.11,0,0,1,5.72.2,3.58,3.58,0,0,1,.66,0,.65.65,0,0,1,.73.25.53.53,0,0,1,.23.24.9.9,0,0,1,.22,1,8.28,8.28,0,0,1-.05,3.22,23.54,23.54,0,0,1-.74,3.43c.53-.47,1.08-.9,1.59-1.3a9.56,9.56,0,0,1,1.72-.95c1.06-.69,2.06-.93,2.37.26a.47.47,0,0,1-.2.55c-.84.56-1.77.86-2.61,1.45-1.19.84-2.45,1.57-3.63,2.46a.46.46,0,0,1-.63,0,1.1,1.1,0,0,1-1.16-.76c0-2.13,1.23-4.45,1.2-6.57l0-.12c.09-.4.16-.81.27-1.21a63.83,63.83,0,0,0-6.31,1l-.39.06c-.94.57-2.48,1-2.51-.56a4.14,4.14,0,0,1,1.07-2.2c.55-.81,1.09-1.6,1.62-2.42.05-.11.09-.21.14-.31.21-.44.4-.89.6-1.33-3.45-.07-6.76.25-10.21.41h0a.84.84,0,0,1-.76-.59A.54.54,0,0,1,508.3,497.8Z"/><path class="cls-26" d="M529.78,532.33a103,103,0,0,0,11.75,2.7,50.38,50.38,0,0,0,6.83.5c1.84,0,3.52-.47,5.32-.65h0c-1.79.23-3.48.7-5.31.79a48.72,48.72,0,0,1-5.4-.18c-4.5-.25-8.94-1.69-13.2-3.07C529.72,532.41,529.73,532.32,529.78,532.33Z"/><path class="cls-27" d="M542,377.27c-8.72,5.34-43.75,8.65-94.65,8.06l9.36-47.72c7.37-1,18-.7,31.21-2.15,39.55-4.33,82.35,2.26,87.73,6.82,30,25.47-27.83,72.71-63.14,144.4-.78,1.58-20.45-1.95-22.66-10.1,3.09-23.28,11.07-41.83,20.36-61.27C523.11,388.22,552,371.09,542,377.27Z"/><path class="cls-28" d="M549.83,393.12c5.1-2,17-4.31,18.74-9.6,4.75-14,3.92-20-1.14-25.9-17.4-13.62-65.9-14.71-90.58-18.51-.65-.1-6.12-1.59-6.67-1.81l-3.35-9.43-12.09-4.32-58.26.35s-3.18,58.46,21.27,59.77c4.9.26,23.31,1.68,29.56,1.66l90.72,6.1S544.27,395.27,549.83,393.12Z"/><path class="cls-29" d="M418,97.35c3.23,1.39,6.65,2.13,10.13,1.21A6.56,6.56,0,0,0,431.79,96c0,.06-1.52.85-2,1.06-3.25,1.55-9.28-1.68-11.3-4.11,0,0,0,0,0,0,1.5,1.63,3.6,2.4,5.63,3.16A7.6,7.6,0,0,0,432,95.2a.14.14,0,0,1,.21.12c0,2-2.81,3.77-4.52,4.16a11.85,11.85,0,0,1-9.85-1.69C417.62,97.63,417.74,97.22,418,97.35Z"/><path class="cls-9" d="M413.46,173.42l-.22,7.08-12.86,4.74S405,178,382,168.57s-26.37-16.64-31.89-30c-9.39-22.7,5-52.82,43.34-59.34s28.51,51.32,26.37,63.58Z"/><path class="cls-9" d="M394.73,194.43c-1.72,4.65,26.32,17.78,26.77,14.76l8-21.79c.1-.72,1.67-8.8,1.63-9.5-.28-5.18-6.27-5.19-11.84-6l-7.39-1.09A11.31,11.31,0,0,0,398.83,180Z"/><path class="cls-17" d="M387.63,81.11a33.42,33.42,0,0,1,5.86-1.87c11.46-1.41,32.07,0,40.6,9.93,6.47,7.49,11.72,19.11,12.75,23.87.8,3.72-1.34,5.21-1.25,8.88.86,4.36,3.31,6.66,4.76,8.67,2.91,4,10.09,9.07,10,13,0,1-1.07,2-2.25,2.69s-6.41,2.59-6.07,4.06a5.87,5.87,0,0,0,.76,2.13c.46.83,1.86,1.57,1.7,2.63C454.26,157,452,157.47,451,159c-.13.09,2.89,2.8,2.37,4.51-.31,1-1.73,1.56-2.38,3.11,0,.73,2.18,11.87.4,13-5.8,3.51-23.6,1.58-30.91-1.57-2.81-1.21-2.8.1-10.56-15.49Z"/><path class="cls-18" d="M455.38,145.82a25.11,25.11,0,0,0,5-2.2c0,1-1.07,1.95-2.24,2.65s-6.41,2.59-6.07,4.06a4.23,4.23,0,0,0,.1.5,9.15,9.15,0,0,1-2.87-.57,4.39,4.39,0,0,0-.67-.17A24.82,24.82,0,0,1,455.38,145.82Z"/><path class="cls-18" d="M452.63,157.5c.22-.05-1.8,1.41-1.5,1.75l1.14,1.38a16.4,16.4,0,0,0-5.76-.15C444.19,161,451.31,157.76,452.63,157.5Z"/><path class="cls-30" d="M339.91,130.51a7.12,7.12,0,0,0,6-3.41c0-.42,0-.86.05-1.31a8.43,8.43,0,0,0-1.47,2,.35.35,0,0,0,0-.14,25,25,0,0,1-.43-5.93c.25-1.18.52-2.34.79-3.46a9.28,9.28,0,0,1,3.47-5c.12-.32.26-.64.39-1-.08,0-.18.09-.25.14-.84.55-1.87,1.93-2.93,2h-.07a58.33,58.33,0,0,1,2.63-7.49l.33-.32a9.25,9.25,0,0,1,4.22-2.13l.16,0,0,0a5.75,5.75,0,0,1-3.28-1.32,4.8,4.8,0,0,1-.93-1.09,24.41,24.41,0,0,1-.18-4.76.8.8,0,0,1,.16.08,6.91,6.91,0,0,0,5.16,1.79,15.28,15.28,0,0,0,2.88-.61c.23-.33.49-.63.73-1-1.28.19-2.66,1-3.78.93a.65.65,0,0,1-.45-.3l.08-.07A18.52,18.52,0,0,0,355.15,95c.28-.28.56-.56.82-.84a8.29,8.29,0,0,1,5.42-2.3,7.06,7.06,0,0,1,1.66.09c.27-.2.51-.42.79-.6,1-.66,1.9-1.27,2.87-1.86l.25-.26a.28.28,0,0,1,0-.22c1.69-3.8,4.17-6,8.23-6.36-1.52-.62-5.44,1.32-6.4,0-.11-.14-.21-.43,0-.56A16.11,16.11,0,0,1,380.22,80a9.39,9.39,0,0,1,1.38.4c-.31-.43-.57-.89-.85-1.32-.93-1.44-.12-2.93-.31-4.47a.38.38,0,0,1,.16-.31c.65,2,2.82,3.22,4.79,3.83a.32.32,0,0,0,.31,0l1,.34a13,13,0,0,0,1.43.42h0a23.62,23.62,0,0,1,2.9-.45,7.39,7.39,0,0,0,.3-1.57c.16-1.81-.54-3.22-1-4.89a1.13,1.13,0,0,1,0-.43,7.31,7.31,0,0,1,4.55,2.2,15.46,15.46,0,0,1,1.2,2.41,8.21,8.21,0,0,1,.45,1.52,19.16,19.16,0,0,1,3.74-3.16,20.86,20.86,0,0,1,5.95-1.35,33.47,33.47,0,0,1,3.54.28c-.91,1-2.34,1.43-3.25,2.51a11.31,11.31,0,0,0-1.14,1.74l.61,0c.94-.45,1.87-.92,2.78-1.44a41.29,41.29,0,0,0,4.06-2.62,2.53,2.53,0,0,0,.26-.22,9.21,9.21,0,0,0,3.83-2.78l0,0c1,1.28.17,4.12-.5,5.81,1.07-.55,2.07-1.14,2.56-1.33a19.36,19.36,0,0,1,2.3-.75,10.89,10.89,0,0,1,3.65,0l.62.21c-.89,1.1-1.88,1.92-2.33,3.38-.08.25-.15.51-.22.76q.94,0,1.89.12a8.18,8.18,0,0,0,4.37-5.42,6.92,6.92,0,0,0,1-4c2.15,1.4,3.35,5.69,3.74,7.74a7.05,7.05,0,0,1,0,2.67,15.48,15.48,0,0,1,4.16-1.61c2.83-.43,6-.54,8.61.57-1.26.91-2.55,1.19-3.53,2.61a6.23,6.23,0,0,0-1,3c1,.75,3.71,2.9,6.79.17,1.07-1,1.44-3.44,2.67-4.13h.07A6.2,6.2,0,0,1,453,82.14a10,10,0,0,1,.43,1.27,6.23,6.23,0,0,1-.71,5.06.42.42,0,0,0,0,.48,7.5,7.5,0,0,1-1.21,1.24,14.11,14.11,0,0,1,2.66,1.73.48.48,0,0,0,.27.32c1.11.49,4.06,5,4.62,7.49-1.59-.92-2.58-2.6-4.34-3.39a8.62,8.62,0,0,0-1.91-.57,25.19,25.19,0,0,1,2.79,8.71,10.32,10.32,0,0,0,4.22,1.4,8.53,8.53,0,0,0,3.39.37,8,8,0,0,1-7.48,1.48c0,.47,0,1-.09,1.42a22.65,22.65,0,0,1-.42,2.3c0,.15-.06.29-.1.44s0,0,0,0c-.2.81-.46,1.61-.74,2.4a30.56,30.56,0,0,1-1.78,2.74c-.62.8-1.28,1.57-1.95,2.33.41-2.42-.11-5-.44-7.37a15.14,15.14,0,0,0-.3-1.6,10.84,10.84,0,0,0-1.1-3,14,14,0,0,0,.19,10.8l0,0a8.83,8.83,0,0,1-3.63-2.41,16.44,16.44,0,0,1-1.52-3.44,13.4,13.4,0,0,1-.5-2.42,30.53,30.53,0,0,1-5.57,5.79,11.77,11.77,0,0,1-3,.87,5.89,5.89,0,0,0,.4-6.91c-.74,1.25-1.35,2.65-1.71,3.33-1.51,2.83-2.25,5.93-1.38,8.9a11.88,11.88,0,0,0,.34,2.37,5.51,5.51,0,0,1-3.82-3.16,40.51,40.51,0,0,1-1.38,4.42c-.27.76-.58,1.72-1,2.65a23.9,23.9,0,0,1-2.62,2.39.35.35,0,0,1,0-.17,20.17,20.17,0,0,0-.12-5.65,13.66,13.66,0,0,1-5.21,11,13.4,13.4,0,0,0,3,7.68,12,12,0,0,0,2.29,2.9h0a11.7,11.7,0,0,1-7-3.27c1.1,3.15,2.12,8.08.5,11.09-.18.35-.64.19-.84,0-.92-1-1-2.84-1.46-4.11a7.51,7.51,0,0,0-.37-.91,34.73,34.73,0,0,0-.44,5.37c-.27.46-.52.92-.74,1.39l0,.08c-.24.36-.46.73-.69,1.11a30.17,30.17,0,0,1-3.54-.17,30.31,30.31,0,0,1-.84-4c-1.79,4.84-3.67,9.63-5.16,14.57,0,.58,0,1.17,0,1.75-.07,1.71.11,3.51-.08,4.83-.08.59-.18,1.18-.29,1.77-.87,1.6-1.75,3.2-2.52,4.84-.86-1.56-4-4.63-3.78-4.09a18.7,18.7,0,0,1,1.12,4.11l-.11-.07c-2.35-2-5.14-3.23-7.58-5.07a11.82,11.82,0,0,1-1.44-1.3l.47.54c.28.34-1.11.25-2.48-.12a17.51,17.51,0,0,1-5.12-3.46,10.55,10.55,0,0,0-1.49-1.94h0a.66.66,0,0,0-.18-.19,12.32,12.32,0,0,0-1-.88c-.29-.22-.74-.1-.63.33a11.69,11.69,0,0,1,.53,3.25l-.15.34a8.44,8.44,0,0,0-.7-1.78,5.08,5.08,0,0,0-3.4-2.66,20.15,20.15,0,0,1-2.33-2,14.27,14.27,0,0,1-1.39-1.77c-.27-.15-.55-.28-.82-.41a15.54,15.54,0,0,0,3.11,3.52c.7.66-4.41-.91-5.85-1.64a20.32,20.32,0,0,1-4.89-3.25,23.68,23.68,0,0,1-3.56-4.21,7.55,7.55,0,0,0,1.32,4.68c.23.31,0,1-.43.68-2.69-1.56-4-4.08-4.83-7a22.89,22.89,0,0,1-.7-4.28c-.11-.15-.21-.31-.31-.47l0,0c-1.25,1.93-3.79,2.53-5.89,2.81h-.08A8.77,8.77,0,0,0,348.5,152c1.49-1.76,1.18-4.48,1-6.83-.05-.62-.08-1.22-.11-1.81-.1-.29-.2-.57-.29-.86a11.09,11.09,0,0,0-1.11,3.63.37.37,0,0,1-.14.25,27.18,27.18,0,0,0-1.55-2.46c-.14-.22-.26-.46-.39-.69a15.8,15.8,0,0,1-.26-5.84,13.37,13.37,0,0,1,.86-3.24,5.74,5.74,0,0,1-2.29.26,8.12,8.12,0,0,1-1.47-.29,7.19,7.19,0,0,1-3-3.56Z"/><path class="cls-31" d="M339.91,130.51a7.12,7.12,0,0,0,6-3.41c0-.42,0-.86.05-1.31a8.43,8.43,0,0,0-1.47,2,.35.35,0,0,0,0-.14,25,25,0,0,1-.43-5.93c.25-1.18.52-2.34.79-3.46a9.28,9.28,0,0,1,3.47-5c.12-.32.26-.64.39-1-.08,0-.18.09-.25.14-.84.55-1.87,1.93-2.93,2h-.07a58.33,58.33,0,0,1,2.63-7.49l.33-.32a9.25,9.25,0,0,1,4.22-2.13l.16,0,0,0a5.75,5.75,0,0,1-3.28-1.32,4.57,4.57,0,0,1-.93-1.09,22.85,22.85,0,0,1-.22-3.5c2.78,4.06,8.54,6,13.83,5.54a18.45,18.45,0,0,0-6.9,9.84c-.1.41.46.94.79.55a14,14,0,0,1,6.41-4.23c-2.59,5.46-8,7.85-14,9.28-.42.1-.16.72.1.84a17.15,17.15,0,0,0,3.61,1.25c-2.95,2.16-5.26,5.44-5.55,8.43a.56.56,0,0,0,.63.57c2-.59,4-1.12,5.94-1.74-2.36,4.91-2.09,12.08,1.43,15.46a.36.36,0,0,0,.62-.1,27.83,27.83,0,0,1,2.05-4.81,14.75,14.75,0,0,0,3.69,6.62c.22.18.68.17.65-.21a11.91,11.91,0,0,1,.78-5.31,17.36,17.36,0,0,1-.71,8.94c-.11.33.4.94.71.63a34.43,34.43,0,0,0,5.16-5.89,24.48,24.48,0,0,0,9,10.43c.45.29.64-.32.41-.63-2.77-3.93-3.29-9.83-1.86-14.73a44.25,44.25,0,0,1,1.12,5.79c0,.25.36.55.63.45,2.06-.77,3.39-2.67,4.22-4.93a14.48,14.48,0,0,0,5.65,5.84c.37.19.65-.16.48-.52a17.56,17.56,0,0,1-.24-14.6,17.51,17.51,0,0,0,3.4,6.87c.15.18.66.4.72,0,.53-3.75.7-9.88,3.7-12.9a15.11,15.11,0,0,1,1.72,9.26c0,.29.45.78.73.51a15.65,15.65,0,0,0,3.55-5.48c1.36,5.08,4,9.79,8.85,12.31.37.19.66-.17.48-.52a28.67,28.67,0,0,1-2.84-9.73,21,21,0,0,0,8.9,8c.56.27.62-.41.32-.73-3.14-3.32-4.27-7.52-4.25-11.87a5.93,5.93,0,0,0,3.5,2.73.34.34,0,0,0,.42-.44c-.45-1.5-1.31-2.88-1.52-4.45a18.29,18.29,0,0,1,.19-6,24.35,24.35,0,0,1,2.49-6.72,11.9,11.9,0,0,1,.24,3.72,9.43,9.43,0,0,0-.2,3.11c0,.22.37.58.63.45,4.78-2.41,6.35-8.59,5.62-14a11.85,11.85,0,0,1,2.39,3.38c1.05,2.29,1,4.46,1.3,6.89,0,.24.47.65.72.39,2.62-2.67,2.76-7.18,2.32-10.69A15.09,15.09,0,0,0,428,98.49c5.32,1.65,9.82,5.33,10.52,11.38,0,.28.45.62.72.4,3.39-2.84,3.06-8.23.56-11.7a15.83,15.83,0,0,1,9.45,5.19c.19.23.79.37.73-.11a13.65,13.65,0,0,0-6.46-9.75,10.42,10.42,0,0,0,4.27-5.1.56.56,0,0,0-.62-.67c-2.79.78-5.64,1.88-8.59,1.63a25.3,25.3,0,0,1-6.2-1.5,16,16,0,0,0,6.24-5.43c.25-.35-.3-1-.67-.72-3.4,2.68-8.71,3.4-13.3,2.35a11.76,11.76,0,0,0,6.62-8.82,18,18,0,0,0-.14-5.47c1.62,1.81,2.55,5.23,2.89,7a7.05,7.05,0,0,1,0,2.67,15.48,15.48,0,0,1,4.16-1.61c2.83-.43,6-.54,8.61.57-1.26.91-2.55,1.19-3.53,2.61a6.23,6.23,0,0,0-1,3c1,.75,3.71,2.9,6.79.17,1.07-1,1.44-3.44,2.67-4.13h.07A6.2,6.2,0,0,1,453,82.14a10,10,0,0,1,.43,1.27,6.23,6.23,0,0,1-.71,5.06.42.42,0,0,0,0,.48,7.5,7.5,0,0,1-1.21,1.24,14.11,14.11,0,0,1,2.66,1.73.48.48,0,0,0,.27.32c1.11.49,4.06,5,4.62,7.49-1.59-.92-2.58-2.6-4.34-3.39a8.62,8.62,0,0,0-1.91-.57,25.19,25.19,0,0,1,2.79,8.71,10.32,10.32,0,0,0,4.22,1.4,8.53,8.53,0,0,0,3.39.37,8,8,0,0,1-7.48,1.48c0,.47,0,1-.09,1.42a22.65,22.65,0,0,1-.42,2.3c0,.15-.06.29-.1.44s0,0,0,0c-.2.81-.46,1.61-.74,2.4a30.56,30.56,0,0,1-1.78,2.74c-.62.8-1.28,1.57-1.95,2.33.41-2.42-.11-5-.44-7.37a15.14,15.14,0,0,0-.3-1.6,10.84,10.84,0,0,0-1.1-3,14,14,0,0,0,.19,10.8l0,0a8.83,8.83,0,0,1-3.63-2.41,16.44,16.44,0,0,1-1.52-3.44,13.4,13.4,0,0,1-.5-2.42,30.53,30.53,0,0,1-5.57,5.79,11.77,11.77,0,0,1-3,.87,5.89,5.89,0,0,0,.4-6.91c-.74,1.25-1.35,2.65-1.71,3.33-1.51,2.83-2.25,5.93-1.38,8.9a11.88,11.88,0,0,0,.34,2.37,5.51,5.51,0,0,1-3.82-3.16,40.51,40.51,0,0,1-1.38,4.42c-.27.76-.58,1.72-1,2.65a23.9,23.9,0,0,1-2.62,2.39.35.35,0,0,1,0-.17,20.17,20.17,0,0,0-.12-5.65,13.66,13.66,0,0,1-5.21,11,13.4,13.4,0,0,0,3,7.68,12,12,0,0,0,2.29,2.9h0a11.7,11.7,0,0,1-7-3.27c1.1,3.15,2.12,8.08.5,11.09-.18.35-.64.19-.84,0-.92-1-1-2.84-1.46-4.11a7.51,7.51,0,0,0-.37-.91,34.73,34.73,0,0,0-.44,5.37c-.27.46-.52.92-.74,1.39l0,.08c-.24.36-.46.73-.69,1.11a30.17,30.17,0,0,1-3.54-.17,30.31,30.31,0,0,1-.84-4c-1.79,4.84-3.67,9.63-5.16,14.57,0,.58,0,1.17,0,1.75-.07,1.71.11,3.51-.08,4.83-.08.59-.18,1.18-.29,1.77-.87,1.6-1.75,3.2-2.52,4.84-.86-1.56-4-4.63-3.78-4.09a18.7,18.7,0,0,1,1.12,4.11l-.11-.07c-2.35-2-5.14-3.23-7.58-5.07a11.82,11.82,0,0,1-1.44-1.3l.47.54c.28.34-1.11.25-2.48-.12a17.51,17.51,0,0,1-5.12-3.46,10.55,10.55,0,0,0-1.49-1.94h0a.66.66,0,0,0-.18-.19,12.32,12.32,0,0,0-1-.88c-.29-.22-.74-.1-.63.33a11.69,11.69,0,0,1,.53,3.25l-.15.34a8.44,8.44,0,0,0-.7-1.78,5.11,5.11,0,0,0-3.4-2.66,20.15,20.15,0,0,1-2.33-2,14.27,14.27,0,0,1-1.39-1.77c-.27-.15-.55-.28-.82-.41a15.54,15.54,0,0,0,3.11,3.52c.7.66-4.41-.91-5.85-1.64a20.32,20.32,0,0,1-4.89-3.25,23.68,23.68,0,0,1-3.56-4.21,7.55,7.55,0,0,0,1.32,4.68c.23.31,0,1-.43.68-2.69-1.56-4-4.08-4.83-7a22.89,22.89,0,0,1-.7-4.28c-.11-.15-.21-.31-.31-.47l0,0c-1.25,1.93-3.79,2.53-5.89,2.81h-.08A8.77,8.77,0,0,0,348.5,152c1.49-1.76,1.18-4.48,1-6.83-.05-.62-.08-1.22-.11-1.81-.1-.29-.2-.57-.29-.86a11.09,11.09,0,0,0-1.11,3.63.37.37,0,0,1-.14.25,27.18,27.18,0,0,0-1.55-2.46c-.14-.22-.26-.46-.39-.69a15.8,15.8,0,0,1-.26-5.84,13.37,13.37,0,0,1,.86-3.24,5.74,5.74,0,0,1-2.29.26,8.12,8.12,0,0,1-1.47-.29,7.19,7.19,0,0,1-3-3.56Z"/><path class="cls-17" d="M396,140.14a6.14,6.14,0,0,1,2.69-1,7.5,7.5,0,0,1,5.28,1.48c3.8,2.78,6,9.5,6.57,14.34.28,2.35.66,5.62-.58,7.6-2.08,3.31-6.54-1.79-8.86-3.51-4.67-3.47-6.57-4-7.77-8.48C391.65,144.51,393.9,141.55,396,140.14Z"/><path class="cls-9" d="M399.5,152.94c1.19,2.61,3.72,4.75,6.74,4.64,1.22,0,2.17-.49,1.72-1.91a4.19,4.19,0,0,0-1.29-1.69c-.82-.63-1-2.42-1.11-3.34-.23-2.5-.34-5.78-3.8-5.65-3.2.12-3.53,3.15-3,5.74A11,11,0,0,0,399.5,152.94Z"/><path class="cls-29" d="M398.32,115.11a12.93,12.93,0,0,0,3.28-2.94,8.17,8.17,0,0,0,.94-6.42c0-.15.16-.14.2,0a8.22,8.22,0,0,1-3,9.15c-.28.17-.58.33-.88.48a12.26,12.26,0,0,1,2.41.26,7.49,7.49,0,0,0,4.32-1.55,10.22,10.22,0,0,0,2.81-3.25c.76-1.22.68-2.43,1.09-3.73,0,0,0,0,0,0a22.65,22.65,0,0,1-.91,3.87,10.19,10.19,0,0,1-3.24,3.89,6.63,6.63,0,0,1-6.93.7C398.29,115.49,398.14,115.24,398.32,115.11Z"/><path class="cls-29" d="M381.36,117.2c.11-.21.46,0,.38.23a8.41,8.41,0,0,0,.11,6.69,7.11,7.11,0,0,0,3.3,3.29c2,1,1.51-.13,1.09-1-1.54-3.3-1.67-6.25.11-9.49,0,0,0,0,0,0-1.54,3.28-1.54,7.58,1.25,10.23,1.34,1.28-1.37,1.29-2,1.17C380.93,127.32,379.24,121,381.36,117.2Z"/><path class="cls-29" d="M360.52,116.3a7.29,7.29,0,0,1,.57.8,1.27,1.27,0,0,1,.12-.1,5.59,5.59,0,0,0,3.67.9c2.06-.14,4.47-1.74,4.75-3.82,0,0,0,0,0,0-.27,3.65-5.28,5.25-8.25,3.55a9.14,9.14,0,0,0,2.37,3.24c2.78,2.11,7.35,1.6,8.83-1.8.08-.19.33,0,.31.19-.68,4-5.84,4.18-8.69,2.55a8.53,8.53,0,0,1-3.45-3.94.53.53,0,0,1,.12-.6,3.86,3.86,0,0,1-.71-.69C360,116.32,360.31,116,360.52,116.3Z"/><path class="cls-29" d="M367.88,126.32c.12-.21.44,0,.38.22a8.38,8.38,0,0,0,.31,6.37c1.12,2.46,3.28,3.16,5.56,3.89a9.5,9.5,0,0,1-2.24-3.44c-.87-2.38-.22-4.55.49-6.84,0,0,0,0,0,0-1,4.15-.8,7.69,2.65,10.58.15.12.17.52-.11.43-2.65-.75-5.19-1.27-6.68-3.85C366.92,131.36,366.49,128.73,367.88,126.32Z"/><path class="cls-29" d="M355.76,129.08c.89,1.15,2.59,1.37,3.92,1.29a4.06,4.06,0,0,0,3.73-2.33s0,0,0,0a5.2,5.2,0,0,1-7,2.14,9.22,9.22,0,0,0,1.94,2.84,5,5,0,0,0,6.57.36c.13-.11.31.11.19.23a4.71,4.71,0,0,1-5.52.67,6.53,6.53,0,0,1-2.27-1.68c-.82-1-1.15-2.26-1.88-3.29C355.3,129.09,355.57,128.84,355.76,129.08Z"/><path class="cls-29" d="M378.53,150.18a14.78,14.78,0,0,0,7,6,8,8,0,0,0,4.33.6,6.55,6.55,0,0,0,1.85-.48l.36-.13a.45.45,0,0,1-.23,0,11.24,11.24,0,0,1-7.19-8.19s.05,0,.06,0c1,3.75,4,7.2,8,8,.17,0,.28.29.1.39-5.07,2.63-12.7-.69-14.56-6.05C378.13,150,378.44,150,378.53,150.18Z"/><polygon class="cls-32" points="404.49 141.09 441.56 130.22 440.44 127.3 401.92 139.57 404.49 141.09"/><path class="cls-33" d="M440.34,126.9c-.85-3.67-1-6.33-.57-8.15a3.67,3.67,0,0,1,2.82-2.92c3.13-.73,5.3,2.09,6.89,9s1.72,14.7-1.25,15.38a1.49,1.49,0,0,1-.36.05C445,140.27,441.89,133.56,440.34,126.9Zm2.48-10.09a2.67,2.67,0,0,0-2.08,2.19c-.42,1.64-.22,4.22.58,7.67,1.8,7.78,5,12.92,6.69,12.52s2.32-6.32.5-14.19c-1.31-5.61-3-8.32-5.06-8.28A3.54,3.54,0,0,0,442.82,116.81Z"/><path class="cls-9" d="M382.11,274.89c-2,8.46,6,25.7,7.12,29.14a310.8,310.8,0,0,0,11.89,29.51c4.26,9.16,6.13,11.74,8.76,12.65l6.21.72c4-1.36.37,1.46-8.1-51.68L404.46,276C399.4,269.19,382.22,264.84,382.11,274.89Z"/><path class="cls-9" d="M402.5,284.64l6.24-28.09c-.21-4.57-2.54-48.34-3.28-61,0,0-16.74,1.93-19.06,12.49l-4.51,69.22C384.44,286.69,399.75,287.75,402.5,284.64Z"/><path class="cls-34" d="M377.22,266.31l5.49-50.6c3.45-20.54,18.07-15.79,18.07-15.79s9.35,3.31,13.18,15.24c4.12,12.82.11,56.2.11,56.2C393.39,273.75,384.26,270.25,377.22,266.31Z"/><path class="cls-35" d="M413.2,192.65s7.07,1.92,15.12,8.47c10.29,8.36,20.8,21.74,22.49,37.06,3.84,34.85,5.46,34.63,5.46,34.63s13.42,60,10.38,62.56c-8.08,6.89-22.22,10.87-48.62,12.43,0,0-23.33.29-23.74-7.13-.8-14.34,2.78-26,1-35.85-2.74-15.5-5.77-34.09-8-44.92-3.12-15.1-7.75-47.61,3.25-64.27C394.74,189.29,402.33,189.52,413.2,192.65Z"/><path class="cls-36" d="M395.33,304.82c-2.74-15.5-5.77-34.09-8-44.92-3.12-15.1-7.75-47.61,3.25-64.27,4.17-6.34,11.76-6.11,22.63-3,0,0,.41.11,1.12.36.11,3.27.19,6.54.15,9.81,0,3.5-.51,7-.25,10.53.54,7.16,3.4,14.3,6,20.93,2.76,7.07,13.25,36.36,15.83,43.9a237.09,237.09,0,0,0,8.34,22.2C447,306.11,463.12,325.8,467,331c.15,2.42.06,4-.38,4.38-8.08,6.89-22.22,10.87-48.62,12.43,0,0-23.33.29-23.74-7.13C393.49,326.33,397.07,314.71,395.33,304.82Z"/><path class="cls-37" d="M428.12,302.79c-2.77-5-8.47-18.07-9-23.69-.15-1.42-4.74-.1-5.86-1.07-2.2-1.9-14.42-46.71-13.8-58.45a14.39,14.39,0,0,1,11.78-13.14c.56,2.25,29.14,89.19,32.9,94.31S462.94,326.05,467,331c.16,2.42.06,4-.38,4.38C465.56,336.3,429.68,305.58,428.12,302.79Z"/><path class="cls-9" d="M450,293,443.09,265c-2.23-4-23.8-42.15-30.08-53.14,0,0-13.7,7.38-11.08,17.87l24.19,62.4C432.6,299.46,450.42,300.92,450,293Z"/><path class="cls-17" d="M426.12,292.16c2,8.47,16.8,20.36,19.36,22.92a309.56,309.56,0,0,0,23.78,21.13c7.89,6.3,13.15,10.08,14.84,10.12l4.52-4.82c3-3,1,1.15-30.27-42.66l-11.7-15.61C439.07,279.36,421.75,283.11,426.12,292.16Z"/><path class="cls-34" d="M417.56,274.67l-15-40.56c-8.63-24,6.42-27.93,6.42-27.93s12.26-1.47,19.56,9c7.69,11.05,17,49.55,17,49.55C432.85,277.87,425.61,275.06,417.56,274.67Z"/><path class="cls-17" d="M492.42,366.9c1.51,2.69,1.25,6.23,1.25,9.26,0,1.06.3,5.49,2.56,4.95.9-.22,1.39-2.68,1.46-3.29.15-1.23.11-2.83.13-4,.07.75,0,2.06,0,2.81-.16,4.73.93,6.43,2.23,6.85,1.58.52,3-3.07,2.82-4.64.52,7.25,5.57,9.35,5.71-2a6,6,0,0,1,.05-1.41c1.27,0,2.08-2.16,2.6-3.41a19.49,19.49,0,0,0,1.24-3.12c.28-1.19.92-2.26,1.27-3.42a10.36,10.36,0,0,0-.47-4.51c-.79-2.36-2-4.56-2.93-6.85l-.74-1.8c-.41-.66-.84-1.31-1.29-1.94a131.33,131.33,0,0,0-21.92-16.07,6.79,6.79,0,0,0-6.41,3c-2.07,3.1-1,7.69-.11,11a38.9,38.9,0,0,0,4,9.46c.65.64,1.32,1.25,2,1.84a49.48,49.48,0,0,1,5.27,5.37A18.84,18.84,0,0,1,492.42,366.9Zm16,.63c0,.09-.06-3.11-.08-3.09A49.73,49.73,0,0,0,505.6,358c.38.58.84,1.12,1.07,1.53a38.09,38.09,0,0,1,2.08,4.69C508.76,364.44,508.53,367.34,508.46,367.53Z"/><path class="cls-38" d="M498.05,369.51c.12-2.09-.83-4.52-1.65-6.4,0,0,0,0,0,0a23.76,23.76,0,0,1,1.75,5.2c.41,1.83-.09,3.68-.28,5.49,0,0-.06,0-.06,0C497.76,372.38,498,370.92,498.05,369.51Z"/><path class="cls-38" d="M507,355.13a3.2,3.2,0,0,0,1.34-.76,1.36,1.36,0,0,0,.32-1.25s0,0,0,0a1.53,1.53,0,0,1-.16,1.39,2.57,2.57,0,0,1-.77.66,1.08,1.08,0,0,1-.74.15C507,355.3,506.91,355.15,507,355.13Z"/><path class="cls-38" d="M508.39,365.4s0,0,0,0c-.08,3.41.63,6.94,0,10.31,0,.07-.12,0-.12,0C508.56,372.27,508.2,368.83,508.39,365.4Z"/><path class="cls-38" d="M503.6,371.4a20,20,0,0,0-1.93-9.52s0,0,0,0c1.14,2.28,2.28,4.83,2.25,7.43a61.6,61.6,0,0,1-1,10.23c0,.05-.09,0-.09,0C503.06,376.79,503.42,374.14,503.6,371.4Z"/><path class="cls-38" d="M501.24,358.75a7.72,7.72,0,0,0,1.24-.3,2.69,2.69,0,0,0,1-1h0a2.76,2.76,0,0,1-.82,1.22,2.09,2.09,0,0,1-1.36.27C501.18,358.91,501.14,358.78,501.24,358.75Z"/><rect class="cls-39" x="473.1" y="333.87" width="15.04" height="6.72" transform="translate(-96.77 443.71) rotate(-45.51)"/><rect class="cls-40" x="476.41" y="332.48" width="11.15" height="6.72" transform="translate(-95.37 444.27) rotate(-45.51)"/><path class="cls-41" d="M480.12,336.78c-2-2.25-2.56-5.13-1.39-6.84a2.43,2.43,0,0,0-.2.14c-1.74,1.57-1.32,4.87.94,7.36s5.5,3.23,7.23,1.65a2.58,2.58,0,0,0,.46-.53C485.38,339.93,482.3,339.18,480.12,336.78Z"/><path class="cls-42" d="M485.76,331.73c-2.17-2.4-5.25-3.15-7-1.79-1.17,1.71-.63,4.59,1.39,6.84,2.18,2.4,5.26,3.15,7,1.78C488.33,336.86,487.79,334,485.76,331.73Z"/><path class="cls-41" d="M483.8,333.68a.22.22,0,0,1,0,.31l-2.45,2.49a.21.21,0,0,1-.3,0h0a.22.22,0,0,1,0-.3l2.45-2.49a.22.22,0,0,1,.3,0Z"/><path class="cls-41" d="M483.84,334a.18.18,0,0,1-.24,0l-2-1.95a.17.17,0,0,1,0-.23h0a.16.16,0,0,1,.24,0l2,1.94a.17.17,0,0,1,0,.24Z"/><path class="cls-43" d="M478.73,329.94c-1.17,1.71-.63,4.59,1.39,6.84,2.18,2.4,5.26,3.15,7,1.78,1.17-1.7.63-4.59-1.4-6.83C483.59,329.33,480.51,328.58,478.73,329.94Zm7.32,7.5c-1.36,1.05-3.73.47-5.41-1.38s-2-3.94-1.07-5.25c1.37-1.06,3.74-.48,5.41,1.38S487,336.13,486.05,337.44Z"/><path class="cls-35" d="M430.42,206.31s.53-13.38-.49-13.63-31.39-15.14-32.59-13.38-5,14.53-5,14.53S413.78,202.89,430.42,206.31Z"/><path class="cls-44" d="M571.16,528.3a30.79,30.79,0,0,1,.8-10.08c.47-1.54,1-3,1.38-4.6,3.14-.34,6.28-.66,9.45-.76a129.28,129.28,0,0,1,13.49.45c2.51.18,5.12.58,7.69.68l.15.16a13.77,13.77,0,0,0,7.2,3.71A119.93,119.93,0,0,0,627,520.35c5.14.57,10-.38,15.15-.71,4-.26,9.33.79,12.55,3.46,1.9,1.57,6.08,6.79,5.39,8.76-1.93,3.65-5.42,7.06-17,11.34-5.31,2-20.17,4.8-26.41,4.67-7.74-.15-41,2.15-43.28-4.68A70.83,70.83,0,0,1,571.16,528.3Z"/><path class="cls-24" d="M584.46,535.9a48,48,0,0,1,3.27,6c.42.89,2.17,4.13,2.26,6-8.36-.44-15.59-1.67-16.62-4.72a70.83,70.83,0,0,1-2.21-14.89c0-1.06-.07-2.13-.06-3.21C576.58,526.89,581.68,531.55,584.46,535.9Z"/><path class="cls-25" d="M629.9,524.33c-.06-1.28-.1-2.55-.13-3.82,4.14.07,8.17-.6,12.35-.87s9.33.79,12.55,3.46c1.9,1.57,6.08,6.79,5.39,8.76-1.93,3.65-5.42,7.06-17,11.34a63.88,63.88,0,0,1-7.63,2.07C631.86,543.08,630.07,527.3,629.9,524.33Z"/><path class="cls-25" d="M576.47,543a99.31,99.31,0,0,0,13,2.37c5.2.43,10.49.23,15.7.15a115.24,115.24,0,0,0,14.38-.95c9.07-1.32,18.65-3.31,27.11-6.91,4.2-1.78,10.31-4.56,12.47-9.09.75,1.31,1.19,2.52.93,3.27-1.93,3.65-5.42,7.06-17,11.34-5.31,2-20.17,4.8-26.41,4.67-7.74-.15-41,2.15-43.28-4.68-.09-.32-.18-.66-.27-1C574.21,542.49,575.34,542.77,576.47,543Z"/><path class="cls-24" d="M598,523c-2-1.36-3.59-3.32-3.57-5.75,0-1.75,2.72-2.81,4.05-3.15,1.9-.47,3.86-.77,5.64.21.07,0,0,.13-.06.1-2.71-1.2-9,.13-8.86,3.93.05,2.1,2.06,4,4,5.24,3.68,1.7,7.84,1.54,11.83,2,2.34.28,4.7.6,7,.92.9.13,1.8.29,2.7.44.57.09,2.64.47,3,.6a33,33,0,0,1-3.95-.3c-.31-.06-.61-.13-.88-.16-3.14-.46-6.34-.92-9.5-1.2-3.9-.34-8.26-.33-11.54-2.74A.09.09,0,0,1,598,523Z"/><path class="cls-26" d="M599.33,524.79c-.75-2.37.88-5.5,2.35-7.35.09-.12.26-.3.46-.51.86-1.08,2-2.47,3.23-2.14.21.06.43.35.32.55l.07,0s0,0,0,0h0s0,0,0,0h-.1s0,0,0,0l0,0a.38.38,0,0,1-.21,0,1.39,1.39,0,0,0-.61.44c-.24.23-.47.48-.7.72a11.87,11.87,0,0,0-1.77,2.35,22.14,22.14,0,0,0-1.18,2.39,17.64,17.64,0,0,1,5.24-3.51c.63-.3,2.64-1.34,3.24-.84a.92.92,0,0,1,.31.51.7.7,0,0,1,.08.1,7,7,0,0,1,.37,1.09c.15.34.26.71.37,1a9.33,9.33,0,0,1,.35,2,29,29,0,0,1,4.78-3.15,4.56,4.56,0,0,1,.54-.39c0-.18.21-.26.4-.24a.31.31,0,0,1,.34,0,.55.55,0,0,1,.33.05.92.92,0,0,1,.77.72,8.21,8.21,0,0,1,1.82,2.65,22.83,22.83,0,0,1,1.39,3.22c.16-.68.35-1.36.54-2a8.78,8.78,0,0,1,.86-1.77c.46-1.18,1.13-2,2.08-1.17a.5.5,0,0,1,.15.57c-.35.94-1,1.72-1.29,2.68-.48,1.39-1.08,2.71-1.52,4.11a.47.47,0,0,1-.54.35,1.11,1.11,0,0,1-1.38,0c-1.27-1.71-1.58-4.33-2.83-6l0-.12c-.17-.38-.34-.76-.49-1.14a60.1,60.1,0,0,0-4.53,4.5l-.28.28c-.44,1-1.42,2.28-2.38,1a4.22,4.22,0,0,1-.4-2.41c0-1,0-1.94-.09-2.92l-.06-.34c-.08-.47-.19-1-.28-1.42-2.85,1.94-5.36,4.13-8.08,6.25h0a.83.83,0,0,1-1,0A.55.55,0,0,1,599.33,524.79Z"/><path class="cls-26" d="M636.86,540.46A102.19,102.19,0,0,0,648,535.85a49.18,49.18,0,0,0,5.86-3.56c1.49-1.08,2.6-2.42,4-3.61h0c-1.33,1.22-2.43,2.58-3.87,3.71a50.05,50.05,0,0,1-4.5,3c-3.82,2.42-8.26,3.82-12.53,5.17C636.86,540.56,636.81,540.48,636.86,540.46Z"/><path class="cls-28" d="M570.15,361.62c-2.55-3.07-39.77,1.73-42.92,8.28C524.76,375,538,391.43,538,391.43l10.53,53.85,23.87,76.55c15.27.49,26-9.53,26-9.53S580.46,417,570.15,361.62Z"/><path class="cls-27" d="M398.86,349.83s16.94,1.2,23.38-.15c0,0,3.14,20.83,8.4,25.57l-3,6.81s-13.86.4-18.51-4.74C409.09,377.32,400.94,368.55,398.86,349.83Z"/><path class="cls-21" d="M357.85,234.62s32.19,26.29,28.34,85.29Z"/><path class="cls-22" d="M406.35,400.36h-16s3,71.11-16.48,155h5.5S401.74,473.55,406.35,400.36Z"/><path class="cls-22" d="M474.58,400.36h16s-3,71.11,16.48,155h-5.5S479.19,473.55,474.58,400.36Z"/><path class="cls-22" d="M386.85,500.57c0,2.9,1.62,5.25,3.61,5.25h100c2,0,3.61-2.35,3.61-5.25h0c0-2.9-1.62-5.25-3.61-5.25h-100c-2,0-3.61,2.35-3.61,5.25Z"/><path class="cls-21" d="M489.86,500.57a2.08,2.08,0,1,0,2.08-2.08A2.08,2.08,0,0,0,489.86,500.57Z"/><path class="cls-21" d="M386.85,500.57a2.08,2.08,0,1,0,2.08-2.08A2.08,2.08,0,0,0,386.85,500.57Z"/><path class="cls-22" d="M395.42,414.14a3.06,3.06,0,0,0,3,3.08h84a3.06,3.06,0,0,0,3-3.08h0a3.06,3.06,0,0,0-3-3.08h-84a3.06,3.06,0,0,0-3,3.08Z"/><path class="cls-21" d="M388.48,401.06c-2.66,0-4.82-1.89-4.82-4.22h0c0-2.33,2.16-4.22,4.82-4.22H491.37c2.66,0,4.82,1.89,4.82,4.22h0c0,2.33-2.16,4.22-4.82,4.22Z"/><path class="cls-22" d="M379.33,389.71c0,3.89,2.36,7.05,5.26,7.05H497c2.91,0,5.26-3.16,5.26-7.05h0c0-3.89-2.35-7-5.26-7H384.59c-2.9,0-5.26,3.15-5.26,7Z"/><path class="cls-22" d="M404.76,390.38l-15.91,1.85s-5.52-73.81-35-158.24l5.46-.63S391.41,315.3,404.76,390.38Z"/></g></g></g></svg>