<svg xmlns="http://www.w3.org/2000/svg" xmlns:xlink="http://www.w3.org/1999/xlink" viewBox="0 0 662.09 569.16"><defs><style>.cls-1{fill:#fff;}.cls-16,.cls-2,.cls-21,.cls-22,.cls-23,.cls-25,.cls-27,.cls-35,.cls-40,.cls-48,.cls-49,.cls-50,.cls-7,.cls-8{fill:none;}.cls-3{isolation:isolate;}.cls-4{opacity:0.75;}.cls-28,.cls-30,.cls-36,.cls-4,.cls-41,.cls-44,.cls-46,.cls-48,.cls-53,.cls-54,.cls-6,.cls-7,.cls-8{mix-blend-mode:multiply;}.cls-5,.cls-6{fill:#fef6e3;}.cls-7,.cls-8{stroke:#fef6e3;}.cls-16,.cls-19,.cls-20,.cls-21,.cls-22,.cls-23,.cls-25,.cls-27,.cls-35,.cls-38,.cls-40,.cls-48,.cls-49,.cls-50,.cls-7,.cls-8{stroke-miterlimit:10;}.cls-7{stroke-width:1.5px;}.cls-16,.cls-19,.cls-20,.cls-21,.cls-22,.cls-23,.cls-27,.cls-35,.cls-38,.cls-40,.cls-48,.cls-50,.cls-8{stroke-linecap:round;}.cls-9{font-size:40.16px;letter-spacing:0.11em;}.cls-14,.cls-15,.cls-9{fill:#541e0e;}.cls-14,.cls-9{font-family:HennyPenny-Regular, HennyPenny Regular;}.cls-10{letter-spacing:0.1em;}.cls-11{letter-spacing:0.09em;}.cls-12{letter-spacing:0.09em;}.cls-13{letter-spacing:0.1em;}.cls-14{font-size:51.73px;letter-spacing:0.1em;}.cls-16,.cls-48{stroke:#fbb03b;}.cls-16,.cls-27{stroke-width:3px;}.cls-17,.cls-36,.cls-54{fill:#fbb03b;}.cls-18{clip-path:url(#clip-path);}.cls-19,.cls-26{fill:#006837;}.cls-19,.cls-23,.cls-27{stroke:#006837;}.cls-19,.cls-20,.cls-21{stroke-width:0.5px;}.cls-20,.cls-24{fill:#fe5700;}.cls-20,.cls-21,.cls-22,.cls-25{stroke:#fe5700;}.cls-29{fill:#dbba8f;}.cls-30,.cls-36{opacity:0.35;}.cls-31{mask:url(#mask);}.cls-32{fill:#491b0b;}.cls-33,.cls-41{fill:#e7cea7;}.cls-34{fill:#f7931e;}.cls-35{stroke:#f7931e;stroke-width:4px;}.cls-37,.cls-38{fill:#009245;}.cls-38{stroke:#009245;}.cls-39{mask:url(#mask-2);}.cls-40{stroke:#42210b;}.cls-40,.cls-49{stroke-width:2px;}.cls-41,.cls-54{opacity:0.5;}.cls-42{fill:#1a1a1a;}.cls-43,.cls-44{fill:#f1b596;}.cls-45{fill:#e9937f;}.cls-46{opacity:0.2;}.cls-47{clip-path:url(#clip-path-2);}.cls-48{stroke-width:0.75px;}.cls-49{stroke:#fff;}.cls-50{stroke:#1a1a1a;}.cls-51{fill:#bdccd4;}.cls-52{fill:#f2f2f2;}.cls-53{opacity:0.25;}</style><clipPath id="clip-path"><rect class="cls-2" x="23.33" y="24.51" width="102.24" height="144.95"/></clipPath><mask id="mask" x="441.78" y="438.88" width="87.53" height="130.28" maskUnits="userSpaceOnUse"><path class="cls-1" d="M486.17,559.79h0a42,42,0,0,1-41.95-41.95V445.75h83.89v72.09A42,42,0,0,1,486.17,559.79Z"/></mask><mask id="mask-2" x="561.17" y="486.84" width="82.37" height="80.21" maskUnits="userSpaceOnUse"><path class="cls-1" d="M567.72,494.25h68.16a0,0,0,0,1,0,0v46.42a17.81,17.81,0,0,1-17.81,17.81H585.53a17.81,17.81,0,0,1-17.81-17.81V494.25A0,0,0,0,1,567.72,494.25Z"/></mask><clipPath id="clip-path-2"><path class="cls-2" d="M156,284.84s-21-5.25-28.84-22.29c7.12-10.67,20.28-25.57,28-34.05a29.63,29.63,0,0,1,14.6-8.77c10.65-2.71,27.54-7,29.33-7,3.94,7.86,23.53,10.48,30.08,2.61,7.58-.75,18,2,25.29,4.45A29.69,29.69,0,0,1,268.6,230l23.7,31.24s-7.86,17-32.77,21c-1.31,26.21-1.31,64.22-1.31,64.22l-103.55-1.31Z"/></clipPath></defs><title>img2</title><g class="cls-3"><g id="Layer_2" data-name="Layer 2"><g id="Layer_1-2" data-name="Layer 1"><g class="cls-4"><path class="cls-5" d="M283.14,175.28a260.61,260.61,0,0,1-22.95-81c-1.16-10.13-1-22,6.93-28.44,5.29-4.26,12.79-4.78,19.41-3.25s12.68,4.81,18.89,7.56c12.88,5.72,27.2,9.22,41.11,6.92,13.69-2.26,25.89-9.92,39.27-13.58s30.3-1.83,37.34,10.13c6.58,11.17,1.49,25.47-5,36.69S403.5,133,404.24,145.91c1.12,19.73,22.14,33.1,26.05,52.47,3.33,16.48-7.31,33.52-22,41.65s-32.48,8.79-49.12,6.45-32.79-7.46-49.37-10.22c-8.46-1.4-17.62-2.46-23.93-8.26-6-5.47-8-13.95-9.2-21.95a197.69,197.69,0,0,1-.87-53.34"/></g><g class="cls-4"><path class="cls-5" d="M246.58,94.72c.45-14.19,1-29.92,10.81-41.22,11.79-13.59,28.77-9.22,43.19-2.78,12,5.36,24.62,12,38.24,10.38,9.91-1.21,19.05-7.52,21.68-17.44a1.5,1.5,0,0,0-2.89-.8c-4.54,17.16-24.95,17.2-38.56,12.51-13.34-4.58-25.61-13.2-40.05-14-11.59-.68-21.36,5.34-27.4,15-7.11,11.41-7.61,25.33-8,38.37-.06,1.93,2.94,1.93,3,0Z"/></g><g class="cls-4"><path class="cls-5" d="M385.82,256.8c17.71,1.7,35.78-6.34,46-21,10.83-15.55,11.17-36.72,1.95-53.06a1.5,1.5,0,0,0-2.59,1.52c8.71,15.45,8.3,35.36-1.95,50-9.68,13.82-26.76,21.12-43.41,19.52-1.92-.19-1.91,2.81,0,3Z"/></g><rect class="cls-5" x="430.82" y="114.56" width="231" height="13.57" transform="translate(1092.64 242.69) rotate(180)"/><rect class="cls-5" x="637.4" y="25.35" width="13.91" height="89.21" transform="translate(1288.7 139.91) rotate(180)"/><rect class="cls-6" x="623.49" y="25.35" width="13.91" height="89.21" transform="translate(1260.89 139.91) rotate(180)"/><rect class="cls-5" x="609.58" y="25.35" width="13.91" height="89.21" transform="translate(1233.07 139.91) rotate(180)"/><rect class="cls-5" x="566.7" y="25.35" width="13.91" height="89.21" transform="translate(1087.26 334.87) rotate(-159.67)"/><rect class="cls-6" x="595.68" y="25.35" width="13.91" height="89.21" transform="translate(1205.26 139.91) rotate(180)"/><circle class="cls-5" cx="516.51" cy="84.73" r="26.94"/><circle class="cls-7" cx="516.51" cy="84.73" r="20.35"/><rect class="cls-5" x="500.75" y="108.77" width="31.52" height="5.79" rx="1.51" transform="translate(1033.02 223.34) rotate(180)"/><line class="cls-8" x1="516.51" y1="84.73" x2="516.51" y2="74.45"/><line class="cls-8" x1="506.08" y1="84.89" x2="516.35" y2="84.89"/><text class="cls-9" transform="translate(269.84 169.25)">M<tspan class="cls-10" x="36.58" y="0">y </tspan><tspan class="cls-11" x="72.04" y="0">S</tspan><tspan class="cls-12" x="95.53" y="0">w</tspan><tspan class="cls-13" x="128.7" y="0">eet</tspan></text><text class="cls-14" transform="translate(283.34 222.17)">Home</text><rect class="cls-15" x="361.64" y="95.87" width="17.32" height="1.57"/><rect class="cls-15" x="307.98" y="93.22" width="17.32" height="1.57"/><rect class="cls-16" x="12.32" y="8.9" width="124.26" height="176.17"/><rect class="cls-17" x="23.33" y="24.51" width="102.24" height="144.95"/><g class="cls-18"><circle class="cls-19" cx="38.27" cy="47.43" r="35.39" transform="translate(-22.33 40.96) rotate(-45)"/><path class="cls-20" d="M54.79,155.18a6.29,6.29,0,1,1,6.29,6.29A6.29,6.29,0,0,1,54.79,155.18Z"/><circle class="cls-21" cx="61.08" cy="155.18" r="14.16" transform="translate(-103.98 178.97) rotate(-76.72)"/><circle class="cls-22" cx="61.08" cy="155.18" r="22.02"/><rect class="cls-19" x="101.98" y="123.72" width="22.02" height="22.02"/><rect class="cls-23" x="90.97" y="112.71" width="44.04" height="44.04"/><polygon class="cls-24" points="61.08 54.41 49.99 83.51 72.17 83.51 61.08 54.41"/><polygon class="cls-25" points="61.08 45.1 44.68 88.16 77.48 88.16 61.08 45.1"/><polygon class="cls-26" points="101.11 63.81 97.1 56.87 105.12 56.87 101.11 63.81"/><polygon class="cls-26" points="110.55 70.11 106.54 63.16 114.56 63.16 110.55 70.11"/><polygon class="cls-26" points="103.47 77.18 99.46 70.24 107.48 70.24 103.47 77.18"/><polygon class="cls-26" points="33.34 140.8 30.25 147.74 36.43 147.74 33.34 140.8"/><polygon class="cls-26" points="40.61 134.5 37.52 141.45 43.7 141.45 40.61 134.5"/><polygon class="cls-26" points="35.16 127.43 32.07 134.37 38.24 134.37 35.16 127.43"/></g><line class="cls-27" x1="487.5" y1="170.49" x2="487.5" y2="445.75"/><path class="cls-26" d="M483.3,180.1a32.51,32.51,0,0,1,5.33-3.92.75.75,0,0,0-.76-1.29,34.63,34.63,0,0,0-5.63,4.15c-.72.64.34,1.7,1.06,1.06Z"/><path class="cls-26" d="M484.61,176.21l-2.9,1.58c-.85.46-.09,1.76.76,1.3l2.9-1.58c.85-.46.09-1.76-.76-1.3Z"/><path class="cls-26" d="M488.84,192.55A43.84,43.84,0,0,1,503.31,213c.31.91,1.76.52,1.44-.4a45.13,45.13,0,0,0-14.85-21.15c-.75-.6-1.82.46-1.06,1.06Z"/><path class="cls-26" d="M496.27,204.18a6.45,6.45,0,0,1,1.24-3.2c.57-.78-.73-1.53-1.29-.76a8,8,0,0,0-1.45,4c-.09,1,1.41,1,1.5,0Z"/><path class="cls-26" d="M484,177.61c-12.7,3.65-23.46,12.48-31.44,23s-13.43,22.74-18.25,35.05-9.12,24.85-15.08,36.64c-2.52,5-5.39,9.9-9.39,13.81,10-2.44,19.24-7.75,27.11-14.43s14.5-14.73,20.47-23.17a86.23,86.23,0,0,0,6.24-9.9c9.93-19,8.53-42.93,21.09-60.26"/><path class="cls-26" d="M483.8,176.89c-20.35,6.21-34,23.35-43,41.84-5,10.28-8.86,21.08-13,31.74-4.64,12-9.36,25.69-18.53,35.13a.75.75,0,0,0,.73,1.25c22.65-5.87,39.73-24.23,51.76-43.5,12.4-19.86,10.12-45.31,23.6-64.6.55-.8-.75-1.55-1.29-.76C471.54,196,473,219.16,463,238.25c-10.85,20.78-30.18,41.14-53.38,47.16l.73,1.25c7.07-7.28,11.21-16.9,15.07-26.15,4.76-11.4,8.69-23.14,13.64-34.47,9-20.55,22.6-40.83,45.12-47.71.92-.28.52-1.73-.4-1.44Z"/><path class="cls-26" d="M500.89,204.52a104,104,0,0,0,9,52.82c5.61,12.22,13.54,23.2,20.79,34.52s14,23.3,16.71,36.46q1.1-21.94,1.2-43.91a88.74,88.74,0,0,0-.5-11.87,63.28,63.28,0,0,0-2.62-11.1A97.32,97.32,0,0,0,528,229.5c-8-9.67-17.74-17.7-27.52-25.55"/><path class="cls-26" d="M500.14,204.52a108,108,0,0,0,14.16,63c11.44,20.06,27.24,38,32.38,61,.19.86,1.43.62,1.47-.19q1-19.95,1.17-39.92c.11-11.94-1-22.53-5.5-33.71-8.74-21.66-25-36.94-42.82-51.27-.75-.6-1.81.46-1.06,1.06C518,219,534.49,234.57,543,256.71c4.29,11.12,4.92,21.91,4.8,33.69q-.21,19-1.16,37.92l1.48-.2c-4.76-21.34-18.59-38.41-29.74-56.68-12.45-20.4-18.77-42.95-16.75-66.92.09-1-1.42-1-1.5,0Z"/><path class="cls-26" d="M493.36,314.87a52,52,0,0,0,20,17.78c6,3,12.54,4.81,18.91,7s12.73,4.72,17.93,9q-6.45-8.89-13.28-17.5a43.75,43.75,0,0,0-3.91-4.47,31.18,31.18,0,0,0-4.5-3.5,48.67,48.67,0,0,0-16.81-7c-6.14-1.27-12.46-1.35-18.73-1.34"/><path class="cls-26" d="M492.72,315.25a54,54,0,0,0,22.8,19.21c11.39,5.05,24.15,6.81,34.2,14.66.6.47,1.72-.15,1.17-.91-6.54-9-13.08-20.12-22.65-26.19-10.76-6.82-22.77-8-35.22-8a.75.75,0,0,0,0,1.5c12.19,0,23.92,1.09,34.46,7.78,9.36,5.93,15.72,16.84,22.12,25.65l1.18-.91c-8.24-6.44-18.14-9-27.85-12.33C511.06,331.62,501.15,325,494,314.5c-.54-.8-1.84-.05-1.29.75Z"/><path class="cls-26" d="M500.75,257.35a35.26,35.26,0,0,0-1.8,18.11c.74,4.5,2.35,8.81,3.71,13.17s2.47,8.88,2.19,13.43q2.34-7.08,4.34-14.26a29.78,29.78,0,0,0,.9-3.93,20.86,20.86,0,0,0,.14-3.87,33.11,33.11,0,0,0-2.85-12,62.54,62.54,0,0,0-6.72-10.84"/><path class="cls-26" d="M500,257.15a37.52,37.52,0,0,0-1.49,20.19c1.73,8.39,5.78,16,5.56,24.72a.76.76,0,0,0,1.48.2c2.48-7.63,6.05-15.85,5.27-24s-4.82-14.92-9.54-21.48c-.56-.77-1.86,0-1.3.76,4.89,6.79,9.14,13.88,9.47,22.49.28,7.26-3.13,15.05-5.35,21.87l1.47.19c.18-7.09-2.31-13.46-4.3-20.16-2.46-8.24-2.69-16.18.17-24.35.32-.91-1.13-1.3-1.44-.4Z"/><path class="cls-26" d="M471,331.69c-9.35,5.71-13.44,15.39-16.9,25.78s-4.67,21.37-6.53,32.16a264.67,264.67,0,0,1-13.36,48.84,79.25,79.25,0,0,0,39.12-73c-.64-11.15-3.64-22.31-1.88-33.34"/><path class="cls-26" d="M470.59,331C456,340.46,451.71,359.94,449,375.9c-3.61,21.35-7.91,42-15.55,62.37-.24.63.57,1.17,1.1.85a80.12,80.12,0,0,0,39.6-71.06c-.3-12-3.65-23.73-2-35.75.13-.95-1.31-1.35-1.44-.4-1.33,9.73.47,19.23,1.46,28.9A81.56,81.56,0,0,1,469.54,392a79.54,79.54,0,0,1-35.74,45.86l1.1.84a290.77,290.77,0,0,0,14.68-56.95c2.71-17.06,6-39.19,21.77-49.38.8-.53,0-1.83-.76-1.3Z"/><path class="cls-26" d="M488.65,316.19c-9.93,16.71-10.38,37.51-6.91,56.64s10.5,37.42,14.67,56.41c4.86-19.14,9.76-38.51,9.85-58.25s-5.09-40.21-18.2-55"/><path class="cls-26" d="M488,315.81c-20.71,36.07-.51,77.14,7.69,113.63a.75.75,0,0,0,1.44,0c9.44-37.15,19.21-81.88-8.54-113.95-.63-.73-1.69.33-1.06,1.06C514.89,348.17,505,392.48,495.69,429h1.44c-8.09-36-28.31-76.82-7.83-112.47a.75.75,0,0,0-1.3-.76Z"/><path class="cls-26" d="M494.43,204c-12.46,9.79-20.71,24.1-26,39s-8,30.62-11.29,46.12-7.19,31.08-14.74,45c6.16-2.45,10.69-7.71,14.87-12.86q10.66-13.16,20.51-27c5.94-8.33,11.73-17,14.8-26.75,2.51-8,3.11-16.42,3.44-24.77q.74-18.9-.31-37.8"/><path class="cls-26" d="M493.9,203.48c-39.26,31.67-30.36,89.09-52.18,130.3a.75.75,0,0,0,1,1c10.12-4.46,16.73-14.93,23.25-23.39,7.67-9.93,15.6-20,21.72-31,5.6-10.07,8-20.78,8.76-32.21a374.54,374.54,0,0,0-.05-43.17c-.05-1-1.55-1-1.5,0,.68,12.89.82,25.8.27,38.69s-2.51,24.65-8.78,35.93c-5.49,9.88-12.53,19-19.36,28S452.8,328.75,442,333.51l1,1c21.75-41.07,12.89-98.49,51.95-130,.75-.6-.32-1.66-1.06-1.06Z"/><path class="cls-26" d="M488.05,171.93c1.8,6.93,8,11.86,14.45,15s13.51,4.91,19.72,8.47a39.82,39.82,0,0,1,17.52,21,46.79,46.79,0,0,0-2.92-28.8,37.41,37.41,0,0,0-20.88-19.65c-9.25-3.29-20.11-2.19-28.12,3.5"/><path class="cls-26" d="M487.33,172.13c3,9.65,11.91,14.47,20.74,17.94,6.81,2.67,13.65,5.06,19.32,9.83A40.12,40.12,0,0,1,539,216.55c.24.62,1.3.8,1.45,0,2.91-15.58-.8-32.37-13.28-42.93-11.22-9.49-27.36-11.14-39.74-2.87-.8.53-.05,1.83.75,1.29,12.28-8.19,28.28-6.23,39,3.61,11.24,10.29,14.52,25.92,11.79,40.5h1.45a41.4,41.4,0,0,0-20.24-22.69c-11.28-5.63-27.2-7.87-31.46-21.73-.28-.92-1.73-.53-1.44.4Z"/><path class="cls-26" d="M486.78,168.53c-1.28-6.64-5.62-12.39-10.87-16.66s-11.39-7.26-17.48-10.22-12.24-5.94-17.49-10.21c2.25,7.28,4.53,14.63,8.3,21.25s9.23,12.54,16.26,15.49c7.27,3,15.64,2.65,23.19.34"/><path class="cls-26" d="M487.5,168.33c-5-21.82-30.74-25.43-46-37.42-.54-.42-1.5-.06-1.25.73,3.6,11.64,7.55,24,17.08,32.25,8.95,7.75,20.57,8.49,31.59,5.36a.75.75,0,0,0-.4-1.45c-11.67,3.32-23.6,1.92-32.35-7.06-7.82-8.05-11.24-19-14.48-29.5l-1.25.73c15,11.75,40.75,15.46,45.64,36.76.22.94,1.67.54,1.45-.4Z"/><path class="cls-26" d="M486.79,165.61c-2.86-8.84-2.37-18.5-.17-27.53s6.05-17.56,9.87-26c-.87,6.67.39,13.41,1.57,20s2.25,13.42,1,20-5.24,13.1-11.53,15.47"/><path class="cls-26" d="M487.51,165.41c-5.49-18.4,2.14-36.37,9.62-53l-1.39-.38c-1.72,16.73,12.64,45.66-8.57,54.88-.88.38-.12,1.67.76,1.29,21.95-9.54,7.57-39.2,9.31-56.17a.76.76,0,0,0-1.4-.38c-7.65,17-15.39,35.35-9.77,54.15a.75.75,0,0,0,1.44-.4Z"/><path class="cls-26" d="M472.15,331.72a86.68,86.68,0,0,1,15-14.59c.76-.58,0-1.88-.76-1.3a89.12,89.12,0,0,0-15.3,14.83c-.6.74.45,1.81,1.06,1.06Z"/><path class="cls-26" d="M494.16,314.23c-2-.4-4.9-1-5.14-3.47-.09-.95-1.59-1-1.5,0,.32,3.26,3.46,4.35,6.24,4.92.94.19,1.35-1.26.4-1.45Z"/><g class="cls-28"><path class="cls-26" d="M488.56,158.32c7.6-10.42.07-24.07,6.33-34.94a.38.38,0,0,0-.65-.38c-6.27,10.9,1.24,24.57-6.32,34.94-.29.39.36.76.64.38Z"/></g><g class="cls-28"><path class="cls-26" d="M447.54,139.13c5.28,14.85,20.61,20.25,34.44,24.38a.37.37,0,0,0,.19-.72c-13.53-4-28.72-9.28-33.91-23.86-.16-.45-.88-.25-.72.2Z"/></g><g class="cls-28"><path class="cls-26" d="M497.68,172.76a48.19,48.19,0,0,1,38.85,31.71c.15.45.88.25.72-.2A48.89,48.89,0,0,0,497.88,172c-.47-.06-.68.66-.2.73Z"/></g><g class="cls-28"><path class="cls-26" d="M475.4,183.51c-12.08,10.66-17.7,25.77-23,40.55C446,242,438.18,258,424.25,271.37c-.35.33.19.86.53.53,12-11.51,20.13-25.32,25.9-40.83,6.26-16.81,11.33-34.74,25.25-47,.37-.32-.17-.85-.53-.53Z"/></g><g class="cls-28"><path class="cls-26" d="M490.84,218c-16.65,29.55-16.9,65.64-36.11,94-.27.4.38.78.65.38,19.21-28.36,19.46-64.44,36.11-94a.38.38,0,0,0-.65-.38Z"/></g><g class="cls-28"><path class="cls-26" d="M507,214.78a147.68,147.68,0,0,1,33.93,82c0,.47.79.48.75,0a148.54,148.54,0,0,0-34.15-82.5c-.31-.37-.84.16-.53.53Z"/></g><g class="cls-28"><path class="cls-26" d="M502.76,266q2,11.18,3.2,22.48c.05.47.8.48.75,0q-1.17-11.42-3.23-22.68c-.09-.47-.81-.27-.72.2Z"/></g><g class="cls-28"><path class="cls-26" d="M504.33,319.76a96.57,96.57,0,0,1,30.35,15c.39.29.77-.36.38-.65A97,97,0,0,0,504.53,319a.37.37,0,0,0-.2.72Z"/></g><g class="cls-28"><path class="cls-26" d="M464.69,344.48c-6.4,9.28-5.49,21.38-6.72,32.12-1.58,13.81-4.81,27.41-12.05,39.43-.25.41.4.79.65.37,6.38-10.58,9.7-22.42,11.48-34.59s.12-26.55,7.29-36.95c.28-.4-.37-.78-.65-.38Z"/></g><g class="cls-28"><path class="cls-26" d="M490.26,329.45a325.39,325.39,0,0,1,5.57,66.44.38.38,0,0,0,.75,0,325.88,325.88,0,0,0-5.6-66.64c-.08-.48-.81-.27-.72.2Z"/></g><path class="cls-29" d="M486.17,559.79h0a42,42,0,0,1-41.95-41.95V445.75h83.89v72.09A42,42,0,0,1,486.17,559.79Z"/><g class="cls-30"><path class="cls-29" d="M528.11,517.84V445.75H517.29A184.84,184.84,0,0,1,449.41,538a41.92,41.92,0,0,0,36.76,21.75h0A42,42,0,0,0,528.11,517.84Z"/></g><g class="cls-31"><path class="cls-32" d="M444.79,444.11c-1.83,10.68,2,21.25,12.5,25.53,7,2.88,14.81,3.37,21.79,6.56,8.15,3.72,14.38,10.38,15.05,19.62,1,13.89-8.23,27.89-2.79,41.6,4.53,11.44,17.31,16.7,22.27,27.91.39.88,1.68.12,1.3-.76C510.27,554.1,499,549,493.74,539.06c-7.61-14.32,3.7-29.93,1.73-44.87-1.56-11.83-11.53-18.48-22.18-21.71-6.47-2-13.83-2.49-19.56-6.36-7-4.74-8.84-13.73-7.5-21.61.16-.94-1.28-1.35-1.44-.4Z"/><path class="cls-32" d="M442.88,491c4.52-2.93,9.32-6.11,14.83-6.6,6.28-.56,11.88,2.7,13.19,9.11,2.1,10.34-6.53,18.22-12.58,25.28-4.38,5.11-8.42,11-8.5,17.94a21.14,21.14,0,0,0,7.89,16.53c.74.61,1.8-.45,1.06-1.06-10.18-8.39-8.57-21-1-30.46,5.43-6.79,13-13,14.58-22,1.06-6.12-.95-12.9-6.93-15.65-8.14-3.75-16.63,1.26-23.32,5.61-.81.52-.06,1.82.75,1.29Z"/><path class="cls-32" d="M466.66,442.4c1.06,11.77,10.72,22.38,22.72,23.67,17.25,1.85,14.28-20.59,27-25.69.89-.35.5-1.8-.4-1.44-9.85,3.94-9.6,15.7-16.46,22.42-6.14,6-15.74,2.81-21.72-1.78a24.26,24.26,0,0,1-9.64-17.18c-.08-.95-1.59-1-1.5,0Z"/><path class="cls-32" d="M528.42,460.7a31.54,31.54,0,0,0-18.62,38.79c2.44,8.05,7.17,15.12,10.91,22.59a49.77,49.77,0,0,1,4.78,13.12c1.23,6.66.07,13.34-1.12,19.92-.17.94,1.27,1.34,1.44.39,1.47-8.14,2.63-16.23.26-24.32-2.08-7.09-6-13.45-9.46-19.93-4.4-8.24-8.06-17-6.41-26.55a29.87,29.87,0,0,1,18.62-22.56c.88-.36.49-1.81-.4-1.45Z"/><path class="cls-32" d="M473.94,565.7a69.23,69.23,0,0,1-5.73-25.79,48.19,48.19,0,0,1,.85-12.23c1.06-4.32,6-6.15,8.58-2.22a23.36,23.36,0,0,1,2.63,6.51c3.54,12.46,1.43,26.44,10.37,36.94.62.74,1.68-.33,1.06-1.06-7.31-8.58-7-19.93-8.72-30.44-.77-4.64-2.71-16.61-9.53-16.48-7,.12-6.67,11.72-6.75,16.28a71.09,71.09,0,0,0,5.94,29.25c.38.88,1.67.12,1.3-.76Z"/></g><circle class="cls-33" cx="425.18" cy="89.49" r="13.11" transform="translate(61.25 326.86) rotate(-45)"/><path class="cls-34" d="M413.44,30.5h32.34A28.23,28.23,0,0,1,474,58.73V88.18a0,0,0,0,1,0,0h-88.8a0,0,0,0,1,0,0V58.73A28.23,28.23,0,0,1,413.44,30.5Z"/><path class="cls-35" d="M429.37,31.91a65.58,65.58,0,0,1,8.19-10.32C453.23,5.62,474.38,2.68,483.44,2h0c35.83,0,64.88,30,64.88,66.89V553.23"/><path class="cls-34" d="M504.46,538.81h82.48a12.5,12.5,0,0,1,12.5,12.5v7.16a0,0,0,0,1,0,0H492a0,0,0,0,1,0,0v-7.16A12.5,12.5,0,0,1,504.46,538.81Z"/><path class="cls-36" d="M599.44,558.48a19.67,19.67,0,0,0-19.66-19.67H564.93c-7.53,8-18.24,14.84-27.17,19.67Z"/><g class="cls-30"><path class="cls-17" d="M390.49,88.18H474V74.91a44.26,44.26,0,0,0-12.74-31.12A148.42,148.42,0,0,1,390.49,88.18Z"/></g><path class="cls-37" d="M596.35,345.78a5.65,5.65,0,0,0-.05.71v-.36A1.29,1.29,0,0,1,596.35,345.78Z"/><path class="cls-37" d="M621,352.61a9.48,9.48,0,0,1-13.34.86,7.86,7.86,0,0,1-.72-11.12,6.62,6.62,0,0,1,9.34-.6,5.61,5.61,0,0,1,.51,7.91,4.72,4.72,0,0,1-3.29,1.62A4.79,4.79,0,0,1,610,350.1a4.13,4.13,0,0,1-.37-5.86,1.54,1.54,0,0,1,2.21-.14,1.57,1.57,0,0,1,.15,2.21,1,1,0,0,0,.09,1.42,1.66,1.66,0,0,0,2.33-.14,2.48,2.48,0,0,0-.22-3.48,3.48,3.48,0,0,0-4.91.32,4.71,4.71,0,0,0-1.16,3.43,4.63,4.63,0,0,0,1.6,3.25,6.43,6.43,0,0,0,4.56,1.56,6.28,6.28,0,0,0,4.34-2.14,8.28,8.28,0,0,0-.75-11.69,10.75,10.75,0,0,0-15.16,1c-2.19,2.48-3.24,4.67-3.24,6.67V494.25a1.58,1.58,0,0,1-3.15,0V412.89a16.35,16.35,0,0,0-10.85-13.24,12.77,12.77,0,0,0-16.31,7.88,9.94,9.94,0,0,0,6.1,12.64,7.63,7.63,0,0,0,9.72-4.7,5.66,5.66,0,0,0-.25-4.42,5.79,5.79,0,0,0-3.3-3,4.34,4.34,0,0,0-5.51,2.66,1.58,1.58,0,0,1-2,1,1.6,1.6,0,0,1-1-2,7.48,7.48,0,0,1,9.5-4.59,9,9,0,0,1,5.5,11.39,10.8,10.8,0,0,1-10.19,7.23,10.6,10.6,0,0,1-3.52-.61,13.07,13.07,0,0,1-8.05-16.64,15.94,15.94,0,0,1,20.32-9.82,19.62,19.62,0,0,1,9.81,7.57V346.49a5.65,5.65,0,0,1,.05-.71c.19-2.58,1.49-5.21,4-8a13.9,13.9,0,0,1,19.59-1.26A11.43,11.43,0,0,1,621,352.61Z"/><path class="cls-38" d="M595.25,377.59h0a28.84,28.84,0,0,1-28.84-28.84h0a28.84,28.84,0,0,1,28.84,28.84Z"/><path class="cls-38" d="M605.63,486.89h0a65.55,65.55,0,0,1,55.25-74.42h0A65.53,65.53,0,0,1,605.63,486.89Z"/><path class="cls-38" d="M592,483.4h0a34.08,34.08,0,0,1-25-41.22h0a34.09,34.09,0,0,1,25,41.22Z"/><path class="cls-38" d="M612.72,419.79h0A15.73,15.73,0,0,1,604,440.25h0a15.74,15.74,0,0,1,8.74-20.46Z"/><path class="cls-38" d="M653.33,479.15l-.12.28a18.88,18.88,0,0,1-24.86,9.73l-.27-.12.12-.27A18.88,18.88,0,0,1,653.05,479Z"/><path class="cls-38" d="M584.87,488.24h0a10.85,10.85,0,0,1-13.93-6.45h0a10.86,10.86,0,0,1,13.93,6.45Z"/><path class="cls-38" d="M622.11,380.9h0a22.28,22.28,0,0,1-21,23.53h0a22.28,22.28,0,0,1,21-23.53Z"/><g class="cls-28"><path class="cls-37" d="M611.08,478.27A320,320,0,0,1,650,425.07c.32-.36-.2-.89-.53-.53a321.82,321.82,0,0,0-39,53.35.38.38,0,0,0,.65.38Z"/></g><g class="cls-28"><path class="cls-37" d="M570.52,447.18a130.87,130.87,0,0,1,16.06,29.27c.17.45.9.26.72-.2a131.35,131.35,0,0,0-16.13-29.45c-.29-.38-.94,0-.65.38Z"/></g><g class="cls-28"><path class="cls-37" d="M634.46,486.35a47.67,47.67,0,0,1,11.69-4.91.37.37,0,0,0-.2-.72,48.34,48.34,0,0,0-11.87,5,.38.38,0,0,0,.38.65Z"/></g><g class="cls-28"><path class="cls-37" d="M605.65,435q2.6-5.71,5.71-11.16a.37.37,0,0,0-.64-.38q-3.13,5.44-5.72,11.16c-.2.44.45.82.65.38Z"/></g><g class="cls-28"><path class="cls-37" d="M604.25,400.75l14.16-15.57c.33-.36-.2-.89-.53-.53l-14.16,15.57c-.33.36.2.89.53.53Z"/></g><g class="cls-28"><path class="cls-37" d="M571.27,352.68a126,126,0,0,1,19.93,19.65c.31.37.83-.16.53-.53a126,126,0,0,0-19.93-19.65c-.37-.29-.91.23-.53.53Z"/></g><path class="cls-33" d="M567.72,494.25h68.16a0,0,0,0,1,0,0v46.42a17.81,17.81,0,0,1-17.81,17.81H585.53a17.81,17.81,0,0,1-17.81-17.81V494.25A0,0,0,0,1,567.72,494.25Z"/><g class="cls-39"><path class="cls-32" d="M566.19,516.65a28.54,28.54,0,0,0,18.21-29.09c-.07-1-1.57-1-1.5,0a27.05,27.05,0,0,1-17.11,27.64c-.89.36-.5,1.81.4,1.45Z"/><path class="cls-32" d="M566.07,508.67a18.29,18.29,0,0,0,9.54-20.52c-.2-.94-1.65-.54-1.45.4a16.73,16.73,0,0,1-8.85,18.82c-.85.45-.1,1.74.76,1.3Z"/><path class="cls-32" d="M568.36,528.63a32.86,32.86,0,0,1,31.07,34,.75.75,0,0,0,1.5,0,34.39,34.39,0,0,0-32.57-35.48c-1-.06-1,1.44,0,1.5Z"/><path class="cls-32" d="M567.67,535.49a26.74,26.74,0,0,1,20.88,26.28.75.75,0,0,0,1.5,0,28.25,28.25,0,0,0-22-27.73c-.94-.22-1.34,1.22-.4,1.45Z"/><path class="cls-32" d="M590.31,493.88c-3.53,11.56,3.13,21.75,10.27,30.29,4.73,5.65,10,11.24,12.68,18.22a30.17,30.17,0,0,1-1,23.52c-.4.87.89,1.63,1.29.76,5.1-11.15,3.53-22.94-3.38-32.91C602,522,586.79,510.54,591.76,494.28c.28-.92-1.17-1.32-1.45-.4Z"/><path class="cls-32" d="M621.22,492.73a26.6,26.6,0,0,0,18.61,23.78c.92.3,1.32-1.14.4-1.44a25.06,25.06,0,0,1-17.51-22.34c-.08-1-1.58-1-1.5,0Z"/><path class="cls-32" d="M612.25,490.6a53.87,53.87,0,0,0,26.31,41.22.75.75,0,0,0,.76-1.3,52.28,52.28,0,0,1-25.57-39.92c-.09-1-1.59-1-1.5,0Z"/><line class="cls-40" x1="562.17" y1="509.94" x2="642.53" y2="509.94"/></g><g class="cls-30"><path class="cls-29" d="M575.59,544.48l-2,.48a16.67,16.67,0,0,0-.76,1.6,28,28,0,0,0,22.9,11.92h12.14a28,28,0,0,0,28-28V494.25h-8.07A108.45,108.45,0,0,1,575.59,544.48Z"/></g><path class="cls-29" d="M77.69,290.08h230a50.16,50.16,0,0,1,50.16,50.16v62.57a0,0,0,0,1,0,0H27.53a0,0,0,0,1,0,0V340.24A50.16,50.16,0,0,1,77.69,290.08Z"/><path class="cls-41" d="M337.62,342.51h26.53a14.91,14.91,0,0,1,14.91,14.91V503.73a0,0,0,0,1,0,0H322.71a0,0,0,0,1,0,0V357.43a14.91,14.91,0,0,1,14.91-14.91Z"/><path class="cls-33" d="M343.92,342.51h26.53a14.91,14.91,0,0,1,14.91,14.91V503.73a0,0,0,0,1,0,0H329a0,0,0,0,1,0,0V357.43A14.91,14.91,0,0,1,343.92,342.51Z"/><path class="cls-41" d="M21.21,342.51H47.74a14.91,14.91,0,0,1,14.91,14.91V503.73a0,0,0,0,1,0,0H6.29a0,0,0,0,1,0,0V357.43A14.91,14.91,0,0,1,21.21,342.51Z"/><path class="cls-33" d="M14.91,342.51H41.45a14.91,14.91,0,0,1,14.91,14.91V503.73a0,0,0,0,1,0,0H0a0,0,0,0,1,0,0V357.43A14.91,14.91,0,0,1,14.91,342.51Z"/><rect class="cls-29" x="56.36" y="467.03" width="272.64" height="36.7"/><path class="cls-41" d="M56.36,412.24H330.31a0,0,0,0,1,0,0v56.31a7.91,7.91,0,0,1-7.91,7.91H64.28a7.92,7.92,0,0,1-7.92-7.92V412.24a0,0,0,0,1,0,0Z"/><rect class="cls-33" x="56.36" y="402.81" width="273.95" height="64.23"/><polygon class="cls-34" points="373.57 562.72 365.38 562.72 353.25 503.74 369.63 503.74 373.57 562.72"/><polygon class="cls-34" points="24.25 562.72 32.44 562.72 44.57 503.74 28.18 503.74 24.25 562.72"/><path class="cls-42" d="M221.17,63.51c-14.23.5-25.36,12-24.88,25.78,0,.32.06.63.09,1-4.8-3.75-10.91-4.94-16.19-2.52-8,3.67-11.07,14.25-6.79,23.62s14.27,14,22.31,10.33c5.63-2.58,8.79-8.55,8.72-15.11a26.17,26.17,0,0,0,18.5,6.67c14.23-.5,25.36-12,24.88-25.78S235.39,63,221.17,63.51Z"/><path d="M247.77,89.88c-6.6-4.41-15.08-6-23.07-5.17-9.79,1-19,5.21-27.47,10.19a63.65,63.65,0,0,1-10.11,5.3,16.78,16.78,0,0,1-11.19.57,10.81,10.81,0,0,1-4-2.49,20.33,20.33,0,0,0,1.43,13.07c4.29,9.38,14.27,14,22.31,10.33,5.63-2.58,8.79-8.55,8.72-15.11a26.17,26.17,0,0,0,18.5,6.67C236.31,112.77,247,102.53,247.77,89.88Z"/><ellipse class="cls-42" cx="222.42" cy="145.9" rx="47.52" ry="49.15" transform="translate(-5.04 7.98) rotate(-2.03)"/><path class="cls-43" d="M200.38,180.78s-1.55,30.22-1.32,36.77c2.76,3.84,13.52,11.33,13.52,11.33l16.7-9.78-.74-21Z"/><path class="cls-44" d="M200,189.69c6.17,8.93,15.58,18.06,29,20.62l-.43-12.17-28.16-17.36S200.19,184.54,200,189.69Z"/><path class="cls-43" d="M185,163.34c2.11,6.22,14.53,38.66,44.2,40a4.5,4.5,0,0,0,1.67-.26c20.38-7.43,37.69-23.65,37-44.34-.75-21-14.73-45.38-30.54-47.44s-40.33,9.3-47.45,30.54a198.89,198.89,0,0,0-5,19.42A4.2,4.2,0,0,0,185,163.34Z"/><path class="cls-43" d="M120.59,379.21l91.55,17.56a7.56,7.56,0,0,1,5.64,4.73L231,436.08a9.82,9.82,0,0,1-3.44,11.45c-5.42,3.92-13.52,6.67-19.15-5.4a199,199,0,0,1-8.8-21.49,7.55,7.55,0,0,0-8.17-5.13c-16.14,2.14-58,6.95-74.78,1.71C95.69,410.67,120.59,379.21,120.59,379.21Z"/><path class="cls-43" d="M251.67,459.17l-22,60a10.39,10.39,0,0,0,.46,8.23l17.16,34.32a12.76,12.76,0,0,0,10.67,7c8.66.52,20.91-.27,14.73-10-5.85-9.2-12.24-18.39-16.1-23.85a10.36,10.36,0,0,1-.83-10.56l30-61.28L253,459.17"/><g class="cls-30"><path class="cls-43" d="M277.64,477.16a1.74,1.74,0,0,0-.82-.51,79.64,79.64,0,0,0-18-4.61c-3.75-.5-7.65-.78-11.21-1.92l-2.08,5.67a36.65,36.65,0,0,0,24.67,17.5,6.73,6.73,0,0,0,.67.1L277,481c.23-.78.48-1.55.7-2.33A1.76,1.76,0,0,0,277.64,477.16Z"/></g><path class="cls-32" d="M154.67,435.57s-6.55-32.76,5.24-48.49C183.51,391,215,397.56,215,397.56s20.48,5.46,33.36,9a9.38,9.38,0,0,1,6.37,12.16c-6.85,19.38-16.13,50.93-16.13,50.93s28.84,24.91,59,7.87C308,447.37,330.31,391,319.83,377.9,312,367.42,253,350.38,253,350.38l-98.31-3.94s-90.44,1.31-94.38,45.88C57.67,414.6,93.06,435.57,154.67,435.57Z"/><g class="cls-30"><path class="cls-32" d="M154.76,398.5c-3.37.24-6.79.71-10,1-15.76,1.41-32.39-3.79-43.23-15.31a43.27,43.27,0,0,1-11.34-25.25c-15.7,6.79-28.45,17.25-29.88,33.38-2.62,22.28,32.77,43.25,94.38,43.25C154.67,435.57,150.54,414.89,154.76,398.5Z"/></g><path class="cls-45" d="M158.6,280.91s-22.28,26.21-1.31,45.87A234,234,0,0,1,156,353s-55-19.66-17-85.2C145.49,254.69,158.6,280.91,158.6,280.91Z"/><path class="cls-43" d="M257.57,280.91s22.28,26.21,1.31,45.87A234,234,0,0,0,260.19,353s55.05-19.66,17-85.2C270.68,254.69,257.57,280.91,257.57,280.91Z"/><g class="cls-30"><path class="cls-32" d="M263.6,396.35a17.57,17.57,0,0,0-6.87-1.83c-29.7-3.74-59.39-10.63-89.09-14.36-2.45-.31-5.22-.54-7.12,1-1.42,1.17-2,4.87-1.79,7.62.38-.6.76-1.19,1.18-1.74C183.51,391,215,397.56,215,397.56s20.48,5.46,33.36,9a9.38,9.38,0,0,1,6.37,12.16c-6.85,19.38-16.13,50.93-16.13,50.93a66,66,0,0,0,20.91,11.26,10.42,10.42,0,0,0,1.62-1.29c3.51-3.46,4.06-8.86,4.39-13.78Q267.25,440,269,414.07a35.42,35.42,0,0,0-.24-9.76A11.89,11.89,0,0,0,263.6,396.35Z"/></g><g class="cls-30"><path class="cls-43" d="M157.1,419a84.18,84.18,0,0,1,5.38-31.72l-12.89-2.48a25.06,25.06,0,0,0-2.27,3.14c-5.7,9.22-7.16,20.4-7.92,31.21,0,.15,0,.31,0,.46C145.08,419.59,151.12,419.35,157.1,419Z"/></g><path class="cls-17" d="M156,284.84s-21-5.25-28.84-22.29c7.12-10.67,20.28-25.57,28-34.05a29.63,29.63,0,0,1,14.6-8.77c10.65-2.71,27.54-7,29.33-7,3.94,7.86,23.53,10.48,30.08,2.61,7.58-.75,18,2,25.29,4.45A29.69,29.69,0,0,1,268.6,230l23.7,31.24s-7.86,17-32.77,21c-1.31,26.21-1.31,64.22-1.31,64.22l-103.55-1.31Z"/><g class="cls-46"><path class="cls-17" d="M258.22,346.44s0-13.17.27-29.35c-5.69-6.83-12.57-12.78-19.51-18.4-10.76-8.72-22.06-17.12-30.33-28.23-11.89-16-16.4-36.25-16.38-56.32-6.34,1.48-15.71,3.86-22.53,5.59a29.7,29.7,0,0,0-14.61,8.77c-7.71,8.48-20.87,23.38-28,34.05,7.87,17,28.84,22.29,28.84,22.29l-1.31,60.29Z"/></g><path class="cls-42" d="M187.61,153.69c1.31,0,23.21-11.31,28.87-36.44,1.73,11.75,13.94,23.12,31.16,27.75s20.2,15,20.3,17.64c.75-15.76.05-35.41-6.68-40.42s-16.42-19.09-45.1-14.14c-16.94,3.23-31.77,28.68-29.86,45.66"/><path class="cls-42" d="M267.08,149.9A76.73,76.73,0,0,1,270.44,162a48.64,48.64,0,0,1,.95,12.61,22.49,22.49,0,0,1-.48,3.23,19.57,19.57,0,0,1-1,3.09c-.8,2-1.78,3.81-2.66,5.64a27.92,27.92,0,0,0-2.2,5.61,12.27,12.27,0,0,0-.12,6l-.29.1a12.36,12.36,0,0,1-.57-6.24,27.73,27.73,0,0,1,1.7-6.07c.75-1.94,1.56-3.82,2.15-5.71a19.77,19.77,0,0,0,.95-5.74,56.06,56.06,0,0,0-1.38-11.89,112.22,112.22,0,0,0-3.13-11.71Z"/><path class="cls-43" d="M192.31,158.85c1.68,5.92-.35,11.68-4.53,12.86s-8.92-2.66-10.6-8.58.35-11.68,4.53-12.86S190.63,152.93,192.31,158.85Z"/><g class="cls-47"><path class="cls-1" d="M135.82,243.5l144.58-1.35a.75.75,0,0,0,0-1.5L135.82,242a.75.75,0,0,0,0,1.5Z"/><path class="cls-1" d="M135.82,227.24,280.4,225.9a.75.75,0,0,0,0-1.5l-144.58,1.34a.75.75,0,0,0,0,1.5Z"/><path class="cls-1" d="M127.41,260.07q83.68,1.71,167.37-.32a.75.75,0,0,0,0-1.5q-83.67,2-167.37.32a.75.75,0,0,0,0,1.5Z"/><path class="cls-1" d="M127.41,276.34q83.68,1.71,167.37-.32a.75.75,0,0,0,0-1.5q-83.67,2-167.37.32a.75.75,0,0,0,0,1.5Z"/></g><path class="cls-48" d="M250.08,251.9a37,37,0,0,1,9.2,30.56c-.89,5.45-3,11-1.8,16.34"/><line class="cls-48" x1="158.6" y1="275.27" x2="158.6" y2="291.87"/><path class="cls-42" d="M214,157.35c.09,2.53-1,4.62-2.45,4.67s-2.7-2-2.79-4.49,1-4.62,2.46-4.68S213.88,154.81,214,157.35Z"/><path class="cls-42" d="M248.71,156.77c.09,2.53-1,4.63-2.46,4.68s-2.69-2-2.78-4.49,1-4.63,2.46-4.68S248.62,154.24,248.71,156.77Z"/><circle class="cls-49" cx="212.69" cy="158.05" r="14.42" transform="translate(-36.82 68.82) rotate(-16.94)"/><path class="cls-49" d="M235,157.26a14.41,14.41,0,1,1,14.92,13.9A14.41,14.41,0,0,1,235,157.26Z"/><path class="cls-50" d="M241.58,140.63s7.63-6.83,15.72-.56"/><path class="cls-50" d="M202.28,142s7.63-6.83,15.72-.56"/><path class="cls-50" d="M222,178.18s5.95,11.67,17.86,4.43"/><path class="cls-50" d="M218.62,177.51a4.63,4.63,0,0,0,5.2-1.49"/><line class="cls-49" x1="227.11" y1="154.85" x2="235.03" y2="154.85"/><path class="cls-51" d="M258,370H153.14a5.9,5.9,0,0,1-5.9-5.9h0a5.9,5.9,0,0,1,5.9-5.9H258a5.9,5.9,0,0,1,5.9,5.9h0A5.9,5.9,0,0,1,258,370Z"/><path class="cls-52" d="M258,358.24H151.83l-12-68.92a5.51,5.51,0,0,1,5.43-6.45H265.76a5.51,5.51,0,0,1,5.41,6.54Z"/><path class="cls-51" d="M197.71,321.54a7.87,7.87,0,1,1,7.86,7.86A7.87,7.87,0,0,1,197.71,321.54Z"/><g class="cls-46"><path class="cls-51" d="M257.57,358.24a207.08,207.08,0,0,1-104.32-75.37h-8a5.51,5.51,0,0,0-5.43,6.45l12,68.92Z"/></g><g class="cls-53"><path class="cls-51" d="M263.19,366.88a7.6,7.6,0,0,0-2.63-1.6c-2.75-1-5.76-.62-8.67-.39a107.23,107.23,0,0,1-46.45-6.65h-52.3a5.9,5.9,0,1,0,0,11.8H258A5.86,5.86,0,0,0,263.19,366.88Z"/></g><path class="cls-42" d="M242.46,103.83c8.49-3.58,10.31-12.62,11-20.93.08-1-1.42-1-1.5,0-.65,7.5-2.11,16.19-9.93,19.49-.88.37-.49,1.82.4,1.44Z"/><path class="cls-42" d="M198.15,89.51a20.78,20.78,0,0,1,3.42-23.4c.64-.72-.41-1.78-1.06-1.06a22.38,22.38,0,0,0-3.66,25.22c.41.87,1.71.11,1.3-.76Z"/><path class="cls-42" d="M194.42,147.45c-3.4,3.13-4.45,7.59-4.2,11.78a68.14,68.14,0,0,0,2.61,13.12,47.51,47.51,0,0,1,1.4,6.91,24.6,24.6,0,0,1-.22,7.12,55.28,55.28,0,0,1-4.73,13.09l-.27-.12c1.5-4.34,3.08-8.7,3.51-13.18a22.64,22.64,0,0,0-.22-6.63,45.22,45.22,0,0,0-1.77-6.51c-.73-2.16-1.54-4.33-2.23-6.6a23.63,23.63,0,0,1-1.08-7.15,15.75,15.75,0,0,1,1.8-7.18,10.44,10.44,0,0,1,5.25-4.91Z"/><path class="cls-1" d="M231.92,71.37a17.5,17.5,0,0,1,5.79,22.34,21.54,21.54,0,0,0-5.79-22.34Z"/><path class="cls-1" d="M225.85,115.44a46.88,46.88,0,0,0,2.93,5.63,42.86,42.86,0,0,0,3.68,5.1,43.45,43.45,0,0,0,4.41,4.49l1.2,1,1.25,1,1.28,1c.45.28.89.59,1.32.89a27.39,27.39,0,0,1-2.87-1.43l-1.35-.86-1.32-.94a29.18,29.18,0,0,1-8.27-9.8A25.68,25.68,0,0,1,225.85,115.44Z"/><path class="cls-1" d="M233.91,90.79a34,34,0,0,0,.09-4.93,34.27,34.27,0,0,0-.75-4.87,9.24,9.24,0,0,1,.66,9.8Z"/><polygon class="cls-20" points="310.13 57.88 306.55 71.36 313.71 71.36 310.13 57.88"/><circle class="cls-54" cx="304.66" cy="69.23" r="6.95"/><polygon class="cls-24" points="411.65 168.75 407.95 175.15 415.34 175.15 411.65 168.75"/><polygon class="cls-24" points="419.04 175.45 415.34 181.85 422.74 181.85 419.04 175.45"/><polygon class="cls-24" points="410.07 178.65 406.37 185.05 413.77 185.05 410.07 178.65"/><polygon class="cls-26" points="287.06 131.37 284.65 127.19 289.47 127.19 287.06 131.37"/><polygon class="cls-26" points="291.88 127 289.47 122.83 294.29 122.83 291.88 127"/><polygon class="cls-26" points="286.03 124.91 283.62 120.74 288.44 120.74 286.03 124.91"/></g></g></g></svg>