<svg xmlns="http://www.w3.org/2000/svg" viewBox="0 0 382 87"><defs><style>.cls-1{fill:#373747;}.cls-2,.cls-3,.cls-4{fill:#fff;}.cls-3{opacity:0.5;}.cls-4{opacity:0.13;}</style></defs><title>search</title><g id="Layer_2" data-name="Layer 2"><g id="Layer_1-2" data-name="Layer 1"><rect class="cls-1" width="382" height="87" rx="43.5"/><path class="cls-2" d="M81,47.81a8.55,8.55,0,0,0,2,4.34,5.68,5.68,0,0,0,4.19,1.42,6.59,6.59,0,0,0,2.58-.48,4,4,0,0,0,1.85-1.58,5,5,0,0,0,.69-2.72,5.78,5.78,0,0,0-.56-2.62A6.5,6.5,0,0,0,90,44.05a20.67,20.67,0,0,0-3.46-2.12,34.2,34.2,0,0,1-3.45-2,13.26,13.26,0,0,1-2.62-2.26A9.4,9.4,0,0,1,78.78,35a8.66,8.66,0,0,1-.6-3.3,8.54,8.54,0,0,1,1.49-5.1A9.09,9.09,0,0,1,84,23.41a18.16,18.16,0,0,1,6.53-1.09,34.46,34.46,0,0,1,4.15.24,40.82,40.82,0,0,1,4.51.81v7.08H95.83a10.34,10.34,0,0,0-1.18-3.06,4.55,4.55,0,0,0-1.8-1.67,6.82,6.82,0,0,0-5.2,0,4,4,0,0,0-1.73,1.45,4.09,4.09,0,0,0-.64,2.33,5.28,5.28,0,0,0,.55,2.46,6.53,6.53,0,0,0,1.84,2,26.07,26.07,0,0,0,3.76,2.26,24.24,24.24,0,0,1,4.73,3.06,10,10,0,0,1,2.54,3.28,9.79,9.79,0,0,1,.82,4.11,9.55,9.55,0,0,1-1.4,5.21,8.81,8.81,0,0,1-4.05,3.4,15,15,0,0,1-6.15,1.18,49.44,49.44,0,0,1-5.19-.28,42.81,42.81,0,0,1-5.06-.82V47.81Z"/><path class="cls-2" d="M125.83,51.6a16.07,16.07,0,0,1-4.93,3.73,13.6,13.6,0,0,1-5.61,1.1q-5.7,0-8.56-3.11t-2.87-9.24a14.71,14.71,0,0,1,1.48-6.83,10,10,0,0,1,4.19-4.34,12.85,12.85,0,0,1,6.29-1.48,13.41,13.41,0,0,1,3.9.51,9.3,9.3,0,0,1,2.87,1.43,8,8,0,0,1,2,2.21A12.17,12.17,0,0,1,126,39.1a22.55,22.55,0,0,1,.51,4.9H111q0,4.43,1.57,6.51a5.52,5.52,0,0,0,4.73,2.09,7.68,7.68,0,0,0,3.34-.7,11.65,11.65,0,0,0,3.23-2.45Zm-6.59-10.23a14.39,14.39,0,0,0-1-5.57A3,3,0,0,0,115.43,34a3.35,3.35,0,0,0-3,1.9,12.68,12.68,0,0,0-1.33,5.5Z"/><path class="cls-2" d="M144.71,52.84l-.37-.12a14.43,14.43,0,0,1-3.89,2.83,9.39,9.39,0,0,1-4,.88,8.15,8.15,0,0,1-3.65-.77,5.34,5.34,0,0,1-2.34-2.13,6.2,6.2,0,0,1-.8-3.15,6.32,6.32,0,0,1,3.53-5.66q3.53-2.05,10.71-2.6V39.8a9.24,9.24,0,0,0-.52-3.5,3.19,3.19,0,0,0-3.24-2.23,4.45,4.45,0,0,0-1.94.39,3.64,3.64,0,0,0-1.48,1.47,8.62,8.62,0,0,0-1,3h-4.61V34.51c1.49-.67,2.74-1.18,3.73-1.54a27.89,27.89,0,0,1,2.94-.89,21.63,21.63,0,0,1,2.6-.5,17.76,17.76,0,0,1,2.3-.15,11.87,11.87,0,0,1,4.72.78,5.24,5.24,0,0,1,2.65,2.54,11,11,0,0,1,.88,4.86v9.52c0,1.08,0,1.91.07,2.49a5.12,5.12,0,0,0,.24,1.31,1.94,1.94,0,0,0,.4.68,1.9,1.9,0,0,0,.6.42,9.62,9.62,0,0,0,1.33.4V56h-9.08Zm-.81-8.32a10,10,0,0,0-5.6,1.41,4.46,4.46,0,0,0-1.82,3.86,3,3,0,0,0,.83,2.31,3.17,3.17,0,0,0,2.29.79,4.09,4.09,0,0,0,2.13-.6,4.49,4.49,0,0,0,1.58-1.6,4,4,0,0,0,.59-2.12Z"/><path class="cls-2" d="M166.14,35.31l.32.08a11.84,11.84,0,0,1,3.66-3,9.05,9.05,0,0,1,4.08-.93,16.53,16.53,0,0,1,3.12.32v6.74H172.9a5.55,5.55,0,0,0-1.08-2.18,2.3,2.3,0,0,0-1.8-.75,2.65,2.65,0,0,0-1.18.33,4.47,4.47,0,0,0-1.2.92,4,4,0,0,0-.78,1.22,5.77,5.77,0,0,0-.3,1.26,17.57,17.57,0,0,0-.08,1.91V49a21.31,21.31,0,0,0,.17,3.25,2.78,2.78,0,0,0,.69,1.45,3.21,3.21,0,0,0,1.73.75V56H157V54.43a3.29,3.29,0,0,0,1.62-.83,2.88,2.88,0,0,0,.61-1.39,22,22,0,0,0,.16-3.2V39q0-1.8-.06-2.67a4.05,4.05,0,0,0-.3-1.39,1.94,1.94,0,0,0-.7-.85,4.56,4.56,0,0,0-1.65-.58V31.82l6.69-.19h3.07Z"/><path class="cls-2" d="M198,49.79l1.88,2.27a16.86,16.86,0,0,1-4.63,3.36,11.73,11.73,0,0,1-4.87,1c-3.53,0-6.23-1-8.08-3.11s-2.78-5.09-2.78-9A14.72,14.72,0,0,1,181,37.35a10.27,10.27,0,0,1,4.38-4.42,13.9,13.9,0,0,1,6.55-1.5,27.37,27.37,0,0,1,3.94.28,25.47,25.47,0,0,1,3.58.77v5.88h-4.84a8.2,8.2,0,0,0-1.1-3.34,2.39,2.39,0,0,0-2.1-1.05,3.53,3.53,0,0,0-1.72.45A3.93,3.93,0,0,0,188.27,36a10.57,10.57,0,0,0-1,3,25.71,25.71,0,0,0-.36,4.73,18.47,18.47,0,0,0,.54,4.82,6,6,0,0,0,1.73,3,4.62,4.62,0,0,0,3.15,1.06A6.14,6.14,0,0,0,195,52,13.1,13.1,0,0,0,198,49.79Z"/><path class="cls-2" d="M212,35a17.26,17.26,0,0,1,4-2.79,8.24,8.24,0,0,1,3.57-.82,7.36,7.36,0,0,1,4.15,1,5.64,5.64,0,0,1,2.14,2.84,14.34,14.34,0,0,1,.67,4.81V49c0,.72,0,1.39,0,2a6.81,6.81,0,0,0,.18,1.5,2.8,2.8,0,0,0,.4.92,2.24,2.24,0,0,0,.72.59,4.77,4.77,0,0,0,1.13.42V56H217.17V54.43a2.87,2.87,0,0,0,1.57-.78,3,3,0,0,0,.59-1.42,22.46,22.46,0,0,0,.16-3.22V42.64a36.19,36.19,0,0,0-.16-3.8,6.61,6.61,0,0,0-.54-2.1,2.62,2.62,0,0,0-1-1.11,3,3,0,0,0-1.57-.37,4,4,0,0,0-1.94.58,4.94,4.94,0,0,0-1.69,1.56,3.74,3.74,0,0,0-.67,2.11V49c0,.92,0,1.62,0,2.12a8.24,8.24,0,0,0,.11,1.14,3.4,3.4,0,0,0,.21.72,2.19,2.19,0,0,0,.35.59,2.11,2.11,0,0,0,.64.49,5,5,0,0,0,1.09.39V56h-12V54.43a4.59,4.59,0,0,0,1.15-.4,2.18,2.18,0,0,0,.64-.54,3,3,0,0,0,.41-.78,5.43,5.43,0,0,0,.22-1.32c0-.56,0-1.36,0-2.41v-19c0-1.4,0-2.43,0-3.09a11.53,11.53,0,0,0-.16-1.66,3.27,3.27,0,0,0-.36-1.07,1.79,1.79,0,0,0-.71-.65,5.88,5.88,0,0,0-1.49-.44V21.42l6.76-.34h3.05V35Z"/><path class="cls-2" d="M337.79,76.38h0a20.83,20.83,0,0,1-6.6-1.07,21,21,0,0,0-6.74-1.2l-14.3.08A6.31,6.31,0,0,1,305.42,72a6.74,6.74,0,0,1-1.62-5,6.62,6.62,0,0,1,6.52-5.93l3.79,0L289.83,36a6.7,6.7,0,0,1,.48-9.72,6,6,0,0,1,3.91-1.43A6.64,6.64,0,0,1,299,26.85l11.2,11.56a6.59,6.59,0,0,1,2.23-3.9,6,6,0,0,1,3.91-1.42,6.55,6.55,0,0,1,2.47.49A6.63,6.63,0,0,1,321.1,29,6,6,0,0,1,325,27.54a6.54,6.54,0,0,1,3.4,1,6.57,6.57,0,0,1,2.28-4.17,6,6,0,0,1,3.91-1.43A6.67,6.67,0,0,1,339.35,25l13.14,13.58a22.73,22.73,0,0,1,1.87,29.67A21,21,0,0,1,337.79,76.38Zm-13.34-5.11A23.76,23.76,0,0,1,332,72.61a18.21,18.21,0,0,0,20.18-6.18,19.85,19.85,0,0,0-1.67-25.88L337.4,27a3.66,3.66,0,1,0-5.25,5.09l-1.95,2h0l-2.39-2.47a3.75,3.75,0,0,0-5-.42,3.7,3.7,0,0,0-1.32,2.69,3.78,3.78,0,0,0,1,2.82h0l-1.95,2-1.49-1.55a3.59,3.59,0,0,0-6.3,2.27,3.82,3.82,0,0,0,1,2.82l-1.94,2L297,28.86a3.75,3.75,0,0,0-5-.43,3.7,3.7,0,0,0-1.32,2.69,3.83,3.83,0,0,0,1,2.83l26.4,27.28.11.1L321,63.8l-3.58.07-7.1,0a3.81,3.81,0,0,0-3.8,3.36,3.76,3.76,0,0,0,.92,2.86,3.53,3.53,0,0,0,2.66,1.22Z"/><polygon class="cls-2" points="316.49 48.97 307.37 39.54 309.31 37.53 318.43 46.96 316.49 48.97"/><path class="cls-2" d="M291.5,39.55a10.48,10.48,0,0,1-7.56-3.25,11.35,11.35,0,0,1,0-15.67,10.48,10.48,0,0,1,15.17,0,11.25,11.25,0,0,1,2.83,10.49l-2.67-.68a8.39,8.39,0,0,0-2.1-7.81,7.82,7.82,0,0,0-11.29,0,8.46,8.46,0,0,0,0,11.66,7.8,7.8,0,0,0,7.43,2.21l.61,2.77A10.52,10.52,0,0,1,291.5,39.55Z"/><path class="cls-3" d="M291.51,43.68a14.42,14.42,0,0,1-10.39-4.46,15.57,15.57,0,0,1,0-21.51,14.37,14.37,0,0,1,20.81,0A15.49,15.49,0,0,1,305,34.58l-2.52-1.14A12.6,12.6,0,0,0,300,19.72a11.71,11.71,0,0,0-16.93,0,12.68,12.68,0,0,0,0,17.49,11.64,11.64,0,0,0,13.07,2.67l1.06,2.63A14.37,14.37,0,0,1,291.51,43.68Z"/><path class="cls-4" d="M291.58,47.92a18.59,18.59,0,0,1-13.38-5.68,20,20,0,0,1,0-27.55,18.43,18.43,0,0,1,26.65,0,20,20,0,0,1,2.94,23.62l-2.37-1.44a17.05,17.05,0,0,0-2.51-20.17,15.75,15.75,0,0,0-22.77,0,17,17,0,0,0,0,23.53,15.8,15.8,0,0,0,19.05,2.87l1.31,2.5A18.27,18.27,0,0,1,291.58,47.92Z"/></g></g></svg>