<svg xmlns="http://www.w3.org/2000/svg" viewBox="0 0 367.47 65.51"><defs><style>.cls-1,.cls-2{fill:#19afd8;}.cls-2{opacity:0.49;}</style></defs><title>swiper</title><g id="Layer_2" data-name="Layer 2"><g id="Layer_1-2" data-name="Layer 1"><rect class="cls-1" x="3.04" width="254" height="23" rx="11.5"/><rect class="cls-2" x="268.04" width="94" height="23" rx="11.5"/><path d="M1.87,55A4.76,4.76,0,0,0,3,57.46a3.19,3.19,0,0,0,2.34.8A3.71,3.71,0,0,0,6.8,58a2.25,2.25,0,0,0,1-.88,2.8,2.8,0,0,0,.39-1.53,3.17,3.17,0,0,0-.31-1.46,3.78,3.78,0,0,0-1-1.19A11.14,11.14,0,0,0,5,51.75,20.11,20.11,0,0,1,3,50.64a8,8,0,0,1-1.47-1.26,5.44,5.44,0,0,1-.94-1.51A5,5,0,0,1,.29,46a4.75,4.75,0,0,1,.83-2.85,5.13,5.13,0,0,1,2.41-1.79,10.25,10.25,0,0,1,3.66-.6,19.2,19.2,0,0,1,2.32.13,21.21,21.21,0,0,1,2.52.45v4H10.16a5.62,5.62,0,0,0-.66-1.72,2.64,2.64,0,0,0-1-.94A3.4,3.4,0,0,0,7,42.37a3.41,3.41,0,0,0-1.39.28,2.15,2.15,0,0,0-1,.81,2.28,2.28,0,0,0-.36,1.3,2.87,2.87,0,0,0,.31,1.38,3.66,3.66,0,0,0,1,1.13,14.79,14.79,0,0,0,2.1,1.27,13.53,13.53,0,0,1,2.65,1.71,5.61,5.61,0,0,1,1.42,1.83,5.52,5.52,0,0,1,.46,2.3,5.38,5.38,0,0,1-.78,2.92,5.09,5.09,0,0,1-2.27,1.9,8.41,8.41,0,0,1-3.44.66,26.86,26.86,0,0,1-2.91-.16A21.45,21.45,0,0,1,0,59.24V55Z"/><path d="M26.56,59.78,24,51l-3,8.81H18.24l-3.32-10.4A10.19,10.19,0,0,0,14.41,48a2.24,2.24,0,0,0-.46-.67,1.58,1.58,0,0,0-.7-.34v-.9h6.68V47a1.86,1.86,0,0,0-1,.39,1,1,0,0,0-.32.79,2.67,2.67,0,0,0,.11.75c.07.28.15.58.24.89l1.71,5.66,3.14-9.38h2.54L29,55.47l1.79-4.93a9.08,9.08,0,0,0,.38-1.24,5.26,5.26,0,0,0,.1-.89,1.39,1.39,0,0,0-.33-.95,1.54,1.54,0,0,0-.93-.47v-.9H35.2V47a2.33,2.33,0,0,0-.63.29,1.86,1.86,0,0,0-.43.45,6,6,0,0,0-.45.84c-.17.36-.41,1-.73,1.76l-3.67,9.44Z"/><path d="M36.38,58.74a1.83,1.83,0,0,0,.92-.47,1.56,1.56,0,0,0,.34-.77,11.79,11.79,0,0,0,.09-1.79V49.35a7.64,7.64,0,0,0-.06-1.07,1.55,1.55,0,0,0-.23-.66,1.18,1.18,0,0,0-.47-.38,4.16,4.16,0,0,0-.76-.22v-.93L40,46h1.71v9.71c0,.51,0,.91,0,1.18a4.37,4.37,0,0,0,.06.65,2.11,2.11,0,0,0,.11.4,1.38,1.38,0,0,0,.2.33,1.06,1.06,0,0,0,.36.27,2.64,2.64,0,0,0,.61.22v.9H36.38Zm5.19-18.1V44H37.82V40.64Z"/><path d="M50.3,62.09a6.07,6.07,0,0,0,.11,1.44,1.26,1.26,0,0,0,.38.67,2.32,2.32,0,0,0,1,.41v.9H45v-.9a2.36,2.36,0,0,0,.9-.42,1.29,1.29,0,0,0,.36-.65,6.71,6.71,0,0,0,.11-1.45v-12c0-.64,0-1.1,0-1.38a3.92,3.92,0,0,0-.1-.69,1.36,1.36,0,0,0-.21-.47,1.22,1.22,0,0,0-.4-.33,3.26,3.26,0,0,0-.79-.24v-.93L48.62,46H50.3l-.21,2,.16,0a9.16,9.16,0,0,1,2.2-1.63,4.72,4.72,0,0,1,2.09-.5,4.16,4.16,0,0,1,3.65,1.72,8.85,8.85,0,0,1,1.22,5.12,9.6,9.6,0,0,1-.72,4,5,5,0,0,1-2.14,2.39,7.06,7.06,0,0,1-3.49.8,10.67,10.67,0,0,1-2.76-.36Zm0-6.93a4.22,4.22,0,0,0,.58,2.48,2.19,2.19,0,0,0,3.71-.52,8.59,8.59,0,0,0,.66-3.76,10.2,10.2,0,0,0-.59-4A1.94,1.94,0,0,0,52.81,48a2.5,2.5,0,0,0-1.2.31,2.69,2.69,0,0,0-1,.89,2.46,2.46,0,0,0-.36,1.31Z"/><path d="M74.26,57.15a8.9,8.9,0,0,1-2.76,2.09,7.6,7.6,0,0,1-3.15.62,6.18,6.18,0,0,1-4.78-1.74A7.4,7.4,0,0,1,62,53a8.25,8.25,0,0,1,.83-3.82,5.61,5.61,0,0,1,2.34-2.43,7.27,7.27,0,0,1,3.52-.83,7.47,7.47,0,0,1,2.18.29,5.06,5.06,0,0,1,1.61.8,4.46,4.46,0,0,1,1.1,1.23,6.65,6.65,0,0,1,.78,2,12,12,0,0,1,.29,2.75H66a6.21,6.21,0,0,0,.88,3.64,3.07,3.07,0,0,0,2.64,1.16,4.54,4.54,0,0,0,1.88-.38A6.66,6.66,0,0,0,73.15,56Zm-3.69-5.72A8,8,0,0,0,70,48.32a1.65,1.65,0,0,0-1.58-1,1.89,1.89,0,0,0-1.68,1.07A7.07,7.07,0,0,0,66,51.43Z"/><path d="M92.25,58a8.76,8.76,0,0,1-2.19,1.44,5.26,5.26,0,0,1-2.08.42,3.94,3.94,0,0,1-3-1.1,4.79,4.79,0,0,1-1-3.33V47.8H82.23v-.95a3.09,3.09,0,0,0,1.23-.4,1.87,1.87,0,0,0,.62-.74,5,5,0,0,0,.35-1.19,17.49,17.49,0,0,0,.19-1.85h3.27v3.42h3.89V47.8H87.89V54A13.74,13.74,0,0,0,88,56.24a2.17,2.17,0,0,0,.49,1.09,1.12,1.12,0,0,0,.84.34,3.54,3.54,0,0,0,.69-.06,2.66,2.66,0,0,0,.63-.25,4,4,0,0,0,.71-.51Z"/><path d="M99.36,59.86a7.85,7.85,0,0,1-3.46-.7,5,5,0,0,1-2.27-2.26A8.34,8.34,0,0,1,92.81,53a8.9,8.9,0,0,1,.5-3.17,6,6,0,0,1,1.41-2.21,5.65,5.65,0,0,1,2.15-1.29,8.46,8.46,0,0,1,2.71-.42,6.64,6.64,0,0,1,5,1.74,7.06,7.06,0,0,1,1.68,5.1,8.54,8.54,0,0,1-.84,4A5.3,5.3,0,0,1,103,59.08,8.09,8.09,0,0,1,99.36,59.86ZM97,52.66A11,11,0,0,0,97.61,57a2.08,2.08,0,0,0,2,1.44,1.94,1.94,0,0,0,1.21-.37,2.51,2.51,0,0,0,.77-1.07,6.08,6.08,0,0,0,.42-1.67,18.06,18.06,0,0,0,.12-2.19,11.38,11.38,0,0,0-.64-4.39,2.09,2.09,0,0,0-1.92-1.46,2,2,0,0,0-1.49.59,3.57,3.57,0,0,0-.82,1.76A13.93,13.93,0,0,0,97,52.66Z"/><path d="M116.59,56a3.64,3.64,0,0,0,1,1.87,2.78,2.78,0,0,0,1.89.62,2.31,2.31,0,0,0,1.56-.47,1.69,1.69,0,0,0,.52-1.35,1.79,1.79,0,0,0-.24-.95,2.41,2.41,0,0,0-.79-.76,14.48,14.48,0,0,0-1.89-.95,12.63,12.63,0,0,1-1.42-.73,5.77,5.77,0,0,1-1.15-.89,3.85,3.85,0,0,1-.78-1.11,3.23,3.23,0,0,1-.29-1.37,3.36,3.36,0,0,1,.71-2.13,4.47,4.47,0,0,1,2-1.38,8.8,8.8,0,0,1,3-.48c.67,0,1.32,0,2,.08s1.46.18,2.47.36v3.18h-1.8a5,5,0,0,0-.69-1.35,2,2,0,0,0-.83-.66,2.71,2.71,0,0,0-1.08-.19,2.29,2.29,0,0,0-1.43.41,1.35,1.35,0,0,0-.53,1.15,1.89,1.89,0,0,0,.19.89,2,2,0,0,0,.68.71,10.52,10.52,0,0,0,1.9.94,11.4,11.4,0,0,1,2.09,1.11A4.19,4.19,0,0,1,125,53.84a3.62,3.62,0,0,1,.42,1.77,4.2,4.2,0,0,1-.41,1.91,3.45,3.45,0,0,1-1.15,1.31,5.12,5.12,0,0,1-1.77.78,9.92,9.92,0,0,1-2.27.25,22.17,22.17,0,0,1-5-.64V56Z"/><path d="M140,57.15a8.9,8.9,0,0,1-2.76,2.09,7.58,7.58,0,0,1-3.14.62,6.21,6.21,0,0,1-4.79-1.74A7.4,7.4,0,0,1,127.73,53a8.25,8.25,0,0,1,.83-3.82,5.61,5.61,0,0,1,2.34-2.43,7.28,7.28,0,0,1,3.53-.83,7.52,7.52,0,0,1,2.18.29,5,5,0,0,1,1.6.8,4.34,4.34,0,0,1,1.11,1.23,7.24,7.24,0,0,1,.78,2,12.59,12.59,0,0,1,.28,2.75h-8.66a6.28,6.28,0,0,0,.88,3.64,3.08,3.08,0,0,0,2.65,1.16,4.53,4.53,0,0,0,1.87-.38,6.66,6.66,0,0,0,1.8-1.38Zm-3.69-5.72a8,8,0,0,0-.55-3.11,1.63,1.63,0,0,0-1.58-1,1.88,1.88,0,0,0-1.67,1.07,6.92,6.92,0,0,0-.75,3.07Z"/><path d="M150.59,57.85l-.21-.07a8,8,0,0,1-2.18,1.59,5.19,5.19,0,0,1-2.24.49,4.52,4.52,0,0,1-2.05-.43,3.12,3.12,0,0,1-1.31-1.2,3.48,3.48,0,0,1-.44-1.76,3.53,3.53,0,0,1,2-3.16,14.38,14.38,0,0,1,6-1.46V50.56a5.32,5.32,0,0,0-.28-2A1.79,1.79,0,0,0,148,47.35a2.47,2.47,0,0,0-1.09.22,2,2,0,0,0-.82.82,4.78,4.78,0,0,0-.55,1.69H143V47.59c.84-.37,1.53-.66,2.09-.86s1.1-.36,1.64-.5,1-.22,1.46-.28a11.13,11.13,0,0,1,1.28-.08,6.67,6.67,0,0,1,2.65.44,2.92,2.92,0,0,1,1.48,1.42,6.12,6.12,0,0,1,.49,2.72v5.32c0,.61,0,1.07,0,1.4a3,3,0,0,0,.13.73,1.07,1.07,0,0,0,.23.38,1,1,0,0,0,.33.23,4.67,4.67,0,0,0,.75.23v.9h-5.09Zm-.45-4.66A5.61,5.61,0,0,0,147,54a2.49,2.49,0,0,0-1,2.15,1.68,1.68,0,0,0,.47,1.29,1.77,1.77,0,0,0,1.28.45,2.22,2.22,0,0,0,1.19-.34,2.53,2.53,0,0,0,.89-.89,2.3,2.3,0,0,0,.33-1.19Z"/><path d="M162.58,48l.18,0a6.62,6.62,0,0,1,2.05-1.69,5,5,0,0,1,2.28-.52,9.12,9.12,0,0,1,1.75.18v3.77h-2.47a3.31,3.31,0,0,0-.61-1.22,1.29,1.29,0,0,0-1-.42,1.49,1.49,0,0,0-.66.18,2.69,2.69,0,0,0-.67.52,2.29,2.29,0,0,0-.44.69,3.4,3.4,0,0,0-.17.7c0,.24,0,.59,0,1.06v4.36a10.77,10.77,0,0,0,.1,1.82,1.46,1.46,0,0,0,.38.81,1.75,1.75,0,0,0,1,.42v.9h-6.73v-.9a1.75,1.75,0,0,0,.9-.47,1.57,1.57,0,0,0,.35-.77,13.84,13.84,0,0,0,.08-1.79V50.09c0-.67,0-1.17,0-1.49a2.41,2.41,0,0,0-.16-.78,1.1,1.1,0,0,0-.4-.48,2.71,2.71,0,0,0-.92-.32v-.93l3.74-.11h1.72Z"/><path d="M180.39,56.14l1.06,1.27a9.4,9.4,0,0,1-2.59,1.88,6.51,6.51,0,0,1-2.73.57,5.76,5.76,0,0,1-4.52-1.74,7.35,7.35,0,0,1-1.56-5.06,8.26,8.26,0,0,1,.86-3.88,5.73,5.73,0,0,1,2.45-2.47,7.75,7.75,0,0,1,3.66-.84,14.94,14.94,0,0,1,2.21.16,13.22,13.22,0,0,1,2,.43v3.29h-2.71a4.57,4.57,0,0,0-.61-1.87,1.37,1.37,0,0,0-1.18-.59,2.08,2.08,0,0,0-1,.25,2.19,2.19,0,0,0-.81.88,5.85,5.85,0,0,0-.55,1.66,14,14,0,0,0-.2,2.65,10.48,10.48,0,0,0,.3,2.7,3.38,3.38,0,0,0,1,1.69,2.52,2.52,0,0,0,1.76.59,3.29,3.29,0,0,0,1.49-.34A6.7,6.7,0,0,0,180.39,56.14Z"/><path d="M188.26,47.89a9.81,9.81,0,0,1,2.22-1.56,4.6,4.6,0,0,1,2-.46,4.25,4.25,0,0,1,2.33.55A3.16,3.16,0,0,1,196,48a8,8,0,0,1,.38,2.69v5c0,.4,0,.78,0,1.13a3.57,3.57,0,0,0,.1.84,1.51,1.51,0,0,0,.22.51,1.17,1.17,0,0,0,.41.34,2.69,2.69,0,0,0,.63.23v.9h-6.63v-.9a1.61,1.61,0,0,0,.88-.44,1.64,1.64,0,0,0,.33-.79,12,12,0,0,0,.09-1.8V52.14a19,19,0,0,0-.09-2.12,3.65,3.65,0,0,0-.3-1.18,1.46,1.46,0,0,0-.55-.62,1.62,1.62,0,0,0-.88-.2,2.12,2.12,0,0,0-1.08.32,2.73,2.73,0,0,0-.95.87,2.06,2.06,0,0,0-.37,1.18v5.3c0,.51,0,.91,0,1.18a4.37,4.37,0,0,0,.06.65,2.09,2.09,0,0,0,.12.4,1.35,1.35,0,0,0,.19.33,1.17,1.17,0,0,0,.36.27,2.64,2.64,0,0,0,.61.22v.9h-6.69v-.9a2.22,2.22,0,0,0,.64-.23.91.91,0,0,0,.36-.3,1.45,1.45,0,0,0,.23-.43,3.07,3.07,0,0,0,.12-.74c0-.32,0-.76,0-1.35V45c0-.79,0-1.36,0-1.73a5.63,5.63,0,0,0-.09-.93,1.91,1.91,0,0,0-.2-.6,1.07,1.07,0,0,0-.4-.36,3.48,3.48,0,0,0-.83-.25v-.9l3.78-.19h1.71v7.8Z"/><path class="cls-1" d="M213.26,59.64h-7.17v-.9a4.18,4.18,0,0,0,.8-.29,1.1,1.1,0,0,0,.44-.44,2.23,2.23,0,0,0,.18-.71c0-.29,0-.65,0-1.09V44.44q0-.64,0-1.08a2.1,2.1,0,0,0-.18-.71,1.18,1.18,0,0,0-.44-.45,3.48,3.48,0,0,0-.81-.3V41h8a14.24,14.24,0,0,1,2.74.22,7,7,0,0,1,2,.69,4,4,0,0,1,2,2.32A5.68,5.68,0,0,1,221,46a5.24,5.24,0,0,1-.47,2.3,4.71,4.71,0,0,1-1.27,1.59,9.11,9.11,0,0,1-2.14,1.19v.14a4.78,4.78,0,0,1,1.68,1.17A7.29,7.29,0,0,1,220,54.26l.86,1.86A7.16,7.16,0,0,0,222,58a2.31,2.31,0,0,0,1.35.76v.9h-5.26a19.73,19.73,0,0,1-1.79-3.25l-1.07-2.34a7.9,7.9,0,0,0-.82-1.47,1.91,1.91,0,0,0-.7-.6,2.79,2.79,0,0,0-1.11-.17h-.79v4.4a7.85,7.85,0,0,0,.09,1.44,1.2,1.2,0,0,0,.37.65,2.47,2.47,0,0,0,1,.44Zm-1.47-17v7.59h1.35a4.65,4.65,0,0,0,1.8-.29,2.74,2.74,0,0,0,1.13-.82,3,3,0,0,0,.57-1.23,7,7,0,0,0,.16-1.56,3.91,3.91,0,0,0-.88-2.79,3.37,3.37,0,0,0-2.59-.93C212.54,42.59,212,42.6,211.79,42.62Z"/><path class="cls-1" d="M230.58,59.86a7.85,7.85,0,0,1-3.46-.7,5,5,0,0,1-2.28-2.26A8.47,8.47,0,0,1,224,53a8.89,8.89,0,0,1,.51-3.17,6,6,0,0,1,1.41-2.21,5.57,5.57,0,0,1,2.15-1.29,8.46,8.46,0,0,1,2.71-.42,6.64,6.64,0,0,1,5,1.74,7.06,7.06,0,0,1,1.68,5.1,8.54,8.54,0,0,1-.84,4,5.3,5.3,0,0,1-2.37,2.38A8.09,8.09,0,0,1,230.58,59.86Zm-2.4-7.2a11,11,0,0,0,.65,4.34,2.08,2.08,0,0,0,2,1.44,1.94,1.94,0,0,0,1.21-.37,2.51,2.51,0,0,0,.77-1.07,6.08,6.08,0,0,0,.42-1.67,18.06,18.06,0,0,0,.12-2.19,11.16,11.16,0,0,0-.65-4.39,2.07,2.07,0,0,0-1.91-1.46,2,2,0,0,0-1.49.59,3.57,3.57,0,0,0-.82,1.76A13.93,13.93,0,0,0,228.18,52.66Z"/><path class="cls-1" d="M246.51,59.86a7.85,7.85,0,0,1-3.46-.7,5,5,0,0,1-2.28-2.26A8.47,8.47,0,0,1,240,53a8.89,8.89,0,0,1,.51-3.17,5.86,5.86,0,0,1,1.4-2.21A5.69,5.69,0,0,1,244,46.29a8.41,8.41,0,0,1,2.71-.42,6.62,6.62,0,0,1,5,1.74,7.06,7.06,0,0,1,1.68,5.1,8.54,8.54,0,0,1-.83,4,5.37,5.37,0,0,1-2.38,2.38A8,8,0,0,1,246.51,59.86Zm-2.41-7.2a11.13,11.13,0,0,0,.65,4.34,2.1,2.1,0,0,0,2,1.44,1.9,1.9,0,0,0,1.21-.37A2.53,2.53,0,0,0,248.7,57a6.08,6.08,0,0,0,.42-1.67,18.06,18.06,0,0,0,.12-2.19,11.35,11.35,0,0,0-.65-4.39,2.07,2.07,0,0,0-1.92-1.46,2,2,0,0,0-1.49.59,3.75,3.75,0,0,0-.82,1.76A14.6,14.6,0,0,0,244.1,52.66Z"/><path class="cls-1" d="M260.89,48l.17,0a9.23,9.23,0,0,1,2.24-1.64,4.62,4.62,0,0,1,2-.48,4.7,4.7,0,0,1,1.68.26,3,3,0,0,1,1.14.76,3.71,3.71,0,0,1,.75,1.3,11.84,11.84,0,0,1,2.39-1.8,4.59,4.59,0,0,1,2.13-.52,4.94,4.94,0,0,1,1.81.29,2.75,2.75,0,0,1,1.18.89,3.84,3.84,0,0,1,.68,1.5,9.63,9.63,0,0,1,.21,2.16v5c0,.4,0,.78,0,1.13a4.19,4.19,0,0,0,.1.84,1.51,1.51,0,0,0,.23.51,1.13,1.13,0,0,0,.4.34,2.69,2.69,0,0,0,.63.23v.9h-6.59v-.9a1.54,1.54,0,0,0,.85-.44,1.64,1.64,0,0,0,.32-.79,12,12,0,0,0,.09-1.8V52.05c0-.82,0-1.49-.08-2a3.58,3.58,0,0,0-.31-1.2,1.46,1.46,0,0,0-.56-.63,1.58,1.58,0,0,0-.84-.19,1.71,1.71,0,0,0-.65.11,2.29,2.29,0,0,0-.61.33,3.5,3.5,0,0,0-.53.46,2.06,2.06,0,0,0-.35.52,2.4,2.4,0,0,0-.17.64,8.19,8.19,0,0,0-.05,1.16v4.45c0,.62,0,1.1,0,1.42a2.65,2.65,0,0,0,.15.8,1.06,1.06,0,0,0,.34.49,1.88,1.88,0,0,0,.75.34v.9H264v-.9a1.57,1.57,0,0,0,.86-.44,1.65,1.65,0,0,0,.33-.78,14.22,14.22,0,0,0,.08-1.81V52.05c0-.61,0-1.11,0-1.53a7,7,0,0,0-.11-1,2.76,2.76,0,0,0-.23-.67,1.52,1.52,0,0,0-.33-.47,1.57,1.57,0,0,0-.43-.27,1.93,1.93,0,0,0-.64-.09,2.13,2.13,0,0,0-1.06.31,2.76,2.76,0,0,0-.93.87,2.15,2.15,0,0,0-.37,1.21v5.28a14.71,14.71,0,0,0,.07,1.8,1.59,1.59,0,0,0,.32.8,1.62,1.62,0,0,0,.86.45v.9h-6.54v-.9a1.79,1.79,0,0,0,.91-.47,1.56,1.56,0,0,0,.34-.77,11.79,11.79,0,0,0,.09-1.79V50.09c0-.67,0-1.17,0-1.49a2.39,2.39,0,0,0-.17-.78,1.08,1.08,0,0,0-.39-.48,2.78,2.78,0,0,0-.93-.32v-.93l3.75-.11h1.72Z"/><path class="cls-1" d="M282.48,56a3.63,3.63,0,0,0,1,1.87,2.82,2.82,0,0,0,1.9.62A2.26,2.26,0,0,0,287,58a1.7,1.7,0,0,0,.53-1.35,1.79,1.79,0,0,0-.24-.95,2.41,2.41,0,0,0-.79-.76,14.48,14.48,0,0,0-1.89-.95,11.83,11.83,0,0,1-1.42-.73,5.77,5.77,0,0,1-1.15-.89,3.85,3.85,0,0,1-.78-1.11,3.23,3.23,0,0,1-.29-1.37,3.36,3.36,0,0,1,.71-2.13,4.47,4.47,0,0,1,2-1.38,8.76,8.76,0,0,1,3-.48c.67,0,1.32,0,2,.08s1.46.18,2.47.36v3.18h-1.8a5,5,0,0,0-.69-1.35,2,2,0,0,0-.83-.66,2.71,2.71,0,0,0-1.08-.19,2.29,2.29,0,0,0-1.43.41,1.36,1.36,0,0,0-.54,1.15,2,2,0,0,0,.19.89,2.18,2.18,0,0,0,.69.71,10.52,10.52,0,0,0,1.9.94,11.4,11.4,0,0,1,2.09,1.11,4.43,4.43,0,0,1,1.23,1.34,3.62,3.62,0,0,1,.42,1.77,4.2,4.2,0,0,1-.41,1.91,3.54,3.54,0,0,1-1.15,1.31,5.12,5.12,0,0,1-1.77.78,9.92,9.92,0,0,1-2.27.25,22.17,22.17,0,0,1-5-.64V56Z"/><path class="cls-1" d="M305.73,40.09l-9.87,25.42h-2.69l9.89-25.42Z"/><path class="cls-1" d="M313.53,56.21a10.29,10.29,0,0,0,0,1.1,1.65,1.65,0,0,0,.15.61,1.16,1.16,0,0,0,.26.37,1.31,1.31,0,0,0,.44.26,3.34,3.34,0,0,0,.76.19v.9h-7.35v-.9a3.16,3.16,0,0,0,.8-.29,1.1,1.1,0,0,0,.44-.44,2.23,2.23,0,0,0,.18-.72c0-.29,0-.65,0-1.09V44.44q0-.64,0-1.08a2.1,2.1,0,0,0-.18-.71,1.18,1.18,0,0,0-.44-.45,3.48,3.48,0,0,0-.81-.3V41H321v4.34h-1.87a8.29,8.29,0,0,0-.77-1.76,2.56,2.56,0,0,0-.75-.72,3,3,0,0,0-1.49-.27h-2.63v7h1.74a2,2,0,0,0,1-.2,1.41,1.41,0,0,0,.58-.66,5.23,5.23,0,0,0,.37-1.32h1.55v6h-1.55a5.67,5.67,0,0,0-.39-1.33,1.5,1.5,0,0,0-.58-.67,2.08,2.08,0,0,0-1-.19h-1.74Z"/><path class="cls-1" d="M328.22,55.69a13.73,13.73,0,0,0,.08,1.79,1.64,1.64,0,0,0,.34.79,1.94,1.94,0,0,0,.95.47v.9H322.9v-.9a2.34,2.34,0,0,0,.64-.23,1.07,1.07,0,0,0,.36-.3,1.73,1.73,0,0,0,.23-.43,3.07,3.07,0,0,0,.12-.74c0-.32,0-.76,0-1.35V45c0-.79,0-1.36,0-1.73a7.17,7.17,0,0,0-.08-.93,1.69,1.69,0,0,0-.2-.6,1.07,1.07,0,0,0-.4-.36,3.76,3.76,0,0,0-.84-.25v-.9l3.79-.19h1.7Z"/><path class="cls-1" d="M339.81,57.85l-.21-.07a8.11,8.11,0,0,1-2.18,1.59,5.19,5.19,0,0,1-2.24.49,4.52,4.52,0,0,1-2.05-.43,3.06,3.06,0,0,1-1.31-1.2,3.48,3.48,0,0,1-.44-1.76,3.53,3.53,0,0,1,2-3.16,14.38,14.38,0,0,1,6-1.46V50.56a5.09,5.09,0,0,0-.29-2,2,2,0,0,0-.73-1,2,2,0,0,0-1.08-.28,2.47,2.47,0,0,0-1.09.22,2,2,0,0,0-.82.82,4.78,4.78,0,0,0-.55,1.69H332.2V47.59c.84-.37,1.53-.66,2.09-.86s1.1-.36,1.64-.5,1-.22,1.46-.28a11,11,0,0,1,1.28-.08,6.71,6.71,0,0,1,2.65.44,2.92,2.92,0,0,1,1.48,1.42,6.12,6.12,0,0,1,.49,2.72v5.32c0,.61,0,1.07,0,1.4a3,3,0,0,0,.13.73.94.94,0,0,0,.23.38,1,1,0,0,0,.33.23,4.81,4.81,0,0,0,.74.23v.9h-5.08Zm-.45-4.66a5.58,5.58,0,0,0-3.14.8,2.49,2.49,0,0,0-1,2.15,1.68,1.68,0,0,0,.47,1.29,1.77,1.77,0,0,0,1.28.45,2.22,2.22,0,0,0,1.19-.34,2.53,2.53,0,0,0,.89-.89,2.3,2.3,0,0,0,.33-1.19Z"/><path class="cls-1" d="M356.05,58a8.59,8.59,0,0,1-2.19,1.44,5.21,5.21,0,0,1-2.07.42,3.92,3.92,0,0,1-3-1.1,4.79,4.79,0,0,1-1-3.33V47.8H346v-.95a3.09,3.09,0,0,0,1.22-.4,1.87,1.87,0,0,0,.62-.74,4.59,4.59,0,0,0,.35-1.19c.08-.49.15-1.11.2-1.85h3.26v3.42h3.89V47.8h-3.89V54a13.74,13.74,0,0,0,.14,2.28,2.17,2.17,0,0,0,.49,1.09,1.15,1.15,0,0,0,.85.34,3.51,3.51,0,0,0,.68-.06,2.66,2.66,0,0,0,.63-.25,3.66,3.66,0,0,0,.71-.51Z"/><path class="cls-1" d="M358.68,56a3.71,3.71,0,0,0,1,1.87,2.82,2.82,0,0,0,1.9.62,2.28,2.28,0,0,0,1.55-.47,1.7,1.7,0,0,0,.53-1.35,1.79,1.79,0,0,0-.24-.95,2.41,2.41,0,0,0-.79-.76,14.48,14.48,0,0,0-1.89-.95,11.12,11.12,0,0,1-1.42-.73,5.77,5.77,0,0,1-1.15-.89,3.85,3.85,0,0,1-.78-1.11,3.23,3.23,0,0,1-.29-1.37,3.36,3.36,0,0,1,.71-2.13,4.47,4.47,0,0,1,2-1.38,8.76,8.76,0,0,1,3-.48c.67,0,1.32,0,2,.08s1.46.18,2.47.36v3.18h-1.81a4.69,4.69,0,0,0-.68-1.35,2.09,2.09,0,0,0-.83-.66,2.71,2.71,0,0,0-1.08-.19,2.29,2.29,0,0,0-1.43.41,1.36,1.36,0,0,0-.54,1.15,2,2,0,0,0,.19.89,2.18,2.18,0,0,0,.69.71,10.17,10.17,0,0,0,1.9.94,11.4,11.4,0,0,1,2.09,1.11A4.27,4.27,0,0,1,367,53.84a3.52,3.52,0,0,1,.43,1.77,4.2,4.2,0,0,1-.41,1.91,3.54,3.54,0,0,1-1.15,1.31,5.12,5.12,0,0,1-1.77.78,10,10,0,0,1-2.27.25,22.25,22.25,0,0,1-5-.64V56Z"/></g></g></svg>