<svg xmlns="http://www.w3.org/2000/svg" viewBox="0 0 359 65.51"><defs><style>.cls-1,.cls-2{fill:#f7931e;}.cls-1{opacity:0.49;}.cls-3{fill:#19afd8;}</style></defs><title>swiper2</title><g id="Layer_2" data-name="Layer 2"><g id="Layer_1-2" data-name="Layer 1"><rect class="cls-1" width="96" height="23" rx="11.5"/><rect class="cls-2" x="106" width="253" height="23" rx="11.5"/><path d="M11.69,55a4.76,4.76,0,0,0,1.14,2.42,3.19,3.19,0,0,0,2.34.8A3.71,3.71,0,0,0,16.62,58a2.25,2.25,0,0,0,1-.88A2.8,2.8,0,0,0,18,55.58a3.17,3.17,0,0,0-.31-1.46,3.78,3.78,0,0,0-1-1.19,11.14,11.14,0,0,0-1.94-1.18,20.11,20.11,0,0,1-1.93-1.11,8,8,0,0,1-1.47-1.26,5.44,5.44,0,0,1-.94-1.51A5,5,0,0,1,10.11,46a4.75,4.75,0,0,1,.83-2.85,5.13,5.13,0,0,1,2.41-1.79,10.23,10.23,0,0,1,3.65-.6,19.25,19.25,0,0,1,2.33.13,21.57,21.57,0,0,1,2.52.45v4H20a5.62,5.62,0,0,0-.66-1.72,2.64,2.64,0,0,0-1-.94,3.79,3.79,0,0,0-2.91,0,2.15,2.15,0,0,0-1,.81,2.28,2.28,0,0,0-.36,1.3,2.87,2.87,0,0,0,.31,1.38,3.66,3.66,0,0,0,1,1.13,14.79,14.79,0,0,0,2.1,1.27,13.53,13.53,0,0,1,2.65,1.71,5.61,5.61,0,0,1,1.42,1.83,5.52,5.52,0,0,1,.46,2.3,5.38,5.38,0,0,1-.78,2.92A5.09,5.09,0,0,1,19,59.2a8.41,8.41,0,0,1-3.44.66,26.86,26.86,0,0,1-2.91-.16,21.45,21.45,0,0,1-2.83-.46V55Z"/><path d="M36.38,59.78,33.81,51l-3,8.81H28.06l-3.32-10.4A10.19,10.19,0,0,0,24.23,48a2.24,2.24,0,0,0-.46-.67,1.58,1.58,0,0,0-.7-.34v-.9h6.68V47a1.86,1.86,0,0,0-1,.39,1,1,0,0,0-.32.79,2.67,2.67,0,0,0,.11.75c.07.28.15.58.24.89l1.71,5.66,3.14-9.38h2.54l2.65,9.38,1.79-4.93A9.08,9.08,0,0,0,41,49.3a5.26,5.26,0,0,0,.1-.89,1.39,1.39,0,0,0-.33-.95,1.54,1.54,0,0,0-.93-.47v-.9H45V47a2.33,2.33,0,0,0-.63.29,1.86,1.86,0,0,0-.43.45,6,6,0,0,0-.45.84c-.17.36-.41,1-.73,1.76l-3.67,9.44Z"/><path d="M46.2,58.74a1.83,1.83,0,0,0,.92-.47,1.56,1.56,0,0,0,.34-.77,11.79,11.79,0,0,0,.09-1.79V49.35a7.64,7.64,0,0,0-.06-1.07,1.43,1.43,0,0,0-.24-.66,1.09,1.09,0,0,0-.46-.38A4.16,4.16,0,0,0,46,47v-.93L49.79,46H51.5v9.71c0,.51,0,.91,0,1.18a4.37,4.37,0,0,0,.06.65,2.11,2.11,0,0,0,.11.4,1.38,1.38,0,0,0,.2.33,1.06,1.06,0,0,0,.36.27,2.64,2.64,0,0,0,.61.22v.9H46.2Zm5.19-18.1V44H47.64V40.64Z"/><path d="M60.12,62.09a6.07,6.07,0,0,0,.11,1.44,1.26,1.26,0,0,0,.38.67,2.32,2.32,0,0,0,1,.41v.9H54.8v-.9a2.36,2.36,0,0,0,.9-.42,1.29,1.29,0,0,0,.36-.65,6.71,6.71,0,0,0,.11-1.45v-12c0-.64,0-1.1,0-1.38a3.92,3.92,0,0,0-.1-.69,1.36,1.36,0,0,0-.21-.47,1.12,1.12,0,0,0-.4-.33,3.26,3.26,0,0,0-.79-.24v-.93L58.44,46h1.68l-.21,2,.17,0a8.94,8.94,0,0,1,2.19-1.63,4.75,4.75,0,0,1,2.09-.5A4.16,4.16,0,0,1,68,47.59a8.85,8.85,0,0,1,1.22,5.12,9.6,9.6,0,0,1-.72,4,5,5,0,0,1-2.14,2.39,7,7,0,0,1-3.49.8,10.67,10.67,0,0,1-2.76-.36Zm0-6.93a4.22,4.22,0,0,0,.58,2.48,2.19,2.19,0,0,0,3.71-.52,8.59,8.59,0,0,0,.66-3.76,10.2,10.2,0,0,0-.59-4A1.94,1.94,0,0,0,62.63,48a2.5,2.5,0,0,0-1.2.31,2.69,2.69,0,0,0-1,.89,2.46,2.46,0,0,0-.36,1.31Z"/><path d="M84.08,57.15a8.9,8.9,0,0,1-2.76,2.09,7.6,7.6,0,0,1-3.15.62,6.18,6.18,0,0,1-4.78-1.74A7.4,7.4,0,0,1,71.78,53a8.25,8.25,0,0,1,.83-3.82A5.61,5.61,0,0,1,75,46.7a7.28,7.28,0,0,1,3.53-.83,7.45,7.45,0,0,1,2.17.29,5.06,5.06,0,0,1,1.61.8,4.5,4.5,0,0,1,1.11,1.23,6.92,6.92,0,0,1,.77,2,12,12,0,0,1,.29,2.75H75.77a6.21,6.21,0,0,0,.88,3.64,3.07,3.07,0,0,0,2.64,1.16,4.54,4.54,0,0,0,1.88-.38A6.66,6.66,0,0,0,83,56Zm-3.69-5.72a8,8,0,0,0-.55-3.11,1.65,1.65,0,0,0-1.58-1,1.9,1.9,0,0,0-1.68,1.07,7.07,7.07,0,0,0-.74,3.07Z"/><path d="M102.07,58a8.76,8.76,0,0,1-2.19,1.44,5.26,5.26,0,0,1-2.08.42,3.94,3.94,0,0,1-3-1.1,4.84,4.84,0,0,1-1-3.33V47.8H92.05v-.95a3.09,3.09,0,0,0,1.23-.4,1.87,1.87,0,0,0,.62-.74,5,5,0,0,0,.35-1.19,17.49,17.49,0,0,0,.19-1.85h3.27v3.42h3.89V47.8H97.71V54a13.74,13.74,0,0,0,.14,2.28,2.17,2.17,0,0,0,.49,1.09,1.12,1.12,0,0,0,.84.34,3.54,3.54,0,0,0,.69-.06,2.66,2.66,0,0,0,.63-.25,3.66,3.66,0,0,0,.71-.51Z"/><path d="M109.18,59.86a7.85,7.85,0,0,1-3.46-.7,5,5,0,0,1-2.27-2.26,8.34,8.34,0,0,1-.82-3.94,8.9,8.9,0,0,1,.5-3.17,6,6,0,0,1,1.41-2.21,5.65,5.65,0,0,1,2.15-1.29,8.46,8.46,0,0,1,2.71-.42,6.64,6.64,0,0,1,5,1.74,7.06,7.06,0,0,1,1.68,5.1,8.54,8.54,0,0,1-.84,4,5.3,5.3,0,0,1-2.37,2.38A8.09,8.09,0,0,1,109.18,59.86Zm-2.4-7.2a11,11,0,0,0,.65,4.34,2.08,2.08,0,0,0,2,1.44,1.94,1.94,0,0,0,1.21-.37,2.61,2.61,0,0,0,.78-1.07,6.48,6.48,0,0,0,.41-1.67,18.06,18.06,0,0,0,.12-2.19,11.38,11.38,0,0,0-.64-4.39,2.09,2.09,0,0,0-1.92-1.46,2,2,0,0,0-1.49.59,3.57,3.57,0,0,0-.82,1.76A13.93,13.93,0,0,0,106.78,52.66Z"/><path d="M126.41,56a3.64,3.64,0,0,0,1,1.87,2.79,2.79,0,0,0,1.9.62A2.3,2.3,0,0,0,130.9,58a1.69,1.69,0,0,0,.52-1.35,1.79,1.79,0,0,0-.24-.95,2.41,2.41,0,0,0-.79-.76A14.48,14.48,0,0,0,128.5,54a12.63,12.63,0,0,1-1.42-.73,5.77,5.77,0,0,1-1.15-.89,3.85,3.85,0,0,1-.78-1.11,3.23,3.23,0,0,1-.29-1.37,3.36,3.36,0,0,1,.71-2.13,4.47,4.47,0,0,1,2-1.38,8.82,8.82,0,0,1,3-.48c.66,0,1.31,0,1.95.08s1.46.18,2.47.36v3.18h-1.8a5,5,0,0,0-.69-1.35,2,2,0,0,0-.83-.66,2.71,2.71,0,0,0-1.08-.19,2.29,2.29,0,0,0-1.43.41,1.35,1.35,0,0,0-.53,1.15,1.89,1.89,0,0,0,.19.89,2,2,0,0,0,.68.71,10.52,10.52,0,0,0,1.9.94,11.4,11.4,0,0,1,2.09,1.11,4.19,4.19,0,0,1,1.23,1.34,3.62,3.62,0,0,1,.42,1.77,4.2,4.2,0,0,1-.41,1.91,3.45,3.45,0,0,1-1.15,1.31,5.15,5.15,0,0,1-1.76.78,10.08,10.08,0,0,1-2.28.25,22.17,22.17,0,0,1-5-.64V56Z"/><path d="M149.85,57.15a8.9,8.9,0,0,1-2.76,2.09,7.58,7.58,0,0,1-3.14.62,6.21,6.21,0,0,1-4.79-1.74A7.4,7.4,0,0,1,137.55,53a8.25,8.25,0,0,1,.83-3.82,5.61,5.61,0,0,1,2.34-2.43,7.28,7.28,0,0,1,3.53-.83,7.52,7.52,0,0,1,2.18.29,5,5,0,0,1,1.6.8,4.34,4.34,0,0,1,1.11,1.23,7.24,7.24,0,0,1,.78,2,12.59,12.59,0,0,1,.28,2.75h-8.66a6.28,6.28,0,0,0,.88,3.64,3.08,3.08,0,0,0,2.65,1.16,4.53,4.53,0,0,0,1.87-.38,6.51,6.51,0,0,0,1.8-1.38Zm-3.69-5.72a8,8,0,0,0-.55-3.11,1.63,1.63,0,0,0-1.58-1,1.88,1.88,0,0,0-1.67,1.07,6.92,6.92,0,0,0-.75,3.07Z"/><path d="M160.41,57.85l-.21-.07A8,8,0,0,1,158,59.37a5.19,5.19,0,0,1-2.24.49,4.52,4.52,0,0,1-2.05-.43,3.12,3.12,0,0,1-1.31-1.2,3.48,3.48,0,0,1-.44-1.76,3.53,3.53,0,0,1,2-3.16,14.38,14.38,0,0,1,6-1.46V50.56a5.32,5.32,0,0,0-.28-2,1.79,1.79,0,0,0-1.82-1.25,2.47,2.47,0,0,0-1.09.22,2,2,0,0,0-.82.82,4.78,4.78,0,0,0-.55,1.69H152.8V47.59c.84-.37,1.53-.66,2.09-.86s1.1-.36,1.65-.5,1-.22,1.45-.28a11.13,11.13,0,0,1,1.28-.08,6.67,6.67,0,0,1,2.65.44,2.92,2.92,0,0,1,1.48,1.42,6.12,6.12,0,0,1,.49,2.72v5.32c0,.61,0,1.07,0,1.4a3,3,0,0,0,.13.73,1.07,1.07,0,0,0,.23.38,1,1,0,0,0,.33.23,4.67,4.67,0,0,0,.75.23v.9h-5.08ZM160,53.19a5.61,5.61,0,0,0-3.14.8,2.49,2.49,0,0,0-1,2.15,1.68,1.68,0,0,0,.47,1.29,1.77,1.77,0,0,0,1.28.45,2.22,2.22,0,0,0,1.19-.34,2.45,2.45,0,0,0,.89-.89,2.3,2.3,0,0,0,.33-1.19Z"/><path d="M172.4,48l.18,0a6.62,6.62,0,0,1,2-1.69,5,5,0,0,1,2.28-.52,9.12,9.12,0,0,1,1.75.18v3.77h-2.47a3.31,3.31,0,0,0-.61-1.22,1.29,1.29,0,0,0-1-.42,1.49,1.49,0,0,0-.66.18,2.69,2.69,0,0,0-.67.52,2.29,2.29,0,0,0-.44.69,3.4,3.4,0,0,0-.17.7c0,.24,0,.59,0,1.06v4.36a12,12,0,0,0,.1,1.82,1.46,1.46,0,0,0,.38.81,1.75,1.75,0,0,0,1,.42v.9h-6.73v-.9a1.75,1.75,0,0,0,.9-.47,1.57,1.57,0,0,0,.35-.77,11.79,11.79,0,0,0,.09-1.79V50.09c0-.67,0-1.17,0-1.49a2.41,2.41,0,0,0-.16-.78,1.1,1.1,0,0,0-.4-.48,2.71,2.71,0,0,0-.92-.32v-.93l3.74-.11h1.72Z"/><path d="M190.21,56.14l1.06,1.27a9.4,9.4,0,0,1-2.59,1.88,6.51,6.51,0,0,1-2.73.57,5.76,5.76,0,0,1-4.52-1.74,7.35,7.35,0,0,1-1.56-5.06,8.26,8.26,0,0,1,.86-3.88,5.73,5.73,0,0,1,2.45-2.47,7.78,7.78,0,0,1,3.66-.84,14.94,14.94,0,0,1,2.21.16,13.22,13.22,0,0,1,2,.43v3.29h-2.71a4.57,4.57,0,0,0-.61-1.87,1.36,1.36,0,0,0-1.18-.59,2.08,2.08,0,0,0-1,.25,2.17,2.17,0,0,0-.8.88,5.53,5.53,0,0,0-.56,1.66,14,14,0,0,0-.2,2.65,10.48,10.48,0,0,0,.3,2.7,3.38,3.38,0,0,0,1,1.69,2.52,2.52,0,0,0,1.76.59,3.29,3.29,0,0,0,1.49-.34A6.7,6.7,0,0,0,190.21,56.14Z"/><path d="M198.08,47.89a9.81,9.81,0,0,1,2.22-1.56,4.6,4.6,0,0,1,2-.46,4.25,4.25,0,0,1,2.33.55,3.16,3.16,0,0,1,1.19,1.6,8,8,0,0,1,.38,2.69v5c0,.4,0,.78,0,1.13a3.57,3.57,0,0,0,.1.84,1.51,1.51,0,0,0,.22.51,1.17,1.17,0,0,0,.41.34,2.69,2.69,0,0,0,.63.23v.9H201v-.9a1.61,1.61,0,0,0,.88-.44,1.64,1.64,0,0,0,.33-.79,12,12,0,0,0,.09-1.8V52.14a19,19,0,0,0-.09-2.12,3.65,3.65,0,0,0-.3-1.18,1.46,1.46,0,0,0-.55-.62,1.62,1.62,0,0,0-.88-.2,2.12,2.12,0,0,0-1.08.32,2.73,2.73,0,0,0-.95.87,2.06,2.06,0,0,0-.37,1.18v5.3c0,.51,0,.91,0,1.18a4.37,4.37,0,0,0,.06.65,2.09,2.09,0,0,0,.12.4,1.35,1.35,0,0,0,.19.33,1.17,1.17,0,0,0,.36.27,2.64,2.64,0,0,0,.61.22v.9H192.7v-.9a2.22,2.22,0,0,0,.64-.23.91.91,0,0,0,.36-.3,1.45,1.45,0,0,0,.23-.43,3.07,3.07,0,0,0,.12-.74c0-.32,0-.76,0-1.35V45c0-.79,0-1.36,0-1.73a5.63,5.63,0,0,0-.09-.93,1.91,1.91,0,0,0-.2-.6,1.07,1.07,0,0,0-.4-.36,3.48,3.48,0,0,0-.83-.25v-.9l3.78-.19H198v7.8Z"/><path class="cls-3" d="M223.08,59.64h-7.17v-.9a4.18,4.18,0,0,0,.8-.29,1.1,1.1,0,0,0,.44-.44,2.23,2.23,0,0,0,.18-.71c0-.29,0-.65,0-1.09V44.44q0-.64,0-1.08a2.1,2.1,0,0,0-.18-.71,1.18,1.18,0,0,0-.44-.45,3.48,3.48,0,0,0-.81-.3V41h8a14.24,14.24,0,0,1,2.74.22,7,7,0,0,1,2,.69,4.38,4.38,0,0,1,1.2,1,4.2,4.2,0,0,1,.76,1.36,5.68,5.68,0,0,1,.26,1.79,5.1,5.1,0,0,1-.47,2.3,4.71,4.71,0,0,1-1.27,1.59,8.91,8.91,0,0,1-2.14,1.19v.14a4.78,4.78,0,0,1,1.68,1.17,7.29,7.29,0,0,1,1.19,1.85l.86,1.86A7.16,7.16,0,0,0,231.8,58a2.31,2.31,0,0,0,1.35.76v.9h-5.26a19.73,19.73,0,0,1-1.79-3.25L225,54.05a7.9,7.9,0,0,0-.82-1.47,1.91,1.91,0,0,0-.7-.6,2.79,2.79,0,0,0-1.11-.17h-.79v4.4a7.85,7.85,0,0,0,.09,1.44,1.2,1.2,0,0,0,.37.65,2.47,2.47,0,0,0,1,.44Zm-1.47-17v7.59H223a4.65,4.65,0,0,0,1.8-.29,2.74,2.74,0,0,0,1.13-.82,2.9,2.9,0,0,0,.57-1.23,7,7,0,0,0,.16-1.56,3.91,3.91,0,0,0-.88-2.79,3.37,3.37,0,0,0-2.59-.93C222.37,42.59,221.85,42.6,221.61,42.62Z"/><path class="cls-3" d="M240.4,59.86a7.85,7.85,0,0,1-3.46-.7,5,5,0,0,1-2.28-2.26,8.47,8.47,0,0,1-.82-3.94,8.89,8.89,0,0,1,.51-3.17,6,6,0,0,1,1.41-2.21,5.65,5.65,0,0,1,2.15-1.29,8.46,8.46,0,0,1,2.71-.42,6.64,6.64,0,0,1,5,1.74,7.06,7.06,0,0,1,1.68,5.1,8.54,8.54,0,0,1-.84,4,5.3,5.3,0,0,1-2.37,2.38A8.09,8.09,0,0,1,240.4,59.86Zm-2.4-7.2a11,11,0,0,0,.65,4.34,2.08,2.08,0,0,0,2,1.44,1.94,1.94,0,0,0,1.21-.37,2.51,2.51,0,0,0,.77-1.07,6.08,6.08,0,0,0,.42-1.67,18.06,18.06,0,0,0,.12-2.19,11.16,11.16,0,0,0-.65-4.39,2.07,2.07,0,0,0-1.91-1.46,2,2,0,0,0-1.49.59,3.57,3.57,0,0,0-.82,1.76A13.93,13.93,0,0,0,238,52.66Z"/><path class="cls-3" d="M256.33,59.86a7.85,7.85,0,0,1-3.46-.7,5,5,0,0,1-2.28-2.26,8.47,8.47,0,0,1-.82-3.94,8.89,8.89,0,0,1,.51-3.17,5.86,5.86,0,0,1,1.4-2.21,5.69,5.69,0,0,1,2.16-1.29,8.41,8.41,0,0,1,2.71-.42,6.62,6.62,0,0,1,5,1.74,7.06,7.06,0,0,1,1.68,5.1,8.54,8.54,0,0,1-.83,4A5.32,5.32,0,0,1,260,59.08,8,8,0,0,1,256.33,59.86Zm-2.41-7.2a11.13,11.13,0,0,0,.65,4.34,2.1,2.1,0,0,0,2,1.44,1.9,1.9,0,0,0,1.21-.37,2.45,2.45,0,0,0,.78-1.07,6.08,6.08,0,0,0,.42-1.67,18.06,18.06,0,0,0,.12-2.19,11.35,11.35,0,0,0-.65-4.39,2.07,2.07,0,0,0-1.92-1.46,2,2,0,0,0-1.49.59,3.75,3.75,0,0,0-.82,1.76A14.6,14.6,0,0,0,253.92,52.66Z"/><path class="cls-3" d="M270.71,48l.17,0a9.23,9.23,0,0,1,2.24-1.64,4.62,4.62,0,0,1,2-.48,4.7,4.7,0,0,1,1.68.26,3,3,0,0,1,1.14.76,3.71,3.71,0,0,1,.75,1.3,11.84,11.84,0,0,1,2.39-1.8,4.59,4.59,0,0,1,2.13-.52,4.94,4.94,0,0,1,1.81.29,2.75,2.75,0,0,1,1.18.89,4,4,0,0,1,.68,1.5,9.63,9.63,0,0,1,.21,2.16v5c0,.4,0,.78,0,1.13a4.19,4.19,0,0,0,.1.84,1.51,1.51,0,0,0,.23.51,1.13,1.13,0,0,0,.4.34,2.69,2.69,0,0,0,.63.23v.9h-6.59v-.9a1.54,1.54,0,0,0,.85-.44,1.64,1.64,0,0,0,.32-.79,12,12,0,0,0,.09-1.8V52.05c0-.82,0-1.49-.08-2a3.34,3.34,0,0,0-.32-1.2,1.45,1.45,0,0,0-.55-.63,1.58,1.58,0,0,0-.84-.19,1.71,1.71,0,0,0-.65.11,2.15,2.15,0,0,0-.61.33,3.5,3.5,0,0,0-.53.46,2.06,2.06,0,0,0-.35.52,2.4,2.4,0,0,0-.17.64,8.19,8.19,0,0,0-.05,1.16v4.45c0,.62,0,1.1,0,1.42a2.65,2.65,0,0,0,.15.8,1.06,1.06,0,0,0,.34.49,1.88,1.88,0,0,0,.75.34v.9h-6.5v-.9a1.57,1.57,0,0,0,.86-.44,1.55,1.55,0,0,0,.32-.78,12.11,12.11,0,0,0,.09-1.81V52.05c0-.61,0-1.11,0-1.53a7,7,0,0,0-.11-1,2.76,2.76,0,0,0-.23-.67,1.7,1.7,0,0,0-.33-.47,1.57,1.57,0,0,0-.43-.27,1.93,1.93,0,0,0-.64-.09,2.13,2.13,0,0,0-1.06.31,2.76,2.76,0,0,0-.93.87,2.15,2.15,0,0,0-.37,1.21v5.28a14.71,14.71,0,0,0,.07,1.8,1.32,1.32,0,0,0,1.18,1.25v.9h-6.54v-.9a1.79,1.79,0,0,0,.91-.47,1.56,1.56,0,0,0,.34-.77,11.79,11.79,0,0,0,.09-1.79V50.09c0-.67,0-1.17,0-1.49a2.39,2.39,0,0,0-.17-.78,1.15,1.15,0,0,0-.39-.48,2.78,2.78,0,0,0-.93-.32v-.93L269.2,46h1.72Z"/><path class="cls-3" d="M311.71,41.9a2.49,2.49,0,0,0-1,.44,1.3,1.3,0,0,0-.36.64,6.67,6.67,0,0,0-.1,1.43V56.23a8.84,8.84,0,0,0,.08,1.31,1.34,1.34,0,0,0,.33.74,2.48,2.48,0,0,0,1,.46v.9h-7v-.9a4.56,4.56,0,0,0,.83-.29.87.87,0,0,0,.36-.32,1.46,1.46,0,0,0,.19-.6,8.34,8.34,0,0,0,.07-1.33V49.5c0-.73,0-1.6,0-2.6s.05-1.72.08-2.14H306c-.11.37-.22.73-.35,1.08s-.35,1-.69,1.88l-3.66,9.86h-2.4L295,46.5c-.23-.63-.43-1.25-.6-1.87h-.25c.09,1.5.14,3.28.14,5.33v6.28a7.47,7.47,0,0,0,.09,1.41,1.3,1.3,0,0,0,.38.65,2.54,2.54,0,0,0,1,.44v.9h-5.16v-.9a3.56,3.56,0,0,0,.8-.3,1.16,1.16,0,0,0,.44-.44,1.82,1.82,0,0,0,.19-.7c0-.28,0-.64,0-1.07V44.41A7.31,7.31,0,0,0,292,43a1.16,1.16,0,0,0-.35-.63,2.57,2.57,0,0,0-1-.46V41h6.79l3.78,11.21L305.3,41h6.41Z"/><path class="cls-3" d="M322.28,57.85l-.21-.07a8.08,8.08,0,0,1-2.17,1.59,5.27,5.27,0,0,1-2.25.49,4.48,4.48,0,0,1-2-.43,3.09,3.09,0,0,1-1.32-1.2,3.48,3.48,0,0,1-.44-1.76,3.52,3.52,0,0,1,2-3.16,14.28,14.28,0,0,1,6-1.46V50.56a5.32,5.32,0,0,0-.28-2,1.79,1.79,0,0,0-1.82-1.25,2.39,2.39,0,0,0-1.08.22,2,2,0,0,0-.83.82,4.78,4.78,0,0,0-.55,1.69h-2.58V47.59c.84-.37,1.54-.66,2.09-.86s1.1-.36,1.65-.5,1-.22,1.45-.28a11.17,11.17,0,0,1,1.29-.08,6.65,6.65,0,0,1,2.64.44,2.92,2.92,0,0,1,1.48,1.42,6.12,6.12,0,0,1,.49,2.72v5.32c0,.61,0,1.07,0,1.4a3,3,0,0,0,.13.73,1.07,1.07,0,0,0,.23.38,1,1,0,0,0,.33.23,5,5,0,0,0,.75.23v.9h-5.08Zm-.45-4.66a5.61,5.61,0,0,0-3.14.8,2.48,2.48,0,0,0-1,2.15,1.68,1.68,0,0,0,.46,1.29,1.77,1.77,0,0,0,1.28.45,2.22,2.22,0,0,0,1.19-.34,2.45,2.45,0,0,0,.89-.89,2.3,2.3,0,0,0,.33-1.19Z"/><path class="cls-3" d="M338.52,58a8.73,8.73,0,0,1-2.18,1.44,5.26,5.26,0,0,1-2.08.42,3.92,3.92,0,0,1-3-1.1,4.79,4.79,0,0,1-1-3.33V47.8h-1.71v-.95a3.21,3.21,0,0,0,1.23-.4,1.85,1.85,0,0,0,.61-.74,4.59,4.59,0,0,0,.35-1.19,17.16,17.16,0,0,0,.2-1.85h3.26v3.42h3.9V47.8h-3.9V54a12.5,12.5,0,0,0,.15,2.28,2.09,2.09,0,0,0,.48,1.09,1.15,1.15,0,0,0,.85.34,3.51,3.51,0,0,0,.68-.06,2.9,2.9,0,0,0,.64-.25,3.62,3.62,0,0,0,.7-.51Z"/><path class="cls-3" d="M351.38,57.15a8.9,8.9,0,0,1-2.76,2.09,7.6,7.6,0,0,1-3.15.62,6.18,6.18,0,0,1-4.78-1.74A7.4,7.4,0,0,1,339.08,53a8.25,8.25,0,0,1,.83-3.82,5.61,5.61,0,0,1,2.34-2.43,7.27,7.27,0,0,1,3.52-.83,7.47,7.47,0,0,1,2.18.29,5.06,5.06,0,0,1,1.61.8,4.66,4.66,0,0,1,1.11,1.23,6.92,6.92,0,0,1,.77,2,12,12,0,0,1,.29,2.75h-8.66a6.21,6.21,0,0,0,.88,3.64,3.07,3.07,0,0,0,2.64,1.16,4.54,4.54,0,0,0,1.88-.38,6.66,6.66,0,0,0,1.8-1.38Zm-3.69-5.72a8,8,0,0,0-.55-3.11,1.65,1.65,0,0,0-1.58-1,1.89,1.89,0,0,0-1.68,1.07,7.07,7.07,0,0,0-.74,3.07Z"/></g></g></svg>