<svg xmlns="http://www.w3.org/2000/svg" viewBox="0 0 421.57 140.56"><defs><style>.cls-1{fill:#19afd8;}</style></defs><title>text</title><g id="Layer_2" data-name="Layer 2"><g id="Layer_1-2" data-name="Layer 1"><path d="M19.1,23.74h-10L8.32,26a17.63,17.63,0,0,0-.54,1.82,7.91,7.91,0,0,0-.21,1.86c0,1.53.81,2.35,2.44,2.46v1.55H0V32.11a2.89,2.89,0,0,0,1.52-.61,5,5,0,0,0,1.2-1.41,15.27,15.27,0,0,0,1.15-2.55l9.77-26H19.9l7.73,26.25a21.08,21.08,0,0,0,.87,2.5,3.34,3.34,0,0,0,.91,1.19,3.62,3.62,0,0,0,1.57.67v1.55H18.05V32.11a3.11,3.11,0,0,0,1.8-.68,2,2,0,0,0,.59-1.52,8.93,8.93,0,0,0-.17-1.62q-.16-.88-.54-2.25ZM10,21h8.44L14.67,7.8Z"/><path d="M42.23,13.76l.31.07a11.31,11.31,0,0,1,3.51-2.91A8.81,8.81,0,0,1,50,10a15.29,15.29,0,0,1,3,.31V16.8H48.73a5.46,5.46,0,0,0-1-2.08A2.17,2.17,0,0,0,46,14a2.6,2.6,0,0,0-1.14.32,4.11,4.11,0,0,0-1.14.89,3.31,3.31,0,0,0-.75,1.17,5.23,5.23,0,0,0-.3,1.21c0,.4-.07,1-.07,1.83v7.47A19.59,19.59,0,0,0,42.73,30a2.58,2.58,0,0,0,.65,1.39,3.06,3.06,0,0,0,1.67.72v1.55H33.49V32.11a3.14,3.14,0,0,0,1.56-.8A2.68,2.68,0,0,0,35.64,30a20.79,20.79,0,0,0,.15-3.07V17.27c0-1.15,0-2-.06-2.56a4.08,4.08,0,0,0-.28-1.34,2,2,0,0,0-.68-.82A4.75,4.75,0,0,0,33.19,12V10.41l6.42-.19h3Z"/><path d="M76.15,29.39A15.5,15.5,0,0,1,71.41,33,13.06,13.06,0,0,1,66,34c-3.64,0-6.38-1-8.21-3s-2.76-4.95-2.76-8.87a14.22,14.22,0,0,1,1.42-6.55,9.7,9.7,0,0,1,4-4.17A12.41,12.41,0,0,1,66.54,10a13.09,13.09,0,0,1,3.74.49A8.75,8.75,0,0,1,73,11.89,7.59,7.59,0,0,1,74.93,14a11.81,11.81,0,0,1,1.34,3.37,21.63,21.63,0,0,1,.49,4.71H61.9c0,2.83.52,4.91,1.51,6.25a5.29,5.29,0,0,0,4.54,2,7.47,7.47,0,0,0,3.21-.67,11.27,11.27,0,0,0,3.09-2.35Zm-6.33-9.82a13.54,13.54,0,0,0-.94-5.34,2.82,2.82,0,0,0-2.72-1.76,3.22,3.22,0,0,0-2.87,1.83A12.1,12.1,0,0,0,62,19.57Z"/><path d="M102.8,34.71A34.49,34.49,0,0,1,99.93,40,10.12,10.12,0,0,1,97,42.94a7.27,7.27,0,0,1-3.88,1,11.56,11.56,0,0,1-3.28-.45V38.09h2.62a3.24,3.24,0,0,0,.77,1.51,1.85,1.85,0,0,0,1.27.41,2.83,2.83,0,0,0,1.61-.49,7.23,7.23,0,0,0,1.62-1.84,36.67,36.67,0,0,0,2.21-4H98.63L92.51,16.05a18.83,18.83,0,0,0-1.05-2.54,3.19,3.19,0,0,0-.86-1A2.87,2.87,0,0,0,89.41,12V10.41h11.7V12a3.62,3.62,0,0,0-1.62.64A1.54,1.54,0,0,0,99,13.85a9.54,9.54,0,0,0,.61,2.93L103,27l3.73-9a18,18,0,0,0,.7-2,6.2,6.2,0,0,0,.24-1.68,2.37,2.37,0,0,0-.57-1.63,2.54,2.54,0,0,0-1.59-.81V10.41h9.12V12a3.58,3.58,0,0,0-1.09.51,3.72,3.72,0,0,0-.78.8,14.43,14.43,0,0,0-.88,1.46c-.34.65-.81,1.63-1.4,2.95Z"/><path d="M126.47,34a13.42,13.42,0,0,1-5.94-1.21,8.52,8.52,0,0,1-3.9-3.86,14.39,14.39,0,0,1-1.41-6.76,15.33,15.33,0,0,1,.87-5.44A10.15,10.15,0,0,1,118.5,13a9.46,9.46,0,0,1,3.69-2.21,14.53,14.53,0,0,1,4.65-.72q5.68,0,8.56,3t2.88,8.75a14.8,14.8,0,0,1-1.43,6.84,9.22,9.22,0,0,1-4.08,4.09A13.81,13.81,0,0,1,126.47,34Zm-4.13-12.35a18.83,18.83,0,0,0,1.12,7.44,3.58,3.58,0,0,0,3.36,2.47,3.31,3.31,0,0,0,2.07-.63,4.33,4.33,0,0,0,1.34-1.83,11,11,0,0,0,.72-2.87,30.48,30.48,0,0,0,.21-3.76A19.29,19.29,0,0,0,130,15c-.74-1.66-1.84-2.49-3.29-2.49a3.33,3.33,0,0,0-2.55,1,6.21,6.21,0,0,0-1.41,3A24.44,24.44,0,0,0,122.34,21.68Z"/><path d="M141.91,10.41H151v13a34.94,34.94,0,0,0,.14,3.52,5.8,5.8,0,0,0,.54,2,2.65,2.65,0,0,0,1,1.08,2.83,2.83,0,0,0,1.47.34,3.74,3.74,0,0,0,1.83-.54,4.88,4.88,0,0,0,1.63-1.51,3.63,3.63,0,0,0,.66-2.07v-9c0-1.14,0-2-.07-2.54a3.92,3.92,0,0,0-.27-1.3,1.84,1.84,0,0,0-.62-.79,4.57,4.57,0,0,0-1.38-.6V10.41h9.14v16.4c0,1.19,0,2.06.06,2.6a4.24,4.24,0,0,0,.27,1.32,2,2,0,0,0,.68.81,4.76,4.76,0,0,0,1.57.55v1.57l-6.38.21h-2.83l.21-3.38-.28-.07a16,16,0,0,1-3.89,2.81A8,8,0,0,1,151,34a7.53,7.53,0,0,1-4-.92,5.25,5.25,0,0,1-2.15-2.72,13.93,13.93,0,0,1-.65-4.63V17.18c0-.88,0-1.55,0-2a10.27,10.27,0,0,0-.1-1.09,4.44,4.44,0,0,0-.2-.7,2,2,0,0,0-1-1,4.61,4.61,0,0,0-1.05-.38Z"/><path d="M190.43,26.88a22.62,22.62,0,0,0,.14,3.07,2.74,2.74,0,0,0,.57,1.35,3.16,3.16,0,0,0,1.63.81v1.55H181.29V32.11a4.17,4.17,0,0,0,1.1-.39,2,2,0,0,0,.62-.51,2.92,2.92,0,0,0,.39-.75,4.69,4.69,0,0,0,.21-1.27c0-.54,0-1.31,0-2.31V8.6c0-1.34,0-2.33,0-3a12.52,12.52,0,0,0-.14-1.6,2.82,2.82,0,0,0-.35-1,1.88,1.88,0,0,0-.69-.62A5.29,5.29,0,0,0,181,2V.42L187.5.09h2.93Z"/><path d="M207.82,34a13.42,13.42,0,0,1-5.94-1.21A8.52,8.52,0,0,1,198,29a14.39,14.39,0,0,1-1.41-6.76,15.33,15.33,0,0,1,.87-5.44,10.28,10.28,0,0,1,2.41-3.8,9.46,9.46,0,0,1,3.69-2.21A14.55,14.55,0,0,1,208.2,10q5.67,0,8.55,3t2.88,8.75a14.67,14.67,0,0,1-1.43,6.84,9.25,9.25,0,0,1-4.07,4.09A13.89,13.89,0,0,1,207.82,34ZM203.7,21.68a19,19,0,0,0,1.11,7.44,3.58,3.58,0,0,0,3.36,2.47,3.36,3.36,0,0,0,2.08-.63,4.31,4.31,0,0,0,1.33-1.83,10.64,10.64,0,0,0,.72-2.87,30.48,30.48,0,0,0,.21-3.76A19.29,19.29,0,0,0,211.39,15c-.74-1.66-1.84-2.49-3.29-2.49a3.33,3.33,0,0,0-2.55,1,6.31,6.31,0,0,0-1.41,3A24.53,24.53,0,0,0,203.7,21.68Z"/><path d="M235.15,34a13.42,13.42,0,0,1-5.94-1.21A8.59,8.59,0,0,1,225.3,29a14.51,14.51,0,0,1-1.4-6.76,15.33,15.33,0,0,1,.87-5.44,10.15,10.15,0,0,1,2.41-3.8,9.46,9.46,0,0,1,3.69-2.21,14.53,14.53,0,0,1,4.65-.72q5.68,0,8.56,3T247,21.77a14.8,14.8,0,0,1-1.43,6.84,9.22,9.22,0,0,1-4.08,4.09A13.81,13.81,0,0,1,235.15,34ZM231,21.68a18.83,18.83,0,0,0,1.12,7.44,3.58,3.58,0,0,0,3.36,2.47,3.31,3.31,0,0,0,2.07-.63,4.33,4.33,0,0,0,1.34-1.83,11,11,0,0,0,.72-2.87,30.48,30.48,0,0,0,.21-3.76A19.29,19.29,0,0,0,238.72,15c-.74-1.66-1.84-2.49-3.29-2.49a3.33,3.33,0,0,0-2.55,1,6.21,6.21,0,0,0-1.41,3A24.44,24.44,0,0,0,231,21.68Z"/><path d="M267.68,18.87l6.05,9a32.71,32.71,0,0,0,2,2.74,5.61,5.61,0,0,0,1.1,1.07,3.49,3.49,0,0,0,1.17.48v1.55H266.51V32.11c.7-.14,1.05-.51,1.05-1.1a3.24,3.24,0,0,0-.41-1.44,24.42,24.42,0,0,0-1.6-2.59l-1.81-2.72a11.83,11.83,0,0,0-1-1.33,3.33,3.33,0,0,0-.74-.62,2,2,0,0,0-1-.21h-1.12v4.78A21,21,0,0,0,260,30a2.65,2.65,0,0,0,.57,1.35,3.12,3.12,0,0,0,1.63.81v1.55H250.73V32.11a4.4,4.4,0,0,0,1.11-.39,2.14,2.14,0,0,0,.62-.51,2.92,2.92,0,0,0,.38-.75,5.06,5.06,0,0,0,.22-1.27c0-.54,0-1.31,0-2.31V8.6c0-1.34,0-2.33,0-3a12.1,12.1,0,0,0-.16-1.6,2.82,2.82,0,0,0-.35-1,1.64,1.64,0,0,0-.68-.62A5.06,5.06,0,0,0,250.45,2V.42L257,.09h2.91V19.85h.77a4,4,0,0,0,1.29-.16,4.09,4.09,0,0,0,1-.53,19.84,19.84,0,0,0,1.56-1.31,12.27,12.27,0,0,0,1.59-1.69,5.16,5.16,0,0,0,.73-1.29A3.45,3.45,0,0,0,267,13.8c0-1.07-.68-1.71-2-1.89v-1.5h11.72v1.5a5.45,5.45,0,0,0-2,.84,28.1,28.1,0,0,0-3.54,2.95Z"/><path d="M279.49,32.11a3.09,3.09,0,0,0,1.58-.8,2.68,2.68,0,0,0,.59-1.33,20.79,20.79,0,0,0,.15-3.07V16a13.12,13.12,0,0,0-.1-1.85,2.73,2.73,0,0,0-.4-1.13,1.89,1.89,0,0,0-.8-.64,6.37,6.37,0,0,0-1.3-.39V10.41l6.45-.19h2.93V26.88c0,.88,0,1.55,0,2a9.54,9.54,0,0,0,.11,1.1,2.66,2.66,0,0,0,.2.69,2.21,2.21,0,0,0,.34.57,1.91,1.91,0,0,0,.61.46,4.18,4.18,0,0,0,1.05.38v1.55H279.49ZM288.4,1.05V6.8H282V1.05Z"/><path d="M320.09,33.66H308.72V32.11a2.77,2.77,0,0,0,1.5-.76,2.88,2.88,0,0,0,.57-1.36,19.25,19.25,0,0,0,.16-3.08V20.65c0-1.11,0-2-.07-2.73a12.52,12.52,0,0,0-.23-1.75,3.81,3.81,0,0,0-.42-1.13,2.91,2.91,0,0,0-.6-.75,2.18,2.18,0,0,0-.75-.44,3.56,3.56,0,0,0-1.07-.14,3.7,3.7,0,0,0-1.86.55,4.79,4.79,0,0,0-1.61,1.53,3.61,3.61,0,0,0-.66,2.07v9a23.36,23.36,0,0,0,.14,3.1,2.73,2.73,0,0,0,.58,1.37,2.84,2.84,0,0,0,1.53.76v1.55H294.61V32.11a3.14,3.14,0,0,0,1.56-.8,2.67,2.67,0,0,0,.58-1.33,19.1,19.1,0,0,0,.16-3.07V17.27c0-1.15,0-2-.06-2.56a4.08,4.08,0,0,0-.28-1.34,2,2,0,0,0-.68-.82,4.75,4.75,0,0,0-1.58-.55V10.41l6.42-.19h2.95l-.35,3.37.28.07a24.81,24.81,0,0,1,2.55-2,10.5,10.5,0,0,1,2.31-1.18A7.76,7.76,0,0,1,311,10a7.92,7.92,0,0,1,3.18.55,4.89,4.89,0,0,1,2.05,1.61,6.62,6.62,0,0,1,1.13,2.58,16.07,16.07,0,0,1,.34,3.53v8.58c0,.69,0,1.33,0,1.94a7.77,7.77,0,0,0,.18,1.44,2.47,2.47,0,0,0,.39.88,2,2,0,0,0,.69.57,4.8,4.8,0,0,0,1.08.4Z"/><path d="M346.24,13.55l-4-.45-.09.26a5,5,0,0,1,1.09,1.79,7.67,7.67,0,0,1,.43,2.73,7.68,7.68,0,0,1-2.47,6.19c-1.65,1.41-4.07,2.11-7.28,2.11a14.17,14.17,0,0,1-3.79-.42A3,3,0,0,0,329,28a1.69,1.69,0,0,0,.29,1.08,1.84,1.84,0,0,0,1,.57,7.45,7.45,0,0,0,2,.2H338q3.91,0,5.86,1.53a5.61,5.61,0,0,1,1.94,4.73,6.78,6.78,0,0,1-1.41,4.31,8.8,8.8,0,0,1-4.07,2.76,18.73,18.73,0,0,1-6.28.95,43.79,43.79,0,0,1-4.81-.24,13.76,13.76,0,0,1-3.68-.85,5.55,5.55,0,0,1-2.35-1.7,4.34,4.34,0,0,1-.83-2.74,4,4,0,0,1,.84-2.47,6.8,6.8,0,0,1,2.37-1.92,4.32,4.32,0,0,1-1.43-1.61,5.07,5.07,0,0,1-.45-2.25,4.82,4.82,0,0,1,.46-2.07,6.3,6.3,0,0,1,1.22-1.74,18.77,18.77,0,0,1,2-1.73,7.06,7.06,0,0,1-2.77-2.7,8,8,0,0,1-.93-3.93,8.29,8.29,0,0,1,.78-3.74,6.83,6.83,0,0,1,2.16-2.54,9.08,9.08,0,0,1,3.23-1.44,16.55,16.55,0,0,1,4-.46,16.37,16.37,0,0,1,2.11.12c.61.08,1.2.16,1.78.26h8.46ZM329.58,35.16a4.74,4.74,0,0,0-1.28,1.43,3.55,3.55,0,0,0-.43,1.78,2.67,2.67,0,0,0,1.46,2.49,10,10,0,0,0,4.63.81,8.43,8.43,0,0,0,4.49-1A3.12,3.12,0,0,0,340,37.92a3,3,0,0,0-.28-1.36,2.13,2.13,0,0,0-1.1-.93,5.7,5.7,0,0,0-2.32-.38h-4Q330.54,35.25,329.58,35.16Zm.84-17.23a9.08,9.08,0,0,0,.83,4.39,2.81,2.81,0,0,0,2.62,1.45,2.76,2.76,0,0,0,2.47-1.34,7.7,7.7,0,0,0,.86-4.08,9.19,9.19,0,0,0-.84-4.39,2.71,2.71,0,0,0-2.54-1.51,2.8,2.8,0,0,0-2.57,1.34A8.13,8.13,0,0,0,330.42,17.93Z"/><path d="M359.06,32.11a4,4,0,0,0,1.54-.73,2.22,2.22,0,0,0,.62-1.11,11.59,11.59,0,0,0,.19-2.5V13.34h-2.86V11.72a6.59,6.59,0,0,0,1.53-.36,2.2,2.2,0,0,0,.72-.54,2.68,2.68,0,0,0,.44-.88,6.93,6.93,0,0,0,.24-1.39,8.65,8.65,0,0,1,3.13-6.38Q367.36,0,372.4,0A17.46,17.46,0,0,1,376,.33V5.11H372.8a6.16,6.16,0,0,0-.88-1.9,1.52,1.52,0,0,0-1.26-.61,1.85,1.85,0,0,0-1.54.67,4,4,0,0,0-.74,1.9,23.32,23.32,0,0,0-.2,3.46v1.78h4.52v2.93h-4.52V27.77a11,11,0,0,0,.19,2.49,2.21,2.21,0,0,0,.67,1.15,4.05,4.05,0,0,0,1.69.7v1.55H359.06Z"/><path d="M386.13,34a13.48,13.48,0,0,1-5.94-1.21,8.61,8.61,0,0,1-3.9-3.86,14.39,14.39,0,0,1-1.41-6.76,15.33,15.33,0,0,1,.87-5.44,10.28,10.28,0,0,1,2.41-3.8,9.57,9.57,0,0,1,3.7-2.21,14.53,14.53,0,0,1,4.65-.72q5.67,0,8.55,3C397,15,398,17.93,398,21.77a14.8,14.8,0,0,1-1.43,6.84,9.32,9.32,0,0,1-4.08,4.09A13.89,13.89,0,0,1,386.13,34ZM382,21.68a19,19,0,0,0,1.11,7.44,3.58,3.58,0,0,0,3.36,2.47,3.36,3.36,0,0,0,2.08-.63,4.41,4.41,0,0,0,1.34-1.83,11,11,0,0,0,.71-2.87,30.48,30.48,0,0,0,.21-3.76A19.51,19.51,0,0,0,389.71,15q-1.11-2.49-3.3-2.49a3.33,3.33,0,0,0-2.55,1,6.31,6.31,0,0,0-1.41,3A25.21,25.21,0,0,0,382,21.68Z"/><path d="M410.84,13.76l.3.07a11.23,11.23,0,0,1,3.52-2.91,8.73,8.73,0,0,1,3.91-.89,15.29,15.29,0,0,1,3,.31V16.8h-4.24a5.46,5.46,0,0,0-1-2.08,2.19,2.19,0,0,0-1.73-.73,2.53,2.53,0,0,0-1.13.32,4,4,0,0,0-1.15.89,3.62,3.62,0,0,0-.75,1.17,5.23,5.23,0,0,0-.3,1.21c0,.4-.07,1-.07,1.83v7.47a19.59,19.59,0,0,0,.17,3.12,2.66,2.66,0,0,0,.65,1.39,3.06,3.06,0,0,0,1.67.72v1.55H402.09V32.11a3.14,3.14,0,0,0,1.56-.8,2.68,2.68,0,0,0,.59-1.33,20.79,20.79,0,0,0,.15-3.07V17.27c0-1.15,0-2-.06-2.56a4.08,4.08,0,0,0-.28-1.34,1.93,1.93,0,0,0-.68-.82,4.66,4.66,0,0,0-1.58-.55V10.41l6.42-.19h3Z"/><path class="cls-1" d="M84.55,103.26H69.68v-1.87a8.06,8.06,0,0,0,1.66-.61,2.13,2.13,0,0,0,.9-.91,4.14,4.14,0,0,0,.39-1.47c.05-.6.08-1.35.08-2.25V71.74c0-.89,0-1.64-.07-2.24A3.76,3.76,0,0,0,72.27,68a2.24,2.24,0,0,0-.91-.92,6.65,6.65,0,0,0-1.68-.64V64.6H86.19a28.8,28.8,0,0,1,5.68.47A14,14,0,0,1,96,66.5,8.33,8.33,0,0,1,100,71.3a11.28,11.28,0,0,1,.56,3.72,10.69,10.69,0,0,1-1,4.76A9.6,9.6,0,0,1,97,83.08a19.17,19.17,0,0,1-4.44,2.48v.28A9.78,9.78,0,0,1,96,88.26a15.43,15.43,0,0,1,2.48,3.84L100.27,96a15.17,15.17,0,0,0,2.36,3.86,4.82,4.82,0,0,0,2.79,1.58v1.87H94.52a41.07,41.07,0,0,1-3.71-6.74L88.6,91.67a17.11,17.11,0,0,0-1.7-3.06,4,4,0,0,0-1.46-1.24A5.84,5.84,0,0,0,83.13,87H81.49v9.12a15.21,15.21,0,0,0,.2,3,2.51,2.51,0,0,0,.76,1.36,5.36,5.36,0,0,0,2.1.91ZM81.49,68V83.71h2.8a10,10,0,0,0,3.74-.6,5.82,5.82,0,0,0,2.34-1.7,6.34,6.34,0,0,0,1.19-2.57,15.34,15.34,0,0,0,.32-3.22q0-3.86-1.81-5.78a7,7,0,0,0-5.38-1.93C83.07,67.91,82,67.93,81.49,68Z"/><path class="cls-1" d="M120.46,103.71a16.36,16.36,0,0,1-7.18-1.46,10.45,10.45,0,0,1-4.72-4.67,17.46,17.46,0,0,1-1.7-8.17,18.56,18.56,0,0,1,1-6.57,12.35,12.35,0,0,1,2.92-4.59,11.61,11.61,0,0,1,4.46-2.68,17.84,17.84,0,0,1,5.62-.86q6.86,0,10.34,3.61t3.48,10.58A17.68,17.68,0,0,1,133,97.15a11,11,0,0,1-4.92,4.94A16.73,16.73,0,0,1,120.46,103.71Zm-5-14.93c0,4,.45,7,1.35,9s2.25,3,4.06,3a4,4,0,0,0,2.51-.76A5.23,5.23,0,0,0,125,97.79a13,13,0,0,0,.87-3.47,36.61,36.61,0,0,0,.25-4.54q0-6.09-1.34-9.11t-4-3a4.07,4.07,0,0,0-3.09,1.22,7.62,7.62,0,0,0-1.7,3.66A29.71,29.71,0,0,0,115.47,88.78Z"/><path class="cls-1" d="M153.48,103.71a16.36,16.36,0,0,1-7.18-1.46,10.45,10.45,0,0,1-4.72-4.67,17.46,17.46,0,0,1-1.69-8.17,18.57,18.57,0,0,1,1-6.57,12.35,12.35,0,0,1,2.92-4.59,11.61,11.61,0,0,1,4.46-2.68,17.84,17.84,0,0,1,5.62-.86q6.85,0,10.34,3.61t3.48,10.58A17.8,17.8,0,0,1,166,97.15a11.11,11.11,0,0,1-4.93,4.94A16.73,16.73,0,0,1,153.48,103.71Zm-5-14.93c0,4,.44,7,1.34,9s2.25,3,4.06,3a4,4,0,0,0,2.51-.76A5.23,5.23,0,0,0,158,97.79a13,13,0,0,0,.87-3.47,36.61,36.61,0,0,0,.25-4.54q0-6.09-1.34-9.11c-.9-2-2.22-3-4-3a4.1,4.1,0,0,0-3.09,1.22,7.62,7.62,0,0,0-1.7,3.66A29.79,29.79,0,0,0,148.5,88.78Z"/><path class="cls-1" d="M183.3,79l.34.09a19.41,19.41,0,0,1,4.65-3.4,9.62,9.62,0,0,1,4.21-1,9.73,9.73,0,0,1,3.49.54,6.27,6.27,0,0,1,2.35,1.57,7.81,7.81,0,0,1,1.56,2.7,23,23,0,0,1,5-3.73,9.51,9.51,0,0,1,4.4-1.08,10.31,10.31,0,0,1,3.75.59,5.75,5.75,0,0,1,2.45,1.84,8.07,8.07,0,0,1,1.4,3.12,19.42,19.42,0,0,1,.44,4.47V95.07c0,.83,0,1.61.05,2.34a8.25,8.25,0,0,0,.21,1.74,3.06,3.06,0,0,0,.47,1.06,2.23,2.23,0,0,0,.83.7,7.14,7.14,0,0,0,1.3.48v1.87H206.52v-1.87a3.19,3.19,0,0,0,1.76-.91,3.53,3.53,0,0,0,.66-1.64,24.1,24.1,0,0,0,.19-3.74V87.51c0-1.7-.06-3.08-.17-4.15a7,7,0,0,0-.65-2.51,3.3,3.3,0,0,0-1.15-1.3,3.4,3.4,0,0,0-1.74-.39,4,4,0,0,0-1.36.22,4.68,4.68,0,0,0-1.26.7,7.47,7.47,0,0,0-1.09.94A4.08,4.08,0,0,0,201,82.1a4.57,4.57,0,0,0-.37,1.33,19.44,19.44,0,0,0-.1,2.41v9.23c0,1.29,0,2.27.07,3a6.34,6.34,0,0,0,.3,1.64,2.35,2.35,0,0,0,.72,1,4,4,0,0,0,1.54.7v1.87H189.67v-1.87a3.29,3.29,0,0,0,1.8-.91,3.44,3.44,0,0,0,.67-1.63,27.83,27.83,0,0,0,.17-3.75V87.51c0-1.25,0-2.3-.07-3.16a14.82,14.82,0,0,0-.24-2.08,6.12,6.12,0,0,0-.47-1.39,3.8,3.8,0,0,0-.68-1,2.75,2.75,0,0,0-.91-.57,3.82,3.82,0,0,0-1.31-.19,4.39,4.39,0,0,0-2.2.65,5.64,5.64,0,0,0-1.93,1.81,4.35,4.35,0,0,0-.77,2.49v11a30.73,30.73,0,0,0,.15,3.72,2.73,2.73,0,0,0,2.45,2.6v1.87H172.77v-1.87a3.86,3.86,0,0,0,1.88-1,3.28,3.28,0,0,0,.71-1.61,25.21,25.21,0,0,0,.18-3.71V83.46c0-1.4,0-2.43-.07-3.1a5,5,0,0,0-.34-1.62,2.38,2.38,0,0,0-.82-1,5.78,5.78,0,0,0-1.91-.66V75.16l7.76-.22h3.57Z"/><path class="cls-1" d="M268.29,66.47a5.28,5.28,0,0,0-2,.92,2.6,2.6,0,0,0-.75,1.33,14,14,0,0,0-.21,3v24.5a16.42,16.42,0,0,0,.17,2.73,2.73,2.73,0,0,0,.69,1.53,5.06,5.06,0,0,0,2.14,1v1.87H253.76v-1.87a9.72,9.72,0,0,0,1.73-.6,2,2,0,0,0,.75-.66,3.33,3.33,0,0,0,.4-1.25,22,22,0,0,0,.12-2.76V82.24c0-1.53,0-3.33.09-5.41s.11-3.55.17-4.41h-.6q-.33,1.13-.72,2.22c-.25.73-.73,2-1.43,3.89L246.68,99h-5l-8-23c-.47-1.3-.89-2.59-1.25-3.88H232c.18,3.12.28,6.8.28,11.05v13a13.81,13.81,0,0,0,.2,2.92,2.57,2.57,0,0,0,.79,1.36,5,5,0,0,0,2.07.91v1.87H224.59v-1.87a7.43,7.43,0,0,0,1.66-.63,2.28,2.28,0,0,0,.92-.9,3.62,3.62,0,0,0,.38-1.45c0-.58.07-1.33.07-2.23V71.68a15.79,15.79,0,0,0-.18-3,2.68,2.68,0,0,0-.72-1.3,5.46,5.46,0,0,0-2.13-1V64.6h14.08l7.84,23.25L255,64.6h13.28Z"/><path class="cls-1" d="M290.21,99.55l-.42-.15a16.66,16.66,0,0,1-4.52,3.29,10.93,10.93,0,0,1-4.66,1,9.42,9.42,0,0,1-4.23-.89,6.26,6.26,0,0,1-2.72-2.48,7.1,7.1,0,0,1-.92-3.65q0-4.17,4.09-6.56t12.42-3V84.42a10.85,10.85,0,0,0-.6-4.06,3.7,3.7,0,0,0-3.76-2.59,5.27,5.27,0,0,0-2.26.45,4.23,4.23,0,0,0-1.71,1.71,9.84,9.84,0,0,0-1.13,3.5h-5.35V78.28c1.73-.78,3.18-1.37,4.33-1.79a33.76,33.76,0,0,1,3.41-1,27.63,27.63,0,0,1,3-.58,21.47,21.47,0,0,1,2.66-.17,13.68,13.68,0,0,1,5.48.91,6.06,6.06,0,0,1,3.07,2.94,12.8,12.8,0,0,1,1,5.64v11c0,1.25,0,2.21.09,2.89a5.47,5.47,0,0,0,.27,1.51,2.19,2.19,0,0,0,.46.8,2.08,2.08,0,0,0,.7.48,10.78,10.78,0,0,0,1.54.47v1.87H290Zm-.93-9.66q-4.39.1-6.5,1.64A5.17,5.17,0,0,0,280.67,96a3.52,3.52,0,0,0,1,2.67,3.66,3.66,0,0,0,2.66.92,4.72,4.72,0,0,0,2.46-.69,5.15,5.15,0,0,0,1.85-1.86,4.8,4.8,0,0,0,.68-2.46Z"/><path class="cls-1" d="M323.88,99.86a18.54,18.54,0,0,1-4.53,3,11,11,0,0,1-4.3.86q-4.23,0-6.3-2.28t-2.09-6.9V78.7h-3.54v-2a6.33,6.33,0,0,0,2.55-.85A3.74,3.74,0,0,0,307,74.38a9.91,9.91,0,0,0,.72-2.47,36.63,36.63,0,0,0,.41-3.83h6.77v7.08h8.07V78.7h-8.07V91.47a26.89,26.89,0,0,0,.3,4.73,4.36,4.36,0,0,0,1,2.26,2.37,2.37,0,0,0,1.76.72,6.6,6.6,0,0,0,1.41-.14,5.76,5.76,0,0,0,1.32-.51,8.09,8.09,0,0,0,1.46-1Z"/><path class="cls-1" d="M350.53,98.1a18.5,18.5,0,0,1-5.72,4.33,15.72,15.72,0,0,1-6.51,1.28q-6.6,0-9.93-3.61T325,89.38a17,17,0,0,1,1.72-7.92,11.7,11.7,0,0,1,4.85-5,15.09,15.09,0,0,1,7.31-1.71,15.68,15.68,0,0,1,4.52.59A10.6,10.6,0,0,1,346.77,77a9.19,9.19,0,0,1,2.29,2.56,14,14,0,0,1,1.61,4.08,25.52,25.52,0,0,1,.6,5.69h-18q0,5.13,1.83,7.55a6.37,6.37,0,0,0,5.48,2.42,9.15,9.15,0,0,0,3.88-.8,13.68,13.68,0,0,0,3.74-2.85Zm-7.64-11.86a16.68,16.68,0,0,0-1.14-6.46,3.41,3.41,0,0,0-3.28-2.13A3.9,3.9,0,0,0,335,79.86a14.67,14.67,0,0,0-1.54,6.38Z"/><path class="cls-1" d="M378,110.51v-.74a18.51,18.51,0,0,1,.71-5.36,27.51,27.51,0,0,1,2.52-5.49q1.83-3.17,5.53-8.56a50.64,50.64,0,0,0,6.17-11.55,31.52,31.52,0,0,0,1.85-10.41,23.38,23.38,0,0,0-1.25-8.53,8.18,8.18,0,0,0-3.23-4.21,9.15,9.15,0,0,0-4.62-1.15,8.43,8.43,0,0,0-7,3.17q-2.54,3.16-3.34,9.1h-12.6V54.11a90.33,90.33,0,0,1,14.42-5.26,50.1,50.1,0,0,1,11.66-1.34q8.9,0,14.65,2.46t8.29,6.6a17.88,17.88,0,0,1,2.53,9.53,24.59,24.59,0,0,1-.81,6.44,23.25,23.25,0,0,1-2.59,6,48,48,0,0,1-4.59,6.27q-2.79,3.3-7.85,8.69a50.35,50.35,0,0,0-5.15,6.2,19.32,19.32,0,0,0-2.46,4.89,17.74,17.74,0,0,0-.74,5.35v.61Zm15.3,9.7v20.35H375.14V120.21Z"/></g></g></svg>