<svg id="Capa_1" enable-background="new 0 0 512 512" height="512" viewBox="0 0 512 512" width="512" xmlns="http://www.w3.org/2000/svg"><path d="m474.5 106h-7.5v-32.5c0-15.164-12.337-27.5-27.5-27.5h-211c-15.163 0-27.5 12.336-27.5 27.5v5c0 4.142 3.357 7.5 7.5 7.5s7.5-3.358 7.5-7.5v-5c0-6.893 5.607-12.5 12.5-12.5h211c6.893 0 12.5 5.607 12.5 12.5v145c0 6.893-5.607 12.5-12.5 12.5h-211c-6.893 0-12.5-5.607-12.5-12.5v-105c0-4.142-3.357-7.5-7.5-7.5h-171c-20.678 0-37.5 16.822-37.5 37.5v285c0 20.678 16.822 37.5 37.5 37.5h366.5c4.143 0 7.5-3.358 7.5-7.5s-3.357-7.5-7.5-7.5h-366.5c-12.406 0-22.5-10.093-22.5-22.5v-285c0-12.407 10.094-22.5 22.5-22.5h163.5v97.5c0 15.164 12.337 27.5 27.5 27.5h211c15.163 0 27.5-12.336 27.5-27.5v-97.5h7.5c12.406 0 22.5 10.093 22.5 22.5v285c0 12.407-10.094 22.5-22.5 22.5h-35.5c-4.143 0-7.5 3.358-7.5 7.5s3.357 7.5 7.5 7.5h35.5c20.678 0 37.5-16.822 37.5-37.5v-285c0-20.678-16.822-37.5-37.5-37.5z"/><path d="m424.5 216c6.893 0 12.5-5.607 12.5-12.5v-115c0-6.893-5.607-12.5-12.5-12.5h-50-81-50c-6.893 0-12.5 5.607-12.5 12.5v115c0 6.893 5.607 12.5 12.5 12.5zm-124.677-60.339c8.711 8.844 20.812 14.339 34.177 14.339s25.467-5.496 34.179-14.34c11.672 10.002 18.321 24.374 18.321 39.84v5.5h-105v-5.5c0-15.351 6.677-29.839 18.323-39.839zm122.177 45.339h-20.5v-5.5c0-20.329-8.943-39.176-24.573-52.059 3.239-6.458 5.073-13.738 5.073-21.441v-31h40zm-55-110v31c0 18.196-14.804 33-33 33s-33-14.804-33-33v-31zm-121 0h40v31c0 7.705 1.835 14.986 5.076 21.445-.193.134-.383.276-.567.431-15.258 12.867-24.009 31.683-24.009 51.624v5.5h-20.5z"/><path d="m181 153.5c0-6.893-5.607-12.5-12.5-12.5h-121c-6.893 0-12.5 5.607-12.5 12.5v80c0 6.893 5.607 12.5 12.5 12.5h121c6.893 0 12.5-5.607 12.5-12.5zm-15 77.5h-116v-75h116z"/><path d="m181 278.5c0-6.893-5.607-12.5-12.5-12.5h-121c-6.893 0-12.5 5.607-12.5 12.5v20c0 6.893 5.607 12.5 12.5 12.5h121c6.893 0 12.5-5.607 12.5-12.5zm-15 17.5h-116v-15h116z"/><path d="m266.5 278.5c0-6.893-5.607-12.5-12.5-12.5h-20c-6.893 0-12.5 5.607-12.5 12.5v20c0 6.893 5.607 12.5 12.5 12.5h20c6.893 0 12.5-5.607 12.5-12.5zm-15 17.5h-15v-15h15z"/><path d="m326.5 278.5c0-6.893-5.607-12.5-12.5-12.5h-20c-6.893 0-12.5 5.607-12.5 12.5v20c0 6.893 5.607 12.5 12.5 12.5h20c6.893 0 12.5-5.607 12.5-12.5zm-15 17.5h-15v-15h15z"/><path d="m354 311h20c6.893 0 12.5-5.607 12.5-12.5v-20c0-6.893-5.607-12.5-12.5-12.5h-20c-6.893 0-12.5 5.607-12.5 12.5v20c0 6.893 5.607 12.5 12.5 12.5zm2.5-30h15v15h-15z"/><path d="m414 311h20c6.893 0 12.5-5.607 12.5-12.5v-20c0-6.893-5.607-12.5-12.5-12.5h-20c-6.893 0-12.5 5.607-12.5 12.5v20c0 6.893 5.607 12.5 12.5 12.5zm2.5-30h15v15h-15z"/><path d="m266.5 338.5c0-6.893-5.607-12.5-12.5-12.5h-20c-6.893 0-12.5 5.607-12.5 12.5v20c0 6.893 5.607 12.5 12.5 12.5h20c6.893 0 12.5-5.607 12.5-12.5zm-15 17.5h-15v-15h15z"/><path d="m326.5 338.5c0-6.893-5.607-12.5-12.5-12.5h-20c-6.893 0-12.5 5.607-12.5 12.5v20c0 6.893 5.607 12.5 12.5 12.5h20c6.893 0 12.5-5.607 12.5-12.5zm-15 17.5h-15v-15h15z"/><path d="m341.5 358.5c0 6.893 5.607 12.5 12.5 12.5h20c6.893 0 12.5-5.607 12.5-12.5v-20c0-6.893-5.607-12.5-12.5-12.5h-20c-6.893 0-12.5 5.607-12.5 12.5zm15-17.5h15v15h-15z"/><path d="m401.5 358.5c0 6.893 5.607 12.5 12.5 12.5h20c6.893 0 12.5-5.607 12.5-12.5v-20c0-6.893-5.607-12.5-12.5-12.5h-20c-6.893 0-12.5 5.607-12.5 12.5zm15-17.5h15v15h-15z"/><path d="m254 386h-20c-6.893 0-12.5 5.607-12.5 12.5v20c0 6.893 5.607 12.5 12.5 12.5h20c6.893 0 12.5-5.607 12.5-12.5v-20c0-6.893-5.607-12.5-12.5-12.5zm-2.5 30h-15v-15h15z"/><path d="m314 386h-20c-6.893 0-12.5 5.607-12.5 12.5v20c0 6.893 5.607 12.5 12.5 12.5h20c6.893 0 12.5-5.607 12.5-12.5v-20c0-6.893-5.607-12.5-12.5-12.5zm-2.5 30h-15v-15h15z"/><path d="m341.5 418.5c0 6.893 5.607 12.5 12.5 12.5h80c6.893 0 12.5-5.607 12.5-12.5v-20c0-6.893-5.607-12.5-12.5-12.5h-80c-6.893 0-12.5 5.607-12.5 12.5zm15-17.5h75v15h-75z"/><path d="m168.5 326h-121c-6.893 0-12.5 5.607-12.5 12.5v20c0 6.893 5.607 12.5 12.5 12.5h121c6.893 0 12.5-5.607 12.5-12.5v-20c0-6.893-5.607-12.5-12.5-12.5zm-2.5 30h-116v-15h116z"/><path d="m72 216h4c4.143 0 7.5-3.358 7.5-7.5s-3.357-7.5-7.5-7.5h-4c-4.143 0-7.5 3.358-7.5 7.5s3.357 7.5 7.5 7.5z"/><path d="m72 186h4c4.143 0 7.5-3.358 7.5-7.5s-3.357-7.5-7.5-7.5h-4c-4.143 0-7.5 3.358-7.5 7.5s3.357 7.5 7.5 7.5z"/><path d="m106 216h4c4.143 0 7.5-3.358 7.5-7.5s-3.357-7.5-7.5-7.5h-4c-4.143 0-7.5 3.358-7.5 7.5s3.357 7.5 7.5 7.5z"/><path d="m106 186h4c4.143 0 7.5-3.358 7.5-7.5s-3.357-7.5-7.5-7.5h-4c-4.143 0-7.5 3.358-7.5 7.5s3.357 7.5 7.5 7.5z"/><path d="m140 216h4c4.143 0 7.5-3.358 7.5-7.5s-3.357-7.5-7.5-7.5h-4c-4.143 0-7.5 3.358-7.5 7.5s3.357 7.5 7.5 7.5z"/><path d="m140 186h4c4.143 0 7.5-3.358 7.5-7.5s-3.357-7.5-7.5-7.5h-4c-4.143 0-7.5 3.358-7.5 7.5s3.357 7.5 7.5 7.5z"/></svg>