<svg id="Capa_1" enable-background="new 0 0 512 512" height="512" viewBox="0 0 512 512" width="512" xmlns="http://www.w3.org/2000/svg"><g><path d="m504.836 132.841v-42.541c0-6.351-5.167-11.517-11.517-11.517h-26.769v-16.217c0-4.143-3.358-7.5-7.5-7.5h-.69v-47.566c0-4.143-3.358-7.5-7.5-7.5h-389.72c-4.142 0-7.5 3.357-7.5 7.5v47.566h-.69c-4.142 0-7.5 3.357-7.5 7.5v16.217h-26.768c-6.35 0-11.517 5.166-11.517 11.517v42.541c-4.227 1.966-7.165 6.253-7.165 11.215v44.563c0 5.785 3.994 10.653 9.368 11.994v301.378c0 5.519 4.49 10.009 10.009 10.009h473.246c5.519 0 10.009-4.49 10.009-10.009v-301.378c5.374-1.341 9.368-6.209 9.368-11.994v-44.563c0-4.961-2.938-9.248-7.164-11.215zm-316.784 53.139c-4.142 0-7.5 3.357-7.5 7.5s3.358 7.5 7.5 7.5h212.824v296.02h-289.752v-296.02h41.928c4.142 0 7.5-3.357 7.5-7.5s-3.358-7.5-7.5-7.5h-138.052v-39.286h482v39.286zm238.308 15v296.02h-10.484v-296.02zm15 0h10.484v296.02h-10.484zm-370.72 0v296.02h-10.484v-296.02zm15 0h10.484v296.02h-10.484zm-15-130.914v34.765h-10.19v-34.765zm25.191 0v34.765h-10.191v-34.765zm236.844 13.131v23.497h-153.35v-23.497zm-160.85 38.497h168.351c4.142 0 7.5-3.357 7.5-7.5v-30.997h10v48.497h-203.351v-48.497h10v30.997c0 4.143 3.358 7.5 7.5 7.5zm229.344-27.911v12.372c-7.157 2.811-12.236 9.789-12.236 17.931v7.607h-16.258v-37.91zm50.382-23.717v34.765h-10.19v-34.765zm-47.618 54.021c0-2.347 1.909-4.256 4.255-4.256h51.344c2.346 0 4.255 1.909 4.255 4.256v7.607h-59.854zm22.427-54.021v34.765h-10.191v-34.765zm-287.035 61.628h-16.258v-7.607c0-8.143-5.08-15.12-12.236-17.931v-12.373h28.494zm-91.112-7.607c0-2.347 1.909-4.256 4.255-4.256h51.344c2.346 0 4.255 1.909 4.255 4.256v7.607h-59.854zm441.623-30.304v37.911h-11.049v-7.607c0-8.143-5.08-15.121-12.236-17.932v-12.372zm-421.196-78.783h374.72v40.066h-10v-22.566c0-4.143-3.358-7.5-7.5-7.5h-38.938c-4.142 0-7.5 3.357-7.5 7.5s3.358 7.5 7.5 7.5h31.438v15.066h-9.691c-4.142 0-7.5 3.357-7.5 7.5v16.217h-28.532c-.475-5.917-5.442-10.586-11.479-10.586h-210.317c-6.037 0-11.004 4.669-11.479 10.586h-28.532v-16.217c0-4.143-3.358-7.5-7.5-7.5h-9.69v-15.066h258.283c4.142 0 7.5-3.357 7.5-7.5s-3.358-7.5-7.5-7.5h-265.783c-4.142 0-7.5 3.357-7.5 7.5v22.566h-10zm-23.191 78.783v12.372c-7.157 2.811-12.236 9.789-12.236 17.932v7.607h-11.048v-37.911zm-21.081 107.197h20.788v296.02h-20.788zm442.476 296.02v-296.02h20.788v296.02z"/><path d="m204.538 377.567h29.601l-23.229 65.045c-2.943 8.241 3.177 16.929 11.929 16.929h16.507c4.352 0 8.346-2.191 10.686-5.864l8.299-13.036c2.225-3.494 1.195-8.13-2.299-10.354-3.494-2.221-8.13-1.194-10.354 2.3l-7.611 11.955h-11.917l24.784-69.397c2.188-6.123-2.36-12.576-8.861-12.576l-37.576-.061 38.983-109.067 45.388.061-22.073 61.808c-3.496 9.786 3.776 20.105 14.169 20.105l26.533.07-42.748 67.146c-2.225 3.494-1.195 8.13 2.299 10.354 3.494 2.226 8.13 1.195 10.354-2.3l42.748-67.146c6.368-10.003-.833-23.126-12.691-23.126l-26.538-.061 22.073-61.808c3.496-9.788-3.776-20.105-14.169-20.105h-45.345c-6.342 0-12.037 4.013-14.169 9.984l-38.94 109.038c-3.498 9.788 3.773 20.106 14.167 20.106z"/></g></svg>