<svg id="Layer_5" enable-background="new 0 0 64 64" height="512" viewBox="0 0 64 64" width="512" xmlns="http://www.w3.org/2000/svg"><circle cx="38" cy="26" r="1"/><circle cx="26" cy="26" r="1"/><path d="m36 32h-2c0 1.103-.897 2-2 2s-2-.897-2-2h-2c0 2.206 1.794 4 4 4s4-1.794 4-4z"/><path d="m31 57h2v2h-2z"/><path d="m31 53h2v2h-2z"/><path d="m39 57h6v2h-6z"/><path d="m52.785 49.397c.733-.547 1.215-1.414 1.215-2.397v-2c0-1.654-1.346-3-3-3h-13.47c-.339-.496-.53-1.078-.53-1.686v-.718c3.077-2.126 5.427-5.126 6.759-8.596h.241c2.757 0 5-2.243 5-5v-7.184c1.161-.414 2-1.514 2-2.816 0-1.654-1.346-3-3-3h-.131l.44-.66c.451-.68.69-1.469.69-2.284 0-1.649-.979-3.135-2.496-3.785l-10.272-4.403c-2.689-1.152-5.773-1.153-8.463 0l-10.273 4.403c-1.516.65-2.495 2.136-2.495 3.785 0 .814.239 1.604.691 2.284l.44.66h-.131c-1.654 0-3 1.346-3 3 0 1.302.839 2.402 2 2.816v7.184c0 2.757 2.243 5 5 5h.241c1.332 3.471 3.682 6.47 6.759 8.596v.718c0 .607-.191 1.189-.53 1.686h-13.47c-1.654 0-3 1.346-3 3v2c0 .983.482 1.85 1.215 2.397-3.879 2.98-6.215 7.626-6.215 12.603v1h54v-1c0-4.976-2.336-9.623-6.215-12.603zm-.785-4.397v2c0 .551-.448 1-1 1h-3v-4h3c.552 0 1 .449 1 1zm-8 3v-4h2v4zm-6-4h4v4h-3c-.552 0-1-.449-1-1zm-10.881 5.12c.567-.568.878-1.322.877-2.122l.002-1.586 2.521 2.521-3.768 3.14-.203-1.515c.204-.125.398-.265.571-.438zm4.881.182 3 2.5v9.198h-6v-9.198zm1.481-1.369 2.519-2.519v1.586c0 1.086.586 2.03 1.452 2.557l-.203 1.516zm-14.793-28.933h26.624c-3.377 2.583-7.474 4-11.797 4h-3.029c-4.324 0-8.421-1.417-11.798-4zm-.277 2.283c-.513.174-.987.422-1.411.743v-1.79c.457.369.929.718 1.411 1.047zm28.589-1.048v1.79c-.424-.321-.898-.569-1.411-.742.482-.329.954-.678 1.411-1.048zm-2.586 8.723c.379-1.482.586-3.025.586-4.607v-1.167c1.161.414 2 1.514 2 2.816 0 1.512-1.129 2.754-2.586 2.958zm-27.058-17.727c-.233-.349-.356-.756-.356-1.175 0-.848.504-1.613 1.283-1.947l10.272-4.402c2.189-.938 4.699-.938 6.889 0l10.271 4.402c.781.334 1.285 1.099 1.285 1.947 0 .419-.123.826-.355 1.175l-1.18 1.769h-10.03c.975-1.114 1.565-2.556 1.565-4.123v-1.495l-5-2.5-5 2.5v1.495c0 1.567.59 3.009 1.565 4.123h-10.03zm11.644-2.354v-.259l3-1.5 3 1.5v.259c0 1.883-1.222 3.528-3 4.084-1.778-.556-3-2.201-3-4.084zm-13 6.123h15.877l.123.031.123-.031h15.877c.552 0 1 .449 1 1s-.448 1-1 1h-32c-.552 0-1-.449-1-1s.448-1 1-1zm1 11c0-1.302.839-2.402 2-2.816v1.167c0 1.582.207 3.125.586 4.607-1.457-.204-2.586-1.446-2.586-2.958zm4-1.649v-1.571c2.916 1.439 6.138 2.22 9.485 2.22h3.029c3.348 0 6.569-.781 9.485-2.22v1.571c0 7.023-4.406 13.247-11 15.591-6.593-2.344-10.999-8.568-10.999-15.591zm10.684 17.598.316.105.316-.105c.95-.317 1.861-.705 2.728-1.157.071.739.289 1.45.667 2.083l-3.711 3.711-3.711-3.711c.379-.633.596-1.345.667-2.083.867.452 1.778.84 2.728 1.157zm-5.688 5.05c0 .268-.104.519-.292.708-.189.189-.44.293-.708.293h-2.996v-4h3.999zm-7.996 1.001v-4h2v4zm-6-3c0-.551.448-1 1-1h3v4h-3c-.552 0-1-.449-1-1zm1.915 5h10.675l.66 4.927 1.75-1.459v7.532h-3.333c.839-.848 1.333-1.995 1.333-3.236v-1.382l-3-1.5-3 1.5v1.382c0 1.241.494 2.388 1.333 3.236h-3.333v-6h-2v6h-7.964c.329-4.56 2.901-8.688 6.879-11zm7.085 7.764v-.146l1-.5 1 .5v.146c0 .818-.373 1.569-1 2.059-.627-.49-1-1.24-1-2.059zm28 3.236v-6h-2v6h-10v-7.532l1.751 1.459.66-4.927h10.675c3.977 2.313 6.549 6.44 6.878 11z"/></svg>