<?xml version="1.0" encoding="iso-8859-1"?>
<!-- Generator: Adobe Illustrator 21.0.0, SVG Export Plug-In . SVG Version: 6.00 Build 0)  -->
<svg xmlns="http://www.w3.org/2000/svg" xmlns:xlink="http://www.w3.org/1999/xlink" version="1.1" id="Capa_1" x="0px" y="0px" viewBox="0 0 512 512" style="enable-background:new 0 0 512 512;" xml:space="preserve" width="512" height="512">
<g>
	<path d="M497,121h-47.753L357.751,5.677C354.905,2.09,350.578,0,346,0c-0.011,0-0.022,0-0.034,0   c-4.59,0.01-8.922,2.122-11.759,5.73L301.155,47.78L267.751,5.677C264.905,2.091,260.578,0,256,0s-8.905,2.091-11.751,5.677   L210.845,47.78L177.793,5.73c-2.837-3.609-7.169-5.72-11.759-5.73c-0.012,0-0.022,0-0.034,0c-4.577,0-8.905,2.09-11.751,5.677   L62.753,121H15c-8.284,0-15,6.716-15,15v60c0,8.284,6.716,15,15,15h17.752l26.266,211H30v-15c0-8.284-6.716-15-15-15   s-15,6.716-15,15v60c0,8.284,6.716,15,15,15s15-6.716,15-15v-15c7.075,0,54.658,0,61,0c0,33.084,26.916,60,60,60s60-26.916,60-60   h90c0,33.084,26.916,60,60,60s60-26.916,60-60h15c7.567,0,13.95-5.637,14.885-13.147L479.248,211H497c8.284,0,15-6.716,15-15v-60   C512,127.716,505.284,121,497,121z M346.055,39.203L410.951,121h-51.704l-38.924-49.061L346.055,39.203z M256,39.134   c1.75,2.205,63.129,79.57,64.951,81.866H191.049C192.435,119.253,254.745,40.716,256,39.134z M165.945,39.203l25.732,32.736   L152.753,121h-51.704L165.945,39.203z M151,482c-16.542,0-30-13.458-30-30s13.458-30,30-30s30,13.458,30,30S167.542,482,151,482z    M361,482c-16.542,0-30-13.458-30-30s13.458-30,30-30s30,13.458,30,30S377.542,482,361,482z M422.751,422h-9.823   c-10.391-17.916-29.769-30-51.928-30s-41.537,12.084-51.928,30H202.928c-10.391-17.916-29.769-30-51.928-30   s-41.537,12.084-51.928,30h-9.823L62.983,211h386.035L422.751,422z M482,181H30v-30c22.259,0,429.704,0,452,0V181z"/>
	<path d="M166,361c8.284,0,15-6.716,15-15v-90c0-8.284-6.716-15-15-15s-15,6.716-15,15v90C151,354.284,157.716,361,166,361z"/>
	<path d="M256,361c8.284,0,15-6.716,15-15v-90c0-8.284-6.716-15-15-15s-15,6.716-15,15v90C241,354.284,247.716,361,256,361z"/>
	<path d="M346,361c8.284,0,15-6.716,15-15v-90c0-8.284-6.716-15-15-15s-15,6.716-15,15v90C331,354.284,337.716,361,346,361z"/>
</g>















</svg>
