<?xml version="1.0" encoding="iso-8859-1"?>
<!-- Generator: Adobe Illustrator 19.0.0, SVG Export Plug-In . SVG Version: 6.00 Build 0)  -->
<svg version="1.1" id="Capa_1" xmlns="http://www.w3.org/2000/svg" xmlns:xlink="http://www.w3.org/1999/xlink" x="0px" y="0px"
	 viewBox="0 0 512.002 512.002" style="enable-background:new 0 0 512.002 512.002;" xml:space="preserve">
<g>
	<g>
		<g>
			<path d="M300.001,372.002c-2.799,0-5.555,0.184-8.269,0.505l-25.976-96.941c-1.171-4.372-5.133-7.412-9.659-7.412h-23.639
				c-5.522,0-10,4.477-10,10s4.478,10,10,10h15.966l11.962,44.644H125.42l-10.511-18.145h33.05c5.522,0,10-4.477,10-10
				s-4.478-10-10-10h-50.4c-3.575,0-6.879,1.909-8.664,5.006c-1.785,3.097-1.781,6.913,0.011,10.006l19.393,33.478l-16.238,32.441
				c-6.94-2.312-14.354-3.582-22.061-3.582c-38.598,0-69.999,31.402-69.999,70c0,38.598,31.401,70,69.999,70
				c35.179,0,64.368-26.088,69.267-59.931l37.902,0.038c0.007,0,0.015,0.001,0.022,0.001c0.047,0,0.095-0.008,0.143-0.009
				c0.332-0.005,0.662-0.026,0.99-0.063c0.145-0.017,0.288-0.043,0.433-0.066c0.247-0.039,0.491-0.086,0.733-0.144
				c0.145-0.035,0.29-0.07,0.435-0.111c0.286-0.082,0.566-0.178,0.844-0.285c0.089-0.034,0.179-0.061,0.267-0.098
				c0.365-0.152,0.719-0.33,1.064-0.525c0.031-0.017,0.063-0.029,0.095-0.047c0.11-0.064,0.21-0.138,0.316-0.206
				c0.141-0.088,0.282-0.175,0.418-0.271c0.154-0.108,0.3-0.224,0.446-0.339c0.111-0.088,0.225-0.174,0.332-0.267
				c0.161-0.138,0.311-0.284,0.462-0.431c0.063-0.062,0.132-0.117,0.194-0.181l83.961-86.643l4.088,15.253
				C247.493,388.406,230,413.195,230,442.001c0,38.598,31.401,70,70,70s70-31.402,70-70
				C370.001,403.404,338.599,372.002,300.001,372.002z M70,492.002c-27.569,0-49.999-22.43-49.999-50s22.43-50,49.999-50
				c4.49,0,8.84,0.604,12.983,1.72l-21.925,43.805c-1.551,3.098-1.388,6.778,0.433,9.727c1.819,2.949,5.035,4.745,8.5,4.749
				l48.996,0.049C114.322,474.821,94.13,492.002,70,492.002z M86.18,432.018l14.674-29.318c9.156,7.204,15.751,17.521,18.15,29.351
				L86.18,432.018z M139.284,432.071c-2.801-19.628-13.772-36.649-29.351-47.512l10.363-20.702l39.526,68.234L139.284,432.071z
				 M179.206,425.65l-42.201-72.852h112.799L179.206,425.65z M300.001,492.002c-27.57,0-50-22.43-50-50
				c0-19.545,11.279-36.497,27.666-44.715l12.675,47.303c1.197,4.468,5.237,7.414,9.653,7.414c0.856,0,1.727-0.111,2.594-0.343
				c5.335-1.429,8.501-6.913,7.071-12.248l-12.678-47.312c1-0.06,2.005-0.1,3.019-0.1c27.57,0,50,22.43,50,50
				C350.001,469.572,327.571,492.002,300.001,492.002z"/>
			<path d="M482.002,0h-120c-16.542,0-30,13.458-30,30v120c0,16.542,13.458,30,30,30h50v257.564h-12
				c-4.826,0-8.964,3.447-9.836,8.193l-10,54.438c-0.536,2.919,0.253,5.926,2.152,8.207c1.9,2.281,4.715,3.6,7.684,3.6h64.001
				c2.969,0,5.783-1.319,7.684-3.6c1.899-2.281,2.688-5.288,2.152-8.207l-10.001-54.439c-0.872-4.746-5.01-8.193-9.836-8.193h-12
				V180h50c16.542,0,30-13.458,30-30V30C512.003,13.458,498.544,0,482.002,0z M435.673,457.563l6.326,34.439h-39.992l6.326-34.439
				H435.673z M492.002,150c0,5.514-4.486,10-10,10h-120c-5.514,0-10-4.486-10-10V30c0-5.514,4.486-10,10-10h120
				c5.514,0,10,4.486,10,10V150z"/>
			<path d="M422.002,42.881h-22.367c-5.522,0-10,4.477-10,10v44.736v29.5c0,5.523,4.478,10,10,10c5.522,0,10-4.477,10-10v-19.5
				h12.367c17.849,0,32.369-14.521,32.369-32.368C454.372,57.402,439.851,42.881,422.002,42.881z M422.002,87.618h-12.367V62.881
				h12.367c6.82,0,12.369,5.548,12.369,12.368C434.372,82.069,428.823,87.618,422.002,87.618z"/>
			<path d="M87.707,352.798c5.508,0,10-4.492,10-10s-4.492-10.001-10-10.001s-10,4.493-10,10.001S82.199,352.798,87.707,352.798z"/>
			<path d="M302.205,352.798c5.509,0,10.001-4.492,10.001-10s-4.492-10.001-10.001-10.001c-5.508,0-10,4.493-10,10.001
				S296.697,352.798,302.205,352.798z"/>
		</g>
	</g>
</g>
<g>
</g>
<g>
</g>
<g>
</g>
<g>
</g>
<g>
</g>
<g>
</g>
<g>
</g>
<g>
</g>
<g>
</g>
<g>
</g>
<g>
</g>
<g>
</g>
<g>
</g>
<g>
</g>
<g>
</g>
</svg>
